<svg width="18" height="17" viewBox="0 0 18 17" fill="none" xmlns="http://www.w3.org/2000/svg">
<g clip-path="url(#clip0_3202_11810)">
<path d="M5.37066 13.0695C6.2521 13.0695 6.96666 12.3452 6.96666 11.4518C6.96666 10.5583 6.2521 9.83398 5.37066 9.83398C4.48921 9.83398 3.77466 10.5583 3.77466 11.4518C3.77466 12.3452 4.48921 13.0695 5.37066 13.0695Z" fill="#FFB1A2"/>
<path d="M12.8284 13.0695C13.7099 13.0695 14.4244 12.3452 14.4244 11.4518C14.4244 10.5583 13.7099 9.83398 12.8284 9.83398C11.947 9.83398 11.2324 10.5583 11.2324 11.4518C11.2324 12.3452 11.947 13.0695 12.8284 13.0695Z" fill="#FFB1A2"/>
<path d="M7.59361 8.93331C7.59361 8.3122 7.09486 7.80664 6.48211 7.80664C5.86936 7.80664 5.37061 8.3122 5.37061 8.93331C5.37061 9.55442 5.86936 10.06 6.48211 10.06C7.09486 10.06 7.59361 9.55442 7.59361 8.93331ZM6.48211 9.30886C6.27786 9.30886 6.11161 9.14034 6.11161 8.93331C6.11161 8.72627 6.27786 8.55775 6.48211 8.55775C6.68636 8.55775 6.85261 8.72627 6.85261 8.93331C6.85261 9.14034 6.68636 9.30886 6.48211 9.30886Z" fill="#393939"/>
<path d="M15.7873 7.15171C16.2481 2.64504 12.6286 1.01282 12.5906 0.998373L12.5858 1.008C11.5503 0.550595 10.3106 0.29541 9.07556 0.29541C5.86456 0.29541 2.40656 1.94208 2.40656 5.56282V7.14208C1.56106 7.3106 0.924561 8.07134 0.924561 8.97652C0.924561 9.96356 1.68456 10.7773 2.63931 10.8495C3.34706 13.411 5.61281 16.0687 9.07556 16.0687C12.5336 16.0687 14.7993 13.4158 15.5118 10.8495C16.4666 10.7773 17.2266 9.96837 17.2266 8.97652C17.2266 8.08578 16.6091 7.3443 15.7873 7.15171ZM1.66556 8.97652C1.66556 8.48541 1.97431 8.07134 2.40656 7.91245V9.05837C2.40656 9.39541 2.43031 9.73245 2.47781 10.0599C2.01706 9.92504 1.66556 9.49171 1.66556 8.97652ZM3.14756 5.56282C3.14756 2.46208 6.22081 1.04652 9.07556 1.04652C10.2488 1.04652 11.4221 1.29208 12.3816 1.73504C12.3911 1.73985 12.4006 1.73504 12.4101 1.73985C12.9563 2.01911 15.3836 3.47319 15.0606 7.00726L13.3553 6.76171C11.4268 6.48245 9.60756 5.56282 8.23006 4.16652C8.14931 4.08467 8.04481 4.05097 7.93081 4.05578C7.82156 4.06541 7.72181 4.128 7.66006 4.21948C6.75756 5.58689 5.38481 6.52097 3.79356 6.84356L3.15231 6.97356V5.56282H3.14756ZM15.0036 9.06319C15.0036 9.53022 14.9561 9.98763 14.8563 10.4162C14.3006 12.7754 12.2486 15.3176 9.07556 15.3176C5.89781 15.3176 3.85056 12.7754 3.29481 10.421C3.19506 9.98282 3.14756 9.52541 3.14756 9.06319V7.73911L3.93606 7.58022C5.57956 7.248 7.01406 6.338 8.01631 4.99948C9.46506 6.338 11.3033 7.22393 13.2461 7.50319L15.0036 7.75837V9.06319V9.06319ZM15.6733 10.0647C15.7208 9.73726 15.7446 9.40022 15.7446 9.06319V7.91726C16.1768 8.07134 16.4856 8.49023 16.4856 8.98134C16.4856 9.49652 16.1436 9.92985 15.6733 10.0647Z" fill="#393939"/>
<path d="M6.99034 13.1463C6.82884 13.2763 6.80509 13.5122 6.93334 13.6759C7.06159 13.8348 7.29434 13.8637 7.45584 13.7337C8.56259 12.8381 9.59334 12.8381 10.7001 13.7337C10.7666 13.7866 10.8521 13.8155 10.9328 13.8155C11.0421 13.8155 11.1513 13.7674 11.2226 13.6759C11.3508 13.5122 11.3223 13.2763 11.1656 13.1463C9.79759 12.0437 8.35359 12.0437 6.99034 13.1463Z" fill="#393939"/>
<path d="M12.5572 8.01376C12.4669 7.8308 12.2437 7.75376 12.0584 7.84524L10.5717 8.59635C10.4482 8.65895 10.3674 8.78895 10.3674 8.93339C10.3674 9.07784 10.4482 9.20784 10.5717 9.27043L12.0584 10.0215C12.1107 10.0504 12.1677 10.0601 12.2247 10.0601C12.3624 10.0601 12.4907 9.98302 12.5572 9.85302C12.6474 9.66524 12.5762 9.44376 12.3909 9.34747L11.5692 8.93339L12.3909 8.51932C12.5762 8.42302 12.6522 8.20154 12.5572 8.01376Z" fill="#393939"/>
<path d="M6.02616 10.9655C6.13634 10.9655 6.22566 10.8749 6.22566 10.7633C6.22566 10.6516 6.13634 10.561 6.02616 10.561C5.91598 10.561 5.82666 10.6516 5.82666 10.7633C5.82666 10.8749 5.91598 10.9655 6.02616 10.9655Z" fill="#393939"/>
<path d="M4.95281 11.2732C5.11809 11.2732 5.25206 11.1374 5.25206 10.9698C5.25206 10.8023 5.11809 10.6665 4.95281 10.6665C4.78754 10.6665 4.65356 10.8023 4.65356 10.9698C4.65356 11.1374 4.78754 11.2732 4.95281 11.2732Z" fill="#393939"/>
<path d="M5.77909 11.9621C5.88927 11.9621 5.97859 11.8715 5.97859 11.7598C5.97859 11.6482 5.88927 11.5576 5.77909 11.5576C5.66891 11.5576 5.57959 11.6482 5.57959 11.7598C5.57959 11.8715 5.66891 11.9621 5.77909 11.9621Z" fill="#393939"/>
<path d="M13.1084 11.0472C13.2632 11.0472 13.3886 10.92 13.3886 10.7631C13.3886 10.6062 13.2632 10.479 13.1084 10.479C12.9536 10.479 12.8281 10.6062 12.8281 10.7631C12.8281 10.92 12.9536 11.0472 13.1084 11.0472Z" fill="#393939"/>
<path d="M12.1394 11.1725C12.2496 11.1725 12.3389 11.082 12.3389 10.9703C12.3389 10.8586 12.2496 10.7681 12.1394 10.7681C12.0293 10.7681 11.9399 10.8586 11.9399 10.9703C11.9399 11.082 12.0293 11.1725 12.1394 11.1725Z" fill="#393939"/>
<path d="M12.7996 11.9621C12.9098 11.9621 12.9991 11.8715 12.9991 11.7598C12.9991 11.6482 12.9098 11.5576 12.7996 11.5576C12.6894 11.5576 12.6001 11.6482 12.6001 11.7598C12.6001 11.8715 12.6894 11.9621 12.7996 11.9621Z" fill="#393939"/>
</g>
<defs>
<clipPath id="clip0_3202_11810">
<rect width="16.302" height="15.7733" fill="white" transform="translate(0.925049 0.296387)"/>
</clipPath>
</defs>
</svg>
