<svg width="22" height="26" viewBox="0 0 22 26" fill="none" xmlns="http://www.w3.org/2000/svg">
<ellipse cx="13.2332" cy="11.5172" rx="2.62161" ry="2.65738" fill="#FFB1A2"/>
<ellipse cx="15.4179" cy="16.3888" rx="1.74774" ry="1.77159" fill="#FFB1A2"/>
<path d="M15.979 16.4582C16.1505 16.4582 16.2896 16.3171 16.2896 16.1432C16.2896 15.9692 16.1505 15.8281 15.979 15.8281C15.8075 15.8281 15.6685 15.9692 15.6685 16.1432C15.6685 16.3171 15.8075 16.4582 15.979 16.4582Z" fill="black"/>
<path d="M11.6729 14.9758C11.8444 14.9758 11.9834 14.8347 11.9834 14.6607C11.9834 14.4867 11.8444 14.3457 11.6729 14.3457C11.5013 14.3457 11.3623 14.4867 11.3623 14.6607C11.3623 14.8347 11.5013 14.9758 11.6729 14.9758Z" fill="black"/>
<path d="M13.0544 14.9758C13.226 14.9758 13.365 14.8347 13.365 14.6607C13.365 14.4867 13.226 14.3457 13.0544 14.3457C12.8829 14.3457 12.7439 14.4867 12.7439 14.6607C12.7439 14.8347 12.8829 14.9758 13.0544 14.9758Z" fill="black"/>
<path d="M14.8545 17.4621C15.026 17.4621 15.165 17.3211 15.165 17.1471C15.165 16.9731 15.026 16.832 14.8545 16.832C14.683 16.832 14.5439 16.9731 14.5439 17.1471C14.5439 17.3211 14.683 17.4621 14.8545 17.4621Z" fill="black"/>
<path d="M14.5134 13.4934C14.6849 13.4934 14.824 13.3523 14.824 13.1783C14.824 13.0043 14.6849 12.8633 14.5134 12.8633C14.3419 12.8633 14.2029 13.0043 14.2029 13.1783C14.2029 13.3523 14.3419 13.4934 14.5134 13.4934Z" fill="black"/>
<path d="M13.0544 12.01C13.226 12.01 13.365 11.8689 13.365 11.6949C13.365 11.5209 13.226 11.3799 13.0544 11.3799C12.8829 11.3799 12.7439 11.5209 12.7439 11.6949C12.7439 11.8689 12.8829 12.01 13.0544 12.01Z" fill="black"/>
<path d="M13.6597 20.8166L11.3097 16.9943C10.5555 16.8099 8.83119 16.3284 7.96801 15.8774C7.10482 15.4264 5.62307 14.5452 4.99009 14.1609C4.688 13.9673 4.16815 13.4345 4.50556 12.8516C4.84297 12.2686 5.82766 12.4456 6.27783 12.607L7.51366 12.9791C7.68481 13.0093 7.96672 12.9417 7.72519 12.4297C7.48365 11.9177 5.36043 7.73938 4.32901 5.71424C4.21629 5.43161 4.17013 4.79902 4.70328 4.46155C5.23053 4.12782 5.64842 4.50971 5.84485 4.75476C6.00199 4.95079 7.52005 7.60367 8.25943 8.9056" stroke="black" stroke-width="0.868421" stroke-linecap="round"/>
<path d="M8.23975 8.91021L5.4288 4.0403C5.31035 3.82283 5.1987 3.30863 5.69962 2.99157C6.20054 2.6745 6.65054 2.97455 6.81292 3.16421L9.91587 7.98782" stroke="black" stroke-width="0.868421" stroke-linecap="round"/>
<path d="M9.86899 7.92631L7.09338 3.63488C7.00374 3.4146 6.94306 2.89896 7.41755 2.59861C7.89205 2.29826 8.2998 2.59421 8.44437 2.77972L11.5937 7.1578" stroke="black" stroke-width="0.868421" stroke-linecap="round"/>
<path d="M11.5926 7.16718L9.55357 4.29926C9.47064 4.08993 9.40374 3.60866 9.7996 3.35822C10.2944 3.04516 10.8606 3.51857 10.9015 3.58508C10.9342 3.6383 13.0179 6.28084 14.0556 7.59546C14.8475 8.63447 16.4123 11.1587 16.337 12.9434L16.3423 13.7716C16.6749 14.362 17.7047 15.9866 19.1633 17.7618C20.6219 19.5371 20.566 19.4462 20.3557 19.1788" stroke="black" stroke-width="0.868421" stroke-linecap="round"/>
</svg>
