<svg width="14" height="14" viewBox="0 0 14 14" fill="none" xmlns="http://www.w3.org/2000/svg">
<path d="M7 14C8.38447 14 9.73785 13.5895 10.889 12.8203C12.0401 12.0511 12.9373 10.9579 13.4672 9.67879C13.997 8.3997 14.1356 6.99224 13.8655 5.63437C13.5954 4.2765 12.9287 3.02922 11.9497 2.05026C10.9708 1.07129 9.7235 0.404603 8.36563 0.134506C7.00776 -0.13559 5.6003 0.00303299 4.32122 0.532846C3.04213 1.06266 1.94888 1.95987 1.17971 3.11101C0.410543 4.26215 0 5.61553 0 7C0.00232557 8.8558 0.74057 10.6349 2.05282 11.9472C3.36507 13.2594 5.1442 13.9977 7 14ZM7 1.36661C8.11383 1.36661 9.20264 1.69688 10.1288 2.31566C11.0549 2.93444 11.7768 3.81394 12.2031 4.84295C12.6294 5.87197 12.741 7.00429 12.5238 8.09673C12.3066 9.18918 11.7704 10.1927 10.9829 10.9804C10.1954 11.7681 9.19202 12.3046 8.09963 12.5221C7.00724 12.7395 5.87489 12.6282 4.84577 12.2022C3.81664 11.7761 2.93695 11.0545 2.31793 10.1285C1.69891 9.20256 1.36836 8.11383 1.36807 7C1.36962 5.5068 1.96348 4.07519 3.01934 3.01934C4.07519 1.96348 5.50679 1.36816 7 1.36661ZM7.63716 10.4304C7.63716 10.5735 7.59472 10.7134 7.51521 10.8324C7.43571 10.9514 7.3227 11.0442 7.19048 11.0989C7.05826 11.1537 6.91278 11.168 6.77242 11.1401C6.63205 11.1122 6.50312 11.0433 6.40193 10.9421C6.30073 10.8409 6.23182 10.712 6.2039 10.5716C6.17598 10.4312 6.19031 10.2857 6.24508 10.1535C6.29984 10.0213 6.39259 9.9083 6.51158 9.82879C6.63057 9.74928 6.77047 9.70684 6.91358 9.70684C7.00872 9.70684 7.10294 9.72561 7.19082 9.76206C7.2787 9.79852 7.35854 9.85195 7.42575 9.91929C7.49296 9.98664 7.54623 10.0666 7.5825 10.1545C7.61878 10.2425 7.63735 10.3353 7.63716 10.4304ZM4.65641 4.79117C4.62508 4.70211 4.61167 4.60773 4.61695 4.51346C4.62223 4.4192 4.6461 4.3269 4.68717 4.24189C4.88515 3.82622 5.1963 3.47477 5.58492 3.22787C5.97353 2.98097 6.42388 2.84862 6.88428 2.846H6.89893C7.54138 2.84856 8.15798 3.09934 8.61984 3.54592C9.08171 3.9925 9.35309 4.60031 9.37727 5.24231C9.39368 5.76912 9.24 6.2872 8.93899 6.71985C8.63798 7.1525 8.20565 7.47671 7.706 7.64449C7.706 7.64449 7.63423 7.66939 7.63423 7.71187V8.28604C7.63423 8.47698 7.55838 8.66009 7.42337 8.7951C7.28836 8.93012 7.10525 9.00596 6.91431 9.00596C6.72338 9.00596 6.54026 8.93012 6.40525 8.7951C6.27024 8.66009 6.19439 8.47698 6.19439 8.28604V7.71187C6.19762 7.39363 6.30053 7.0844 6.48866 6.8277C6.67678 6.571 6.94065 6.37973 7.24315 6.28081C7.45136 6.21026 7.63138 6.07465 7.75665 5.89399C7.88193 5.71334 7.94582 5.4972 7.9389 5.27747C7.92481 5.01145 7.81015 4.76073 7.61815 4.57607C7.42615 4.39142 7.17115 4.28662 6.90479 4.28291C6.71262 4.28496 6.5249 4.34098 6.36304 4.44457C6.20117 4.54816 6.07168 4.69516 5.98933 4.8688C5.92823 4.99882 5.82959 5.10757 5.70612 5.18102C5.58266 5.25447 5.44003 5.28926 5.29661 5.2809C5.15319 5.27255 5.01556 5.22144 4.90146 5.13415C4.78735 5.04687 4.702 4.92741 4.65641 4.79117Z" fill="#808080"/>
</svg>
