<svg width="19" height="21" viewBox="0 0 19 21" fill="none" xmlns="http://www.w3.org/2000/svg">
<path d="M18.6193 10.1745C18.6193 9.16398 17.9014 8.32463 16.9516 8.13136V6.37535C16.9516 2.35529 13.053 0.521973 9.4361 0.521973C5.81916 0.521973 1.92059 2.35529 1.92059 6.37535V8.13136C0.970797 8.32463 0.25293 9.16398 0.25293 10.1745C0.25293 11.2734 1.10885 12.1735 2.18565 12.2563C2.42862 13.1343 2.82621 13.9737 3.33976 14.7302C2.30161 15.5806 1.55613 16.558 1.11437 17.6735C1.05915 17.8115 1.08124 17.9661 1.16959 18.0821C1.25794 18.1981 1.40152 18.2588 1.55061 18.2422C3.49437 18.0158 5.06816 18.7834 5.85781 20.3351C5.91856 20.4566 6.04004 20.5449 6.17809 20.5615C6.19466 20.5615 6.21123 20.567 6.23331 20.567C6.3548 20.567 6.46524 20.5173 6.54807 20.4235L8.67958 18.0103C8.92808 18.0434 9.18209 18.06 9.4361 18.06C13.3347 18.06 15.8859 15.1112 16.6866 12.2563C17.7689 12.1735 18.6193 11.2734 18.6193 10.1745ZM9.4361 1.3558C12.6555 1.3558 16.1178 2.92407 16.1178 6.37535V7.97122L14.2569 7.70616C12.0867 7.39693 10.0325 6.36983 8.48079 4.81813C8.39244 4.72978 8.27095 4.69112 8.14394 4.69664C8.01694 4.70769 7.9065 4.77948 7.84023 4.87887C6.82417 6.40296 5.278 7.43558 3.48333 7.79452L2.75994 7.93809V6.37535C2.75994 2.92959 6.22227 1.3558 9.4361 1.3558ZM1.08676 10.1745C1.08676 9.63336 1.43465 9.16951 1.92059 8.99832V10.2629C1.92059 10.6329 1.9482 11.0028 2.00342 11.3673C1.47883 11.2127 1.08676 10.7433 1.08676 10.1745ZM6.3051 19.435C5.41053 18.1042 3.93614 17.3642 2.19669 17.3642H2.18013C3.18514 15.5033 5.278 14.0731 8.41452 13.1123C8.92808 12.9576 9.4858 13.0846 9.8613 13.4546C10.3804 13.9626 10.408 14.7854 9.92757 15.3321L8.24886 17.2317C8.20469 17.2648 8.16603 17.309 8.13842 17.3587L6.3051 19.435ZM15.9521 11.7704C15.3226 14.3934 13.0144 17.2207 9.4361 17.2207C9.41402 17.2207 9.39745 17.2207 9.37536 17.2207L10.5571 15.8843C11.3302 15.0063 11.2805 13.681 10.4466 12.8582C9.85026 12.2784 8.97777 12.0631 8.17155 12.3171C6.51494 12.8251 5.1289 13.4657 4.01345 14.2277C3.50542 13.4822 3.12992 12.6429 2.9256 11.7814C2.81516 11.2955 2.75994 10.7875 2.75994 10.2684V8.79953L3.64899 8.62282C5.49888 8.25285 7.11684 7.24231 8.24886 5.75136C9.87787 7.24231 11.9542 8.22524 14.1409 8.53447L16.1178 8.8161V10.2684C16.1178 10.7819 16.0626 11.29 15.9521 11.7704ZM16.8688 11.3728C16.9185 11.0084 16.9516 10.6384 16.9516 10.2629V8.99832C17.4376 9.16951 17.7854 9.62784 17.7854 10.1745C17.7854 10.7488 17.3989 11.2237 16.8688 11.3728Z" fill="#393939"/>
<path d="M7.53639 9.74933L5.86873 8.9155C5.66442 8.81058 5.4104 8.89893 5.31101 9.10325C5.20609 9.30756 5.29444 9.56158 5.49876 9.66098L6.42094 10.1248L5.49876 10.5887C5.29444 10.6936 5.20609 10.9421 5.31101 11.1464C5.38279 11.29 5.53189 11.3783 5.68651 11.3783C5.74725 11.3783 5.81351 11.3618 5.87426 11.3342L7.54192 10.5003C7.68549 10.4285 7.77384 10.285 7.77384 10.1248C7.76832 9.96469 7.67997 9.82111 7.53639 9.74933Z" fill="#393939"/>
<path d="M13.5667 9.10325C13.4618 8.89893 13.2133 8.81058 13.009 8.9155L11.3413 9.74933C11.1977 9.82111 11.1094 9.96469 11.1094 10.1248C11.1094 10.285 11.1977 10.4285 11.3413 10.5003L13.009 11.3342C13.0697 11.3618 13.1304 11.3783 13.1967 11.3783C13.3513 11.3783 13.4949 11.2955 13.5722 11.1464C13.6771 10.9421 13.5888 10.6881 13.3845 10.5887L12.4623 10.1248L13.3845 9.6665C13.5888 9.56158 13.6716 9.30756 13.5667 9.10325Z" fill="#393939"/>
<path d="M6.30515 19.4351C5.41058 18.1043 3.93619 17.3643 2.19674 17.3643H2.18018C3.18519 15.5034 5.27805 14.0732 8.41457 13.1123C8.92812 12.9577 9.48585 13.0847 9.86135 13.4547C10.3804 13.9627 10.408 14.7855 9.92762 15.3322L8.24891 17.2318C8.20474 17.2649 8.16608 17.3091 8.13847 17.3588L6.30515 19.4351Z" fill="#FFE88B"/>
</svg>
