<svg width="23" height="19" viewBox="0 0 23 19" fill="none" xmlns="http://www.w3.org/2000/svg">
<path d="M17.625 5.36675V1.53263H15.875V4.02962L11.5 0.688477L1 8.7079H4.0625V18.4156H18.9375V13.5618V8.7079H22L17.625 5.36675Z" fill="white" stroke="#616161" stroke-width="0.8" stroke-linecap="round" stroke-linejoin="round"/>
<path d="M11.4763 14.487C13.135 14.487 14.4796 13.2044 14.4796 11.6222C14.4796 10.04 13.135 8.75732 11.4763 8.75732C9.81755 8.75732 8.4729 10.04 8.4729 11.6222C8.4729 13.2044 9.81755 14.487 11.4763 14.487Z" fill="#B9D1FF" stroke="#616161" stroke-width="0.8" stroke-miterlimit="10"/>
<path d="M6.59582 12.3392C7.01064 12.3392 7.34692 12.0184 7.34692 11.6227C7.34692 11.227 7.01064 10.9062 6.59582 10.9062C6.181 10.9062 5.84473 11.227 5.84473 11.6227C5.84473 12.0184 6.181 12.3392 6.59582 12.3392Z" fill="#4D4D4D"/>
<path d="M16.3566 12.3392C16.7714 12.3392 17.1077 12.0184 17.1077 11.6227C17.1077 11.227 16.7714 10.9062 16.3566 10.9062C15.9417 10.9062 15.6055 11.227 15.6055 11.6227C15.6055 12.0184 15.9417 12.3392 16.3566 12.3392Z" fill="#4D4D4D"/>
<path d="M10.3502 12.6975C10.765 12.6975 11.1013 12.3768 11.1013 11.9811C11.1013 11.5854 10.765 11.2646 10.3502 11.2646C9.9354 11.2646 9.59912 11.5854 9.59912 11.9811C9.59912 12.3768 9.9354 12.6975 10.3502 12.6975Z" fill="#4D4D4D"/>
<path d="M12.6024 13.0554C13.0172 13.0554 13.3535 12.7347 13.3535 12.339C13.3535 11.9433 13.0172 11.6226 12.6024 11.6226C12.1876 11.6226 11.8513 11.9433 11.8513 12.339C11.8513 12.7347 12.1876 13.0554 12.6024 13.0554Z" fill="#4D4D4D"/>
<path d="M11.6637 10.9068C11.9749 10.9068 12.2273 10.6661 12.2273 10.3692C12.2273 10.0722 11.9749 9.83154 11.6637 9.83154C11.3524 9.83154 11.1001 10.0722 11.1001 10.3692C11.1001 10.6661 11.3524 10.9068 11.6637 10.9068Z" fill="#4D4D4D"/>
<path d="M6.59546 11.6226H8.47269" stroke="#616161" stroke-width="0.8" stroke-linejoin="round"/>
<path d="M14.4795 11.6226H16.3567" stroke="#616161" stroke-width="0.8" stroke-linejoin="round"/>
<path d="M11.4762 16.9945C11.891 16.9945 12.2273 16.6737 12.2273 16.278C12.2273 15.8823 11.891 15.5615 11.4762 15.5615C11.0614 15.5615 10.7251 15.8823 10.7251 16.278C10.7251 16.6737 11.0614 16.9945 11.4762 16.9945Z" fill="#4D4D4D"/>
<path d="M11.4762 7.68341C11.891 7.68341 12.2273 7.36264 12.2273 6.96695C12.2273 6.57126 11.891 6.25049 11.4762 6.25049C11.0614 6.25049 10.7251 6.57126 10.7251 6.96695C10.7251 7.36264 11.0614 7.68341 11.4762 7.68341Z" fill="#4D4D4D"/>
<path d="M11.4758 16.278V14.4873" stroke="#616161" stroke-width="0.8" stroke-linejoin="round"/>
<path d="M11.4758 8.75747V6.9668" stroke="#616161" stroke-width="0.8" stroke-linejoin="round"/>
<path d="M7.60889 14.5812C7.97393 14.3933 8.11011 13.9587 7.91306 13.6105C7.71602 13.2623 7.26036 13.1324 6.89533 13.3203C6.53029 13.5083 6.39411 13.9429 6.59116 14.2911C6.7882 14.6393 7.24386 14.7692 7.60889 14.5812Z" fill="#4D4D4D"/>
<path d="M15.8347 9.99915C16.2428 9.92826 16.5134 9.55522 16.4391 9.16594C16.3648 8.77665 15.9737 8.51854 15.5656 8.58942C15.1575 8.66031 14.8869 9.03335 14.9612 9.42263C15.0355 9.81192 15.4266 10.07 15.8347 9.99915Z" fill="#4D4D4D"/>
<path d="M7.24902 13.9505L8.8745 13.0552" stroke="#616161" stroke-width="0.8" stroke-linejoin="round"/>
<path d="M14.0776 10.1902L15.7031 9.29492" stroke="#616161" stroke-width="0.8" stroke-linejoin="round"/>
<path d="M14.2761 16.2848C14.6412 16.0969 14.7773 15.6623 14.5803 15.3141C14.3833 14.9659 13.9276 14.836 13.5626 15.0239C13.1975 15.2119 13.0613 15.6465 13.2584 15.9947C13.4554 16.3429 13.9111 16.4728 14.2761 16.2848Z" fill="#4D4D4D"/>
<path d="M9.16699 8.29458C9.5751 8.2237 9.8457 7.85065 9.77139 7.46136C9.69707 7.07206 9.30599 6.81394 8.89788 6.88483C8.48977 6.95572 8.21918 7.32877 8.29349 7.71806C8.3678 8.10735 8.75889 8.36547 9.16699 8.29458Z" fill="#4D4D4D"/>
<path d="M13.9174 15.6541L12.9788 14.1035" stroke="#616161" stroke-width="0.8" stroke-linejoin="round"/>
<path d="M9.97402 9.14185L9.0354 7.59033" stroke="#616161" stroke-width="0.8" stroke-linejoin="round"/>
<path d="M9.6896 16.0035C9.89001 15.657 9.75805 15.2212 9.39485 15.03C9.03166 14.8389 8.57476 14.9647 8.37435 15.3112C8.17394 15.6576 8.3059 16.0935 8.6691 16.2846C9.03229 16.4758 9.48919 16.3499 9.6896 16.0035Z" fill="#4D4D4D"/>
<path d="M13.9894 8.30062C14.402 8.2596 14.7016 7.90731 14.6586 7.51376C14.6156 7.12021 14.2463 6.83442 13.8337 6.87544C13.4211 6.91646 13.1215 7.26874 13.1645 7.6623C13.2075 8.05585 13.5769 8.34164 13.9894 8.30062Z" fill="#4D4D4D"/>
<path d="M9.0354 15.6541L9.97402 14.1035" stroke="#616161" stroke-width="0.8" stroke-linejoin="round"/>
<path d="M12.9788 9.14185L13.9174 7.59033" stroke="#616161" stroke-width="0.8" stroke-linejoin="round"/>
<path d="M16.3573 14.2984C16.5577 13.9519 16.4258 13.5161 16.0626 13.3249C15.6994 13.1338 15.2425 13.2596 15.0421 13.6061C14.8417 13.9525 14.9736 14.3884 15.3368 14.5795C15.7 14.7707 16.1569 14.6448 16.3573 14.2984Z" fill="#4D4D4D"/>
<path d="M7.32074 10.0057C7.73332 9.96471 8.03293 9.61241 7.98993 9.21885C7.94693 8.82529 7.57761 8.5395 7.16502 8.58052C6.75244 8.62153 6.45283 8.97383 6.49583 9.36739C6.53883 9.76095 6.90815 10.0467 7.32074 10.0057Z" fill="#4D4D4D"/>
<path d="M15.7031 13.9505L14.0776 13.0552" stroke="#616161" stroke-width="0.8" stroke-linejoin="round"/>
<path d="M8.8745 10.1902L7.24902 9.29492" stroke="#616161" stroke-width="0.8" stroke-linejoin="round"/>
</svg>
