<svg width="16" height="17" viewBox="0 0 16 17" fill="none" xmlns="http://www.w3.org/2000/svg">
<path d="M15.1916 1.71213C15.1916 0.465096 13.3344 0.465096 13.3344 1.71213C13.3344 2.08769 13.3059 2.38621 13.1966 2.80991C13.0541 3.35399 12.8024 3.9125 12.4129 4.47102C9.95715 2.93028 5.79615 2.90139 3.2834 4.40361C2.84165 3.85473 2.55665 3.31065 2.3999 2.77139C2.2764 2.36695 2.2479 2.07806 2.2479 1.71213C2.2479 1.15361 1.8299 0.778059 1.32165 0.778059C0.813396 0.778059 0.400146 1.15361 0.400146 1.71213C0.400146 2.1888 0.447646 2.62695 0.618646 3.21436C0.851396 4.02324 1.2694 4.83213 1.9059 5.62176C1.42615 6.29102 1.14115 7.08547 1.14115 7.88473C1.14115 10.0273 3.05065 11.5584 5.85315 12.1844C6.3804 12.2999 6.6844 12.5599 6.6844 13.1281V14.8758C6.6844 14.9866 6.6844 14.9866 6.6844 15.1069C6.6844 15.8292 7.17365 16.3251 7.79115 16.3251C8.40865 16.3251 8.8979 15.8292 8.8979 15.1069C8.8979 14.9432 8.8979 14.9432 8.8979 14.8036V13.1232C8.8979 12.5407 9.17815 12.3047 9.6959 12.1988C12.5126 11.6114 14.4411 10.0707 14.4411 7.87991C14.4411 7.08065 14.2131 6.36324 13.7761 5.7325C14.3794 4.89473 14.7689 4.04732 14.9874 3.21917C15.1489 2.62695 15.1916 2.1888 15.1916 1.71213ZM9.54865 11.4718C8.7269 11.6403 8.16165 12.1121 8.16165 13.1281V14.8084C8.16165 14.9481 8.16165 14.9481 8.16165 15.1118C8.16165 15.4199 8.0049 15.5788 7.79115 15.5788C7.5774 15.5788 7.42065 15.4199 7.42065 15.1118C7.42065 14.9914 7.42065 14.9914 7.42065 14.8807V13.1329C7.42065 12.1314 6.83165 11.6403 6.00515 11.4573C3.8249 10.971 2.3049 9.91176 1.9534 8.52028C2.99365 8.86213 4.58015 8.73213 7.83865 8.26028C11.3251 7.75473 12.8451 7.66806 13.6859 8.09658C13.5671 9.73843 11.9616 10.971 9.54865 11.4718ZM14.2749 3.03621C14.0611 3.8451 13.6621 4.67806 13.0209 5.51584C12.9164 5.65547 12.9164 5.84806 13.0256 5.98287C13.3344 6.36324 13.5339 6.79176 13.6289 7.2588C12.5886 6.91213 11.0021 7.04213 7.73415 7.51398C4.24765 8.01954 2.72765 8.10621 1.88215 7.67769C1.9344 7.0325 2.21465 6.38732 2.6564 5.85769C2.77515 5.71806 2.77515 5.50621 2.65165 5.36658C1.97715 4.58658 1.5544 3.79213 1.3264 3.00732C1.17915 2.49695 1.14115 2.12621 1.14115 1.71213C1.14115 1.58695 1.20765 1.52436 1.3264 1.52436C1.44515 1.52436 1.51165 1.58695 1.51165 1.71213C1.51165 2.14065 1.54965 2.50176 1.69215 2.98806C1.9059 3.70547 2.3049 4.4325 2.93665 5.14028C3.06015 5.27991 3.2644 5.30398 3.4164 5.20287C5.73915 3.62843 10.0474 3.66695 12.2846 5.28954C12.4461 5.4051 12.6694 5.37139 12.7881 5.21732C13.3581 4.48065 13.7144 3.73917 13.9044 3.00732C14.0326 2.51139 14.0659 2.15028 14.0659 1.72176C14.0659 1.47621 14.4459 1.47621 14.4459 1.72176C14.4506 2.13102 14.4126 2.50658 14.2749 3.03621Z" fill="#393939"/>
<path d="M9.54862 11.4717C8.72687 11.6402 8.16162 12.112 8.16162 13.1279V14.8083C8.16162 14.9479 8.16162 14.9479 8.16162 15.1117C8.16162 15.4198 8.00487 15.5787 7.79112 15.5787C7.57737 15.5787 7.42062 15.4198 7.42062 15.1117C7.42062 14.9913 7.42062 14.9913 7.42062 14.8805V13.1328C7.42062 12.1313 6.83162 11.6402 6.00512 11.4572C3.82487 10.9709 2.30487 9.91165 1.95337 8.52017C2.99362 8.86202 4.58012 8.73202 7.83862 8.26017C11.3251 7.75461 12.8451 7.66795 13.6859 8.09647C13.5671 9.73832 11.9616 10.9709 9.54862 11.4717Z" fill="#FFE88B"/>
</svg>
