<svg width="18" height="18" viewBox="0 0 18 18" fill="none" xmlns="http://www.w3.org/2000/svg">
<path d="M8.43567 4.20881C8.43567 4.20881 6.81464 4.92766 8.07383 5.60309C8.07383 5.60309 10.9782 5.82019 11.2339 7.55218C11.2339 7.55218 11.422 8.02498 11.1326 10.6591C11.1326 10.6591 10.7466 14.5428 9.9795 15.527L10.1146 16.6077L10.7032 17.1095H11.6102L12.6233 15.527L13.0093 11.1657L13.7812 8.88856L14.1913 6.28334L13.3952 4.65267L11.8369 3.75049H9.75275L8.43567 4.20881Z" fill="#B9D1FF"/>
<path d="M10.7756 17.694C9.9361 17.694 9.62251 16.5795 9.25585 15.2914C8.90366 14.0515 8.46463 12.5125 7.62035 12.4836C6.76159 12.5125 6.32256 14.0515 5.97037 15.2914C5.60371 16.5795 5.2853 17.694 4.45066 17.694C4.42172 17.694 4.39277 17.694 4.359 17.6892C2.12044 17.4528 2.00465 14.2541 1.92264 11.9191C1.91781 11.7358 1.90816 11.5621 1.90334 11.3932C1.86957 10.6261 1.5994 10.0038 1.31475 9.34764C0.996336 8.63362 0.673096 7.89065 0.673096 6.94023C0.673096 4.79334 2.41956 3.04688 4.56645 3.04688C5.31425 3.04688 5.84494 3.29775 6.30809 3.51485C6.73264 3.71265 7.0993 3.88633 7.6107 3.88633C8.12209 3.88633 8.48875 3.71265 8.91331 3.51485C9.38128 3.29292 9.90715 3.04688 10.6549 3.04688C12.8018 3.04688 14.5483 4.79334 14.5483 6.94023C14.5483 7.89065 14.2251 8.63362 13.9115 9.35247C13.6268 10.0086 13.3567 10.6261 13.3229 11.398C13.3181 11.5669 13.3084 11.7406 13.3036 11.9239C13.2167 14.259 13.101 17.4528 10.872 17.694C10.8334 17.694 10.8045 17.694 10.7756 17.694ZM7.6107 11.7116H7.63964C9.04839 11.7551 9.55014 13.5208 9.99399 15.0791C10.1773 15.7208 10.5199 16.9221 10.7707 16.9221H10.7804C12.3483 16.758 12.4497 13.9454 12.522 11.895C12.5268 11.7116 12.5365 11.5331 12.5413 11.3643C12.5799 10.4525 12.8935 9.7336 13.1926 9.0437C13.4869 8.36828 13.7667 7.72662 13.7667 6.94023C13.7667 5.21789 12.3676 3.81879 10.6453 3.81879C10.0712 3.81879 9.6611 4.01177 9.23172 4.2144C8.76375 4.43633 8.28612 4.66308 7.60105 4.66308C6.91597 4.66308 6.43835 4.43633 5.97037 4.2144C5.541 4.01177 5.13092 3.81879 4.5568 3.81879C2.83446 3.81879 1.43536 5.21789 1.43536 6.94023C1.43536 7.72662 1.71518 8.36828 2.00948 9.0437C2.31342 9.7336 2.62219 10.4525 2.66078 11.3643C2.67043 11.5331 2.67525 11.7116 2.68008 11.895C2.75245 13.9454 2.85859 16.758 4.42172 16.9221C4.68224 16.9221 5.02478 15.7256 5.20811 15.0791C5.65196 13.5208 6.1537 11.7551 7.56245 11.7116C7.58175 11.7116 7.60587 11.7116 7.6107 11.7116Z" fill="#393939"/>
<path d="M3.31694 9.95553C3.16256 9.95553 3.013 9.85904 2.95511 9.70466C2.82967 9.37177 2.69458 9.06301 2.57397 8.79283C2.5402 8.71082 2.50643 8.63363 2.47266 8.56126C2.39064 8.36346 2.47748 8.13671 2.67529 8.05469C2.87309 7.97267 3.09984 8.05951 3.18186 8.25732L3.27835 8.48407C3.40378 8.76871 3.53887 9.08713 3.67395 9.43449C3.75114 9.63229 3.64983 9.85905 3.4472 9.93141C3.40861 9.95071 3.36519 9.95553 3.31694 9.95553Z" fill="#393939"/>
<path d="M2.41935 7.40279C2.21672 7.40279 2.04304 7.24358 2.03339 7.03612C2.03339 6.99753 2.02856 6.95411 2.02856 6.91069C2.02856 5.66597 3.04171 4.65283 4.28642 4.65283C4.4987 4.65283 4.67238 4.82651 4.67238 5.03879C4.67238 5.25107 4.4987 5.42475 4.28642 5.42475C3.46626 5.42475 2.80048 6.09053 2.80048 6.91069C2.80048 6.93964 2.80048 6.96858 2.80048 6.99753C2.81013 7.20981 2.6461 7.39314 2.43382 7.40279C2.43382 7.40279 2.42417 7.40279 2.41935 7.40279Z" fill="#393939"/>
<path d="M13.0044 2.73287C12.7921 2.73287 12.6184 2.55918 12.6184 2.34691V0.692111C12.6184 0.479834 12.7921 0.306152 13.0044 0.306152C13.2166 0.306152 13.3903 0.479834 13.3903 0.692111V2.34691C13.3903 2.55918 13.2166 2.73287 13.0044 2.73287Z" fill="#393939"/>
<path d="M16.9413 4.98627H15.1804C14.9681 4.98627 14.7944 4.81259 14.7944 4.60031C14.7944 4.38804 14.9681 4.21436 15.1804 4.21436H16.9413C17.1536 4.21436 17.3273 4.38804 17.3273 4.60031C17.3273 4.81259 17.1584 4.98627 16.9413 4.98627Z" fill="#393939"/>
<path d="M14.7317 3.42311L14.1865 2.87795L15.547 1.51744C15.6966 1.36788 15.9426 1.36788 16.0922 1.51744C16.2418 1.667 16.2418 1.91305 16.0922 2.06261L14.7317 3.42311Z" fill="#393939"/>
</svg>
