<svg width="20" height="18" viewBox="0 0 20 18" fill="none" xmlns="http://www.w3.org/2000/svg">
<path d="M18.7418 6.88623H12.9138C12.716 6.88623 12.552 7.04544 12.552 7.24807C12.552 7.25772 12.552 7.26254 12.5568 7.26736V7.27219C12.5761 7.65815 12.6099 8.03446 12.6485 8.39629C12.663 8.5362 12.6823 8.67611 12.7016 8.81602C12.7305 9.06207 12.7643 9.31294 12.8077 9.55417L12.8318 9.68925C12.8656 9.87741 12.909 10.1379 12.9573 10.3647L12.9669 10.3985C12.9766 10.4322 12.9958 10.466 13.0151 10.4949C13.02 10.5094 13.0248 10.5287 13.0248 10.5432L13.0296 10.5577C13.2419 11.3537 13.1261 12.1835 12.716 12.8975C12.3011 13.6116 11.6353 14.1181 10.8393 14.3304C10.5788 14.3979 10.3134 14.4317 10.0481 14.4317C8.65382 14.4317 7.4284 13.4861 7.07139 12.1401C6.9942 11.841 6.96043 11.5274 6.97007 11.2138V11.098C6.98455 10.8134 7.00385 10.5528 7.03279 10.273V10.2055C7.05209 10.0125 7.07621 9.81951 7.09551 9.65548C7.11481 9.51075 7.13411 9.37084 7.1534 9.23093L7.20647 8.85944C7.20647 8.85462 7.20647 8.85462 7.2113 8.84979C7.21612 8.84497 7.21612 8.83532 7.22095 8.82567C7.25472 8.61822 7.29331 8.40112 7.33673 8.17919C7.39463 7.8656 7.4477 7.5906 7.50559 7.33491C7.51042 7.30596 7.51524 7.27701 7.51524 7.24807C7.51042 7.05509 7.35121 6.89588 7.1534 6.89588C7.14858 6.89588 7.14858 6.89588 7.14376 6.89588H1.26271C1.06009 6.88623 0.900879 7.04544 0.900879 7.24324V10.2875C0.900879 10.4853 1.06009 10.6493 1.26271 10.6493H6.25605C6.24158 10.7941 6.23193 10.9484 6.23193 11.1028V11.2283C6.23193 11.2862 6.2271 11.3441 6.2271 11.4068C6.23193 13.4958 7.93497 15.194 10.024 15.194H10.0288C10.3617 15.194 10.6946 15.1506 11.013 15.0637C12.9428 14.5427 14.1393 12.6081 13.7485 10.6493H18.7418C18.9396 10.6493 19.1036 10.4901 19.1036 10.2875V7.24324C19.0988 7.04544 18.9396 6.88623 18.7418 6.88623ZM18.38 7.60508V8.40594H13.3722C13.3673 8.37217 13.3673 8.3384 13.3625 8.30463C13.3384 8.09235 13.3191 7.87042 13.2998 7.60508H18.38ZM18.38 9.12479V9.92565H13.6037C13.5893 9.84364 13.5748 9.76644 13.5603 9.68925C13.5507 9.63136 13.541 9.57829 13.5314 9.53487L13.5121 9.41908C13.5024 9.34672 13.4879 9.27435 13.4783 9.20198L13.4686 9.12479H18.38V9.12479ZM6.37184 9.57347C6.36701 9.61689 6.36219 9.66031 6.35254 9.70373C6.34289 9.77609 6.33324 9.83881 6.33324 9.90153L6.32842 9.9353H1.61973V9.13444H6.42973L6.37184 9.54452V9.57347ZM6.69025 7.60508C6.67578 7.68709 6.66131 7.76429 6.64201 7.85595L6.61306 8.01516C6.58894 8.13095 6.56964 8.25156 6.55034 8.37217L6.54552 8.40594H1.61973V7.60508H6.69025Z" fill="#393939"/>
<path d="M8.88065 13.3608C9.22319 13.5634 9.61879 13.6695 10.0192 13.6744H10.024C10.2074 13.6744 10.3907 13.6502 10.5692 13.602C11.1626 13.4476 11.6644 13.0761 11.978 12.5454C12.2916 12.0147 12.3784 11.3972 12.224 10.799C12.142 10.4854 12.0648 10.056 12.0069 9.6797C11.9442 9.31304 11.8911 8.91743 11.8429 8.47841C11.7512 7.68237 11.7078 6.87185 11.7223 6.06617C11.7271 5.27978 11.8091 4.48856 11.9731 3.72147C12.1275 2.9785 12.4218 2.27895 12.8415 1.64694C13.0538 1.37195 13.0442 0.981164 12.8222 0.715818C12.6968 0.566259 12.5135 0.469769 12.3205 0.455296C12.1179 0.440823 11.9297 0.498716 11.7802 0.628977C11.0034 1.26098 10.3714 2.02808 9.89861 2.90613C9.44029 3.75042 9.06398 4.64295 8.77933 5.56442C8.49469 6.46177 8.26794 7.38807 8.10391 8.3192C8.02189 8.75823 7.94952 9.21655 7.88198 9.72312V9.75207C7.82409 10.2152 7.77102 10.6494 7.74207 11.1898V11.2959C7.7083 12.1402 8.1425 12.9362 8.88065 13.3608ZM12.2337 1.17414L12.2433 1.17897H12.253C12.2626 1.17897 12.2723 1.18379 12.2771 1.19344L12.2867 1.20791C12.2916 1.21274 12.3012 1.21756 12.2771 1.24651C11.8043 1.95571 11.4714 2.7421 11.3025 3.57673C11.1289 4.39207 11.0372 5.23153 11.0324 6.07099C11.0179 6.90563 11.0613 7.74991 11.1578 8.5749C11.2012 8.96568 11.2591 9.41918 11.3267 9.81479C11.3894 10.2104 11.4714 10.6591 11.5582 11.0064C11.7609 11.8411 11.2736 12.6757 10.4486 12.9073C10.3039 12.9459 10.1591 12.9603 10.0144 12.9555C9.14117 12.9314 8.45609 12.1981 8.48022 11.3248V11.2139C8.50434 10.7121 8.55258 10.2876 8.6153 9.80514C8.68767 9.28409 8.75521 8.85472 8.82758 8.44463C8.98196 7.54728 9.19906 6.65475 9.47406 5.78635C9.7394 4.91312 10.0964 4.06401 10.5354 3.26314C10.96 2.46228 11.5293 1.76755 12.2288 1.18862C12.2288 1.17414 12.2337 1.17414 12.2337 1.17414Z" fill="#393939"/>
<path d="M15.133 14.8081C14.8001 14.8081 14.5251 15.0783 14.5251 15.416C14.5251 15.7537 14.7953 16.0239 15.133 16.0239C15.4659 16.0239 15.7409 15.7537 15.7409 15.416C15.7409 15.0783 15.4659 14.8081 15.133 14.8081Z" fill="#393939"/>
<path d="M12.0937 16.3276C11.7608 16.3276 11.4858 16.5978 11.4858 16.9355C11.4858 17.2684 11.756 17.5434 12.0937 17.5434C12.4266 17.5434 12.7016 17.2732 12.7016 16.9355C12.6968 16.6026 12.4266 16.3276 12.0937 16.3276Z" fill="#393939"/>
<path d="M15.5093 12.1499C15.1764 12.1499 14.9014 12.4201 14.9014 12.7578C14.9014 13.0907 15.1715 13.3657 15.5093 13.3657C15.8421 13.3657 16.1171 13.0955 16.1171 12.7578C16.1171 12.4249 15.8421 12.1499 15.5093 12.1499Z" fill="#393939"/>
<path d="M4.87131 16.0239C5.20704 16.0239 5.4792 15.7517 5.4792 15.416C5.4792 15.0803 5.20704 14.8081 4.87131 14.8081C4.53559 14.8081 4.26343 15.0803 4.26343 15.416C4.26343 15.7517 4.53559 16.0239 4.87131 16.0239Z" fill="#393939"/>
<path d="M7.91086 16.3276C7.57797 16.3276 7.30298 16.5978 7.30298 16.9355C7.30298 17.2684 7.57315 17.5434 7.91086 17.5434C8.24375 17.5434 8.51875 17.2732 8.51875 16.9355C8.51392 16.6026 8.24375 16.3276 7.91086 16.3276Z" fill="#393939"/>
<path d="M5.09809 12.7578C5.09809 12.4249 4.82792 12.1499 4.49021 12.1499C4.15732 12.1499 3.88232 12.4201 3.88232 12.7578C3.88232 13.0907 4.1525 13.3657 4.49021 13.3657C4.8231 13.3657 5.09809 13.0907 5.09809 12.7578Z" fill="#393939"/>
<path d="M12.2336 1.17432L12.2432 1.17914H12.2529C12.2625 1.17914 12.2721 1.18397 12.277 1.19361L12.2866 1.20809C12.2914 1.21291 12.3011 1.21774 12.277 1.24668C11.8042 1.95588 11.4713 2.74227 11.3024 3.57691C11.1287 4.39224 11.0371 5.2317 11.0323 6.07116C11.0178 6.9058 11.0612 7.75008 11.1577 8.57507C11.2011 8.96585 11.259 9.41935 11.3266 9.81496C11.3893 10.2106 11.4713 10.6592 11.5581 11.0066C11.7608 11.8412 11.2735 12.6759 10.4485 12.9075C10.3038 12.946 10.159 12.9605 10.0143 12.9557C9.14106 12.9316 8.45599 12.1983 8.48011 11.325V11.2141C8.50423 10.7123 8.55248 10.2878 8.6152 9.80531C8.68756 9.28427 8.75511 8.85489 8.82747 8.44481C8.98186 7.54745 9.19896 6.65493 9.47395 5.78652C9.7393 4.91329 10.0963 4.06418 10.5353 3.26332C10.9599 2.46245 11.5292 1.76773 12.2287 1.18879C12.2287 1.17432 12.2336 1.17432 12.2336 1.17432Z" fill="#FFE88B"/>
</svg>
