<svg width="20" height="18" viewBox="0 0 20 18" fill="none" xmlns="http://www.w3.org/2000/svg">
<path d="M19.1857 5.79624C19.1616 5.01468 18.3028 4.38267 17.6081 4.38267H14.7327C14.5928 3.27786 13.599 2.48183 12.4797 2.59761C11.5293 2.6941 10.767 3.4419 10.6464 4.38267H9.4065C8.2631 4.38267 7.3175 5.13046 7.139 6.17255H4.3408C3.52546 6.17255 2.83074 6.93 2.65223 7.62954L1.61014 11.0501C0.814105 13.3417 0.413674 14.5093 0.408849 14.5285C0.35578 14.8518 0.452269 15.1799 0.664546 15.4211C0.867175 15.6816 1.17594 15.836 1.50883 15.8456H2.10707C2.30487 15.8456 2.46408 15.6864 2.46408 15.4886C2.46408 15.2908 2.30487 15.1316 2.10707 15.1316H1.51848C1.29173 15.1027 1.11805 14.9049 1.11322 14.6781L2.2132 11.5229H7.11005V13.829C6.23682 13.004 4.85702 12.9895 3.96449 13.8194C3.51581 14.2391 3.25529 14.8084 3.23599 15.4211C3.2167 16.0338 3.4338 16.6224 3.85353 17.071C4.27326 17.5197 4.84255 17.7802 5.45525 17.7995C5.4842 17.7995 5.50832 17.7995 5.53727 17.7995C6.12103 17.7995 6.67585 17.5824 7.10523 17.182C7.48154 16.8298 7.73241 16.3619 7.8096 15.8505H11.949C12.1468 15.8505 12.306 15.6912 12.306 15.4934C12.306 15.2956 12.1468 15.1364 11.949 15.1364H7.81925V6.52474C7.81925 5.71423 8.4995 5.10152 9.40168 5.10152H17.6081C17.9893 5.10152 18.4476 5.48748 18.4669 5.82519L18.737 12.1453H15.963C15.7652 12.1453 15.606 12.3045 15.606 12.5023C15.606 12.7001 15.7652 12.8593 15.963 12.8593H18.7708L18.8721 15.1268H17.3476C17.2559 14.5382 16.9472 14.022 16.4695 13.6601C15.9823 13.2887 15.3792 13.1246 14.7713 13.2115C13.517 13.3803 12.6293 14.5382 12.7981 15.7974C12.967 17.0518 14.1248 17.9346 15.384 17.7706C16.3875 17.6355 17.1884 16.8491 17.3476 15.8505H19.2533C19.3498 15.8505 19.4462 15.8119 19.509 15.7395C19.5765 15.6671 19.6151 15.5706 19.6103 15.4741L19.1857 5.79624ZM11.3749 4.38267C11.5148 3.76996 12.0551 3.32611 12.6871 3.30681C13.3192 3.32128 13.8643 3.76996 14.0042 4.38267H11.3749ZM6.12586 7.66814H4.18642C3.98861 7.66814 3.8294 7.82735 3.8294 8.02515C3.8294 8.22295 3.98861 8.38216 4.18642 8.38216H5.76885V10.7992H2.43513L3.34213 7.83217V7.81287C3.44827 7.37867 3.8873 6.8914 4.33598 6.8914H7.1004V10.7992H6.48287V8.02515C6.48287 7.82735 6.32366 7.66814 6.12586 7.66814ZM7.11005 15.4597V15.4983C7.10523 16.3667 6.39603 17.071 5.52762 17.071C4.65439 17.071 3.94519 16.3619 3.94519 15.4886C3.94519 14.6154 4.65439 13.9062 5.52762 13.9062C6.38638 13.9062 7.09558 14.6057 7.11005 15.4597ZM16.6529 15.4886C16.6529 16.3619 15.9437 17.071 15.0704 17.071C14.1972 17.071 13.488 16.3619 13.488 15.4886C13.488 14.6154 14.1972 13.9062 15.0704 13.9062C15.9437 13.9062 16.6529 14.6154 16.6529 15.4886Z" fill="#393939"/>
<path d="M12.6872 1.81645C12.885 1.81645 13.0442 1.65725 13.0442 1.45944V0.56209C13.0442 0.364286 12.885 0.205078 12.6872 0.205078C12.4894 0.205078 12.3302 0.364286 12.3302 0.56209V1.45944C12.3254 1.65725 12.4894 1.81645 12.6872 1.81645Z" fill="#393939"/>
<path d="M14.7618 2.47727C14.8438 2.47727 14.9307 2.44833 14.9982 2.39043L15.6495 1.78255C15.7122 1.71018 15.746 1.61852 15.7412 1.52203C15.7364 1.42554 15.6929 1.3387 15.6206 1.27598C15.4903 1.16019 15.2973 1.15537 15.1574 1.26633L14.5109 1.86456C14.371 2.00447 14.3662 2.23122 14.5061 2.37113C14.5737 2.4435 14.6701 2.47727 14.7618 2.47727Z" fill="#393939"/>
<path d="M10.3763 2.38566C10.4487 2.46285 10.5452 2.50144 10.6417 2.50144C10.7285 2.50144 10.8105 2.4725 10.8781 2.40978C10.9504 2.34706 10.9938 2.26022 10.9987 2.16373C11.0035 2.06724 10.9745 1.97558 10.907 1.90321C10.8925 1.88873 10.8781 1.87426 10.8636 1.85979L10.2219 1.26638C10.1496 1.19883 10.0579 1.16506 9.96622 1.16989C9.86974 1.17471 9.78289 1.21331 9.71535 1.28567C9.64781 1.35804 9.61404 1.44971 9.61886 1.54137C9.62369 1.63304 9.66228 1.7247 9.73465 1.79224L10.3763 2.38566Z" fill="#393939"/>
<path d="M13.189 12.9464H12.1904C11.7851 12.9464 11.4571 12.6184 11.4571 12.2131V10.6307H9.8698C9.46454 10.6307 9.13647 10.3026 9.13647 9.89735V8.89868C9.13647 8.49342 9.46454 8.16536 9.8698 8.16536H11.4571V6.58293C11.4571 6.17767 11.7851 5.84961 12.1904 5.84961H13.189C13.5943 5.84961 13.9224 6.17767 13.9224 6.58293V8.16536H15.5048C15.91 8.16536 16.2381 8.49342 16.2381 8.89868V9.89735C16.2381 10.3026 15.91 10.6307 15.5048 10.6307H13.9224V12.2131C13.9224 12.6184 13.5943 12.9464 13.189 12.9464ZM9.8698 8.88421L9.86015 9.89252L11.8189 9.90217C12.0167 9.90217 12.1807 10.0662 12.1807 10.264V12.2083L13.189 12.2179L13.1987 10.264C13.1987 10.0662 13.3627 9.90217 13.5605 9.90217H15.5048L15.5144 8.89386L15.5048 8.88421H13.5605C13.3627 8.88421 13.1987 8.72018 13.1987 8.52237V6.57811L12.1904 6.56846L12.1807 8.5272C12.1807 8.725 12.0167 8.88903 11.8189 8.88903H9.8698V8.88421Z" fill="#393939"/>
<path d="M9.86976 8.8846L9.86011 9.89291L11.8188 9.90256C12.0167 9.90256 12.1807 10.0666 12.1807 10.2644V12.2087L13.189 12.2183L13.1986 10.2644C13.1986 10.0666 13.3627 9.90256 13.5605 9.90256H15.5048L15.5144 8.89425L15.5048 8.8846H13.5605C13.3627 8.8846 13.1986 8.72057 13.1986 8.52276V6.5785L12.1903 6.56885L12.1807 8.52759C12.1807 8.72539 12.0167 8.88942 11.8188 8.88942H9.86976V8.8846Z" fill="#FFB1A2"/>
<path d="M11.375 4.38299C11.5149 3.77028 12.0553 3.32643 12.6873 3.30713C13.3193 3.3216 13.8644 3.77028 14.0043 4.38299H11.375Z" fill="#FFB1A2"/>
</svg>
