<svg width="18" height="18" viewBox="0 0 18 18" fill="none" xmlns="http://www.w3.org/2000/svg">
<path d="M17.0507 6.69887L15.6488 5.6406C15.611 5.6028 15.5921 5.58391 15.5402 5.56973L9.21967 0.864198C9.09222 0.774434 8.90813 0.774434 8.78068 0.864198L2.46012 5.56973C2.42236 5.58863 2.38932 5.60753 2.35156 5.6406L0.949611 6.69887C0.784399 6.82643 0.751357 7.04376 0.878806 7.20911C1.00154 7.37447 1.22339 7.41226 1.38388 7.2847L2.25715 6.62801V15.3777C2.25715 16.3792 3.07849 17.2013 4.07921 17.2013H13.9164C14.9171 17.2013 15.7385 16.3792 15.7385 15.3777V6.62801L16.6117 7.2847C16.6825 7.3414 16.7581 7.35557 16.8289 7.35557C16.9374 7.35557 17.046 7.29888 17.1215 7.20911C17.2537 7.04848 17.2159 6.82643 17.0507 6.69887ZM15.0115 15.3777C15.0115 15.9777 14.5206 16.4737 13.9164 16.4737H4.07921C3.47972 16.4737 2.98408 15.9824 2.98408 15.3777V6.09887L8.99309 1.61538L15.0021 6.09887V15.3777H15.0115Z" fill="#393939"/>
<path d="M9.49342 13.5732H8.5163C8.1198 13.5732 7.79881 13.2519 7.79881 12.8551V11.3054H6.24581C5.8493 11.3054 5.52832 10.9842 5.52832 10.5873V9.60938C5.52832 9.21252 5.8493 8.89126 6.24581 8.89126H7.79881V7.34165C7.79881 6.9448 8.1198 6.62354 8.5163 6.62354H9.49342C9.88993 6.62354 10.2109 6.9448 10.2109 7.34165V8.89126H11.7592C12.1557 8.89126 12.4767 9.21252 12.4767 9.60938V10.5873C12.4767 10.9842 12.1557 11.3054 11.7592 11.3054H10.2109V12.8551C10.2109 13.2519 9.88993 13.5732 9.49342 13.5732ZM6.24109 9.5952L6.23165 10.5826L8.14812 10.5921C8.34165 10.5921 8.50214 10.7527 8.50214 10.9464V12.8503L9.4887 12.8598L9.49814 10.9464C9.49814 10.7527 9.65863 10.5921 9.85217 10.5921H11.7545L11.7639 9.60465L11.7545 9.5952H9.85217C9.65863 9.5952 9.49814 9.43457 9.49814 9.24087V7.33692L8.51158 7.32748L8.50214 9.2456C8.50214 9.4393 8.34165 9.59993 8.14812 9.59993H6.24109V9.5952Z" fill="#393939"/>
<path d="M6.24113 9.59537L6.23169 10.5828L8.14815 10.5922C8.34169 10.5922 8.50218 10.7529 8.50218 10.9466V12.8505L9.48873 12.8599L9.49817 10.9466C9.49817 10.7529 9.65867 10.5922 9.8522 10.5922H11.7545L11.7639 9.60481L11.7545 9.59537H9.8522C9.65867 9.59537 9.49817 9.43473 9.49817 9.24103V7.33709L8.51162 7.32764L8.50218 9.24576C8.50218 9.43946 8.34169 9.60009 8.14815 9.60009H6.24113V9.59537Z" fill="#FFB1A2"/>
</svg>
