<svg width="20" height="17" viewBox="0 0 20 17" fill="none" xmlns="http://www.w3.org/2000/svg">
<g clip-path="url(#clip0_3202_11717)">
<path d="M3.72246 7.83623L3.09546 7.96141V6.58438C3.09546 3.55586 6.09271 2.17882 8.88096 2.17882C9.08521 2.17882 9.29896 2.18364 9.51746 2.20771C9.70746 2.21734 9.89271 2.07771 9.91171 1.87549C9.91171 1.87549 13.3555 1.99104 14.657 4.74512C14.7425 4.92808 14.372 5.02438 14.4385 5.21216C14.5905 5.63104 14.6617 6.09327 14.6617 6.58438V7.98549L13.0515 7.75438C11.1705 7.48475 9.39396 6.58438 8.04971 5.21697C7.97371 5.13993 7.85971 5.10623 7.75996 5.11104C7.65071 5.12067 7.55571 5.18327 7.49396 5.27475C6.61521 6.61327 5.27571 7.52327 3.72246 7.83623Z" fill="#D6FFD0"/>
<path d="M15.3883 8.12932V6.58858C15.3883 6.0108 15.2981 5.46673 15.1223 4.9708C15.0558 4.77821 14.8468 4.68191 14.6616 4.74932C14.4716 4.81673 14.3766 5.02858 14.4431 5.21636C14.5951 5.63525 14.6663 6.09747 14.6663 6.58858V7.98969L13.0561 7.75858C11.1751 7.48895 9.39856 6.58858 8.05431 5.22117C7.97831 5.14413 7.86431 5.11043 7.76456 5.11525C7.65531 5.12488 7.56031 5.18747 7.49856 5.27895C6.61981 6.61747 5.28031 7.52265 3.72706 7.84043L3.10006 7.96562V6.58858C3.10006 3.56006 6.09731 2.18302 8.88556 2.18302C9.08981 2.18302 9.30356 2.18784 9.52206 2.21191C9.71206 2.22154 9.89731 2.08191 9.91631 1.87969C9.93531 1.67747 9.78806 1.49932 9.58856 1.48006C9.34631 1.45599 9.10881 1.45117 8.88081 1.45117C5.74581 1.45117 2.37331 3.05932 2.37331 6.58858V8.12932C1.54681 8.29784 0.924561 9.03932 0.924561 9.92525C0.924561 10.8882 1.66556 11.6827 2.59656 11.7549C3.28531 14.2538 5.49881 16.849 8.88081 16.849C12.2581 16.849 14.4668 14.2586 15.1603 11.7549C16.0961 11.6875 16.8371 10.893 16.8371 9.92525C16.8371 9.03932 16.2148 8.29784 15.3883 8.12932ZM1.64656 9.92525C1.64656 9.44858 1.95056 9.03932 2.36856 8.89006V10.0071C2.36856 10.3345 2.39231 10.6619 2.43506 10.9797C1.97906 10.8497 1.64656 10.4308 1.64656 9.92525ZM14.5238 11.3312C13.9776 13.6375 11.9778 16.1171 8.88081 16.1171C5.77906 16.1171 3.77931 13.6375 3.23781 11.336C3.14281 10.9075 3.09531 10.4597 3.09531 10.0071V8.71673L3.86481 8.56265C5.47031 8.23525 6.86681 7.34932 7.85006 6.03969C9.26556 7.34932 11.0611 8.21117 12.9563 8.48562L14.6711 8.73599V10.0071C14.6663 10.4597 14.6188 10.9075 14.5238 11.3312ZM15.3218 10.9845C15.3693 10.6619 15.3931 10.3345 15.3931 10.0071V8.89006C15.8158 9.03932 16.1151 9.44858 16.1151 9.92525C16.1151 10.4308 15.7778 10.8545 15.3218 10.9845Z" fill="#393939"/>
<path d="M6.81455 10.8738C6.8858 10.946 6.97605 10.9797 7.07105 10.9797C7.16605 10.9797 7.2563 10.946 7.32755 10.8738C7.47005 10.7293 7.47005 10.4982 7.32755 10.3538L6.86205 9.88192L7.32755 9.41007C7.47005 9.26563 7.47005 9.03452 7.32755 8.89007C7.18505 8.74563 6.95705 8.74563 6.81455 8.89007L6.34905 9.36192L5.88355 8.89007C5.74105 8.74563 5.51305 8.74563 5.37055 8.89007C5.22805 9.03452 5.22805 9.26563 5.37055 9.41007L5.83605 9.88192L5.37055 10.3538C5.22805 10.4982 5.22805 10.7293 5.37055 10.8738C5.4418 10.946 5.53205 10.9797 5.62705 10.9797C5.72205 10.9797 5.8123 10.946 5.88355 10.8738L6.34905 10.4019L6.81455 10.8738Z" fill="#393939"/>
<path d="M12.391 8.89007C12.2485 8.74563 12.0205 8.74563 11.878 8.89007L11.4125 9.36192L10.947 8.89007C10.8045 8.74563 10.5765 8.74563 10.434 8.89007C10.2915 9.03452 10.2915 9.26563 10.434 9.41007L10.8995 9.88192L10.434 10.3538C10.2915 10.4982 10.2915 10.7293 10.434 10.8738C10.5053 10.946 10.5955 10.9797 10.6905 10.9797C10.7808 10.9797 10.8758 10.946 10.947 10.8738L11.4125 10.4019L11.878 10.8738C11.9493 10.946 12.0395 10.9797 12.1345 10.9797C12.2295 10.9797 12.3198 10.946 12.391 10.8738C12.5335 10.7293 12.5335 10.4982 12.391 10.3538L11.9255 9.88192L12.391 9.41007C12.5335 9.26563 12.5335 9.03452 12.391 8.89007Z" fill="#393939"/>
<path d="M11.3176 12.9008C10.7903 12.3182 9.86409 12.3182 9.33684 12.9008C9.08984 13.1753 8.67184 13.1753 8.42484 12.9008C7.89759 12.3182 6.97134 12.3182 6.44409 12.9008L6.08309 13.3004C5.95009 13.4497 5.95959 13.6808 6.10684 13.8204C6.25409 13.9553 6.48209 13.9456 6.61984 13.7964L6.98084 13.3967C7.22784 13.1223 7.64584 13.1223 7.89284 13.3967C8.42009 13.9793 9.34634 13.9793 9.87359 13.3967C10.1206 13.1223 10.5386 13.1223 10.7856 13.3967L11.1466 13.7964C11.2178 13.8734 11.3128 13.9167 11.4126 13.9167C11.4981 13.9167 11.5883 13.883 11.6548 13.8204C11.8021 13.6856 11.8116 13.4497 11.6786 13.3004L11.3176 12.9008Z" fill="#393939"/>
<path d="M13.9871 4.23949C13.1036 4.23949 12.5669 3.98431 12.5146 3.96023C12.3246 3.86875 12.2486 3.63764 12.3389 3.44505C12.4291 3.25727 12.6571 3.17542 12.8471 3.2669C12.9516 3.31505 15.2791 4.37431 18.4901 1.17727C18.6374 1.02801 18.8796 1.02801 19.0269 1.18208C19.1741 1.33134 19.1741 1.5769 19.0221 1.72616C16.9511 3.7869 15.1651 4.23949 13.9871 4.23949Z" fill="#393939"/>
<path d="M10.8188 3.21864C10.586 3.21864 10.4435 3.18494 10.4198 3.18013C10.2155 3.12716 10.092 2.92013 10.1395 2.71309C10.187 2.50605 10.3913 2.38087 10.5955 2.42901C10.6668 2.44346 12.125 2.73235 13.5833 0.469385C13.6973 0.291236 13.9348 0.243088 14.1105 0.358644C14.2863 0.474199 14.3338 0.71494 14.2198 0.893088C12.904 2.93939 11.4933 3.21864 10.8188 3.21864Z" fill="#393939"/>
</g>
<defs>
<clipPath id="clip0_3202_11717">
<rect width="18.2115" height="16.5533" fill="white" transform="translate(0.925049 0.296387)"/>
</clipPath>
</defs>
</svg>
