<svg width="19" height="19" viewBox="0 0 19 19" fill="none" xmlns="http://www.w3.org/2000/svg">
<g clip-path="url(#clip0_3202_11691)">
<path d="M16.7708 3.684L18.0818 1.35363C18.1625 1.20919 18.1388 1.03104 18.02 0.915483C17.906 0.799927 17.7255 0.780668 17.583 0.86252L13.9968 3.04363C13.9065 3.09659 13.8448 3.18808 13.8305 3.28919C13.8115 3.3903 13.84 3.49622 13.9018 3.58289L15.1843 5.20548L13.8733 7.53585C13.7925 7.6803 13.8163 7.85845 13.935 7.974C14.0015 8.04141 14.0965 8.07993 14.1868 8.07993C14.2485 8.07993 14.315 8.06548 14.372 8.02696L17.9583 5.84585C18.0485 5.79289 18.1103 5.70141 18.1245 5.6003C18.1435 5.49919 18.115 5.39326 18.0533 5.30659L16.7708 3.684ZM15.1795 6.68845L15.9348 5.34993C16.006 5.21993 15.9965 5.05622 15.9063 4.94067L14.7283 3.44808L16.785 2.19622L16.0298 3.53474C15.9585 3.66474 15.968 3.82845 16.0583 3.944L17.2363 5.43659L15.1795 6.68845Z" fill="#393939"/>
<path d="M7.37527 11.3494C7.37527 10.7475 6.89077 10.2612 6.30177 10.2612C5.71277 10.2612 5.22827 10.7523 5.22827 11.3494C5.22827 11.9512 5.71277 12.4375 6.30177 12.4375C6.89077 12.4375 7.37527 11.9512 7.37527 11.3494ZM6.30177 11.7153C6.10227 11.7153 5.94552 11.5516 5.94552 11.3542C5.94552 11.152 6.10702 10.9931 6.30177 10.9931C6.49652 10.9931 6.65802 11.1568 6.65802 11.3542C6.65802 11.5516 6.50127 11.7153 6.30177 11.7153Z" fill="#393939"/>
<path d="M11.3179 10.2612C10.7241 10.2612 10.2444 10.7523 10.2444 11.3494C10.2444 11.9512 10.7289 12.4375 11.3179 12.4375C11.9116 12.4375 12.3914 11.9464 12.3914 11.3494C12.3961 10.7475 11.9116 10.2612 11.3179 10.2612ZM11.3179 11.7153C11.1184 11.7153 10.9616 11.5516 10.9616 11.3542C10.9616 11.152 11.1231 10.9931 11.3179 10.9931C11.5126 10.9931 11.6741 11.1568 11.6741 11.3542C11.6789 11.5516 11.5174 11.7153 11.3179 11.7153Z" fill="#393939"/>
<path d="M15.2271 9.60621C15.1701 9.48584 15.0466 9.40399 14.9041 9.40399C14.8138 9.40399 14.7283 9.43769 14.6666 9.49547L12.9471 9.2451C11.0803 8.97547 9.32281 8.08473 7.98805 6.73177C7.91205 6.65473 7.80756 6.62103 7.69831 6.62584C7.59381 6.63547 7.49406 6.69325 7.43706 6.78473C6.56305 8.1088 5.2378 9.00917 3.69405 9.32214L3.0718 9.44732V8.07991C3.0718 5.08028 6.04531 3.71288 8.80506 3.71288C9.94031 3.71288 11.0756 3.9488 12.0066 4.37732C12.1871 4.45917 12.4008 4.38214 12.4816 4.19917C12.5623 4.01621 12.4816 3.79954 12.3058 3.71769C11.2846 3.24584 10.0448 2.98584 8.80981 2.98584C5.70331 2.98584 2.3593 4.57954 2.3593 8.07991V9.60621C1.5423 9.78436 0.924805 10.5162 0.924805 11.3925C0.924805 12.3507 1.6563 13.1355 2.58255 13.2029C3.26655 15.6825 5.45631 18.2536 8.80981 18.2536C12.1586 18.2536 14.3483 15.6873 15.0371 13.2029C15.9633 13.1355 16.6948 12.3507 16.6948 11.3925C16.6948 10.5018 16.0631 9.76028 15.2271 9.60621ZM1.64205 11.3925C1.64205 10.9207 1.9413 10.5162 2.3593 10.367V11.4744C2.3593 11.8018 2.38305 12.1244 2.4258 12.4421C1.9793 12.3121 1.64205 11.8932 1.64205 11.3925ZM14.4053 12.784C13.8638 15.0662 11.8831 17.5266 8.80981 17.5266C5.73181 17.5266 3.7558 15.0662 3.2143 12.7888C3.1193 12.3651 3.0718 11.9221 3.0718 11.4744V10.1936L3.8318 10.0395C5.4183 9.71695 6.81006 8.83584 7.77906 7.54066C9.18031 8.83584 10.9616 9.69288 12.8378 9.96251L14.5383 10.2081V11.4695C14.5478 11.9221 14.5003 12.3651 14.4053 12.784ZM15.1938 12.4421C15.2366 12.1244 15.2603 11.8018 15.2603 11.4744V10.367C15.6783 10.5162 15.9776 10.9207 15.9776 11.3925C15.9776 11.8932 15.6451 12.3121 15.1938 12.4421Z" fill="#393939"/>
<path d="M10.8287 15.4272C9.50816 14.3583 8.11641 14.3583 6.79591 15.4272C6.64391 15.5523 6.61541 15.7835 6.73891 15.9375C6.86241 16.0916 7.09041 16.1205 7.24241 15.9953C8.31116 15.1286 9.30866 15.1286 10.3774 15.9953C10.4439 16.0483 10.5247 16.0723 10.6007 16.0723C10.7052 16.0723 10.8097 16.0242 10.8809 15.9375C11.0044 15.7786 10.9807 15.5523 10.8287 15.4272Z" fill="#393939"/>
<path d="M15.1798 6.68851L15.935 5.34999C16.0063 5.21999 15.9968 5.05629 15.9065 4.94073L14.7285 3.44814L16.7853 2.19629L16.03 3.53481C15.9588 3.66481 15.9683 3.82851 16.0585 3.94407L17.2365 5.43666L15.1798 6.68851Z" fill="#FFE88B"/>
</g>
<defs>
<clipPath id="clip0_3202_11691">
<rect width="17.2045" height="17.4393" fill="white" transform="translate(0.925049 0.814941)"/>
</clipPath>
</defs>
</svg>
