<svg width="20" height="16" viewBox="0 0 20 16" fill="none" xmlns="http://www.w3.org/2000/svg">
<path d="M2.75649 9.96436C1.51199 9.96436 0.500244 10.9899 0.500244 12.2514C0.500244 13.5129 1.51199 14.5384 2.75649 14.5384C4.00099 14.5384 5.01274 13.5129 5.01274 12.2514C5.01274 10.9899 4.00099 9.96436 2.75649 9.96436ZM4.33824 12.2514C4.33824 13.1373 3.63049 13.8547 2.75649 13.8547C1.86824 13.8547 1.17474 13.1518 1.17474 12.2514C1.17474 11.351 1.86824 10.6481 2.75649 10.6481C3.64474 10.6481 4.33824 11.351 4.33824 12.2514Z" fill="#393939"/>
<path d="M16.5363 2.02442V1.89442C16.5363 1.01331 15.8285 0.295898 14.9593 0.295898H11.0595C10.1903 0.295898 9.48251 1.01331 9.48251 1.89442V8.42331C9.48251 9.30442 10.1903 10.0218 11.0595 10.0218H12.6745V12.9107C12.6745 14.1578 11.6723 15.1737 10.442 15.1737C9.21176 15.1737 8.20951 14.1578 8.20951 12.9107V7.07516C8.20951 5.44775 6.90326 4.12849 5.30251 4.12849C3.70176 4.12849 2.39551 5.45256 2.39551 7.07516V9.36701C2.39551 9.57405 2.53326 9.70886 2.73276 9.70886C2.93226 9.70886 3.07001 9.56923 3.07001 9.36701V7.07516C3.07001 5.82812 4.07226 4.81219 5.30251 4.81219C6.53276 4.81219 7.53501 5.82812 7.53501 7.07516V12.9107C7.53501 14.5381 8.84126 15.8574 10.442 15.8574C12.0475 15.8574 13.349 14.5333 13.349 12.9107V10.0218H14.964C15.8333 10.0218 16.541 9.30442 16.541 8.42331V8.29331C18.1038 8.11997 19.3293 6.74775 19.3293 5.15886C19.3198 3.53627 18.1228 2.19775 16.5363 2.02442ZM17.9328 5.12516C17.9328 5.33219 18.0705 5.46701 18.27 5.46701H18.6073C18.4743 6.57442 17.6288 7.43145 16.5315 7.57108V7.22923C16.5315 7.02219 16.3938 6.88738 16.1943 6.88738C15.9948 6.88738 15.857 7.02701 15.857 7.22923V7.57108C14.774 7.40256 13.9475 6.56479 13.7813 5.46701H14.1185C14.3228 5.46701 14.4558 5.32738 14.4558 5.12516C14.4558 4.92294 14.318 4.78331 14.1185 4.78331H13.7813C13.9428 3.68553 14.774 2.84775 15.857 2.67923V3.17997C15.857 3.38701 15.9948 3.52182 16.1943 3.52182C16.3938 3.52182 16.5315 3.38219 16.5315 3.17997V2.67923C17.6145 2.84775 18.441 3.68553 18.6073 4.78331H18.27C18.0705 4.78331 17.9328 4.92294 17.9328 5.12516ZM15.8903 1.99553C14.3275 2.16886 13.102 3.54108 13.102 5.12997C13.102 6.74775 14.299 8.09108 15.8903 8.26442V8.39442C15.8618 8.92405 15.4533 9.33812 14.9593 9.33812H11.088C10.5893 9.33812 10.1855 8.92886 10.1855 8.42331V1.86071C10.1855 1.35516 10.5893 0.945898 11.088 0.945898H14.9878C15.4818 0.945898 15.8903 1.35516 15.8903 1.86071V1.99553Z" fill="#393939"/>
<path d="M16.0708 4.2491C15.9663 4.2491 15.876 4.2828 15.8285 4.30688L15.1018 3.57021C14.964 3.43058 14.7645 3.43539 14.6268 3.57021C14.489 3.70502 14.489 3.91206 14.6268 4.05169L15.3583 4.79317C15.3298 4.88465 15.3298 4.94725 15.3298 5.03391C15.3298 5.45762 15.6813 5.81391 16.0993 5.81391C16.5173 5.81391 16.8688 5.45762 16.8688 5.03391C16.8735 4.61502 16.4983 4.2491 16.0708 4.2491ZM16.1373 5.03391C16.1373 5.08206 16.1183 5.10132 16.0708 5.10132C16.0233 5.10132 15.9758 5.05317 15.9758 5.00502C15.9758 4.99539 15.9758 4.97614 15.9805 4.97132H15.9948L16.0043 4.96169C16.0233 4.94243 16.047 4.93762 16.047 4.93762C16.0898 4.93762 16.1373 4.98576 16.1373 5.03391Z" fill="#393939"/>
<path d="M15.8901 1.99543C14.3273 2.16876 13.1018 3.54099 13.1018 5.12987C13.1018 6.74765 14.2988 8.09099 15.8901 8.26432V8.39432C15.8616 8.92395 15.4531 9.33802 14.9591 9.33802H11.0878C10.5891 9.33802 10.1853 8.92876 10.1853 8.42321V1.86062C10.1853 1.35506 10.5891 0.945801 11.0878 0.945801H14.9876C15.4816 0.945801 15.8901 1.35506 15.8901 1.86062V1.99543Z" fill="#FFB1A2"/>
</svg>
