<svg width="20" height="16" viewBox="0 0 20 16" fill="none" xmlns="http://www.w3.org/2000/svg">
<path d="M12.0086 6.00958C12.2727 5.10847 12.6434 4.65332 13.1113 4.65332C15.2797 4.65332 18.9586 9.34734 18.9586 12.915C18.9586 13.8713 17.1794 15.0298 14.9693 15.0298C12.8148 15.0298 11.6518 13.9402 11.6518 12.915C11.6518 12.7679 11.6426 12.538 11.6333 12.2438C11.5962 11.1817 11.5221 9.20482 11.7213 7.50376" fill="#FFB1A2"/>
<path d="M3.61295 8.12457C3.52491 8.10618 3.43225 8.12457 3.35348 8.17974C3.15888 8.30847 3.03378 8.51536 3.00134 8.74523C2.98744 8.83718 3.01525 8.92453 3.07085 8.99809C3.12645 9.07165 3.20985 9.11763 3.30251 9.13142C3.31641 9.13142 3.33495 9.13602 3.34885 9.13602C3.52028 9.13602 3.66855 9.00729 3.69171 8.83718C3.69635 8.8004 3.71488 8.77282 3.74731 8.74983C3.82608 8.69926 3.87705 8.6211 3.89558 8.52915C3.91412 8.4372 3.89558 8.34985 3.83998 8.27169C3.78438 8.19353 3.70561 8.13836 3.61295 8.12457Z" fill="#393939"/>
<path d="M13.1113 3.96843C12.4627 3.96843 11.9484 4.36381 11.587 5.14998V1.23753C11.587 0.695023 10.9059 0.28125 10.0024 0.28125C9.09885 0.28125 8.41774 0.695023 8.41774 1.23753V5.14998C8.05634 4.36381 7.54204 3.96843 6.89337 3.96843C4.20139 3.96843 0.351074 9.23714 0.351074 12.9151C0.351074 13.6231 0.874643 14.3403 1.79205 14.8828C2.69092 15.4116 3.86779 15.7196 5.02613 15.7196H5.03076C7.63471 15.7196 9.04325 14.276 9.04325 12.9197C9.04325 12.7864 9.05251 12.5611 9.06178 12.2623C9.09885 11.2141 9.16835 9.27852 8.98301 7.57745L9.99772 6.40049L11.0124 7.57745C10.8271 9.27852 10.8966 11.2141 10.9337 12.2761C10.9429 12.5611 10.9522 12.7864 10.9522 12.9243C10.9522 14.2806 12.3561 15.7242 14.9647 15.7242C17.4157 15.7242 19.6444 14.3863 19.6444 12.9243C19.649 9.23714 15.7987 3.96843 13.1113 3.96843ZM11.7213 7.50389C11.7306 7.41194 11.7028 7.31539 11.6379 7.24183L10.2618 5.65111C10.1321 5.49939 9.87262 5.49939 9.73362 5.65111L8.36214 7.24183C8.29728 7.3108 8.26948 7.40734 8.27874 7.50849C8.47798 9.18657 8.40848 11.1635 8.36678 12.2255V12.2485C8.35751 12.5427 8.34824 12.7726 8.34824 12.9197C8.34824 13.945 7.18527 15.0346 5.03076 15.0346C3.69172 15.0346 2.19515 14.5196 1.47698 13.8024C1.18971 13.5174 1.04144 13.2186 1.04144 12.9151C1.04144 9.34748 4.72033 4.65345 6.88874 4.65345C7.35671 4.65345 7.73201 5.1086 7.99147 6.00971C8.02391 6.13384 8.12584 6.22579 8.25094 6.24878C8.37604 6.27636 8.50578 6.23498 8.58918 6.13844L9.02008 5.63731C9.07568 5.57295 9.10348 5.49479 9.10348 5.41204V1.23753C9.12201 1.17316 9.42318 0.961677 9.99772 0.961677C10.5723 0.961677 10.8734 1.16856 10.892 1.23293V5.41204C10.892 5.49479 10.9244 5.57295 10.9754 5.63272L11.4063 6.13384C11.4897 6.22579 11.6194 6.27177 11.7399 6.24418C11.865 6.2166 11.9623 6.12924 11.9993 6.00511C12.2634 5.10401 12.6341 4.64885 13.1021 4.64885C15.2705 4.64885 18.9494 9.34288 18.9494 12.9105C18.9494 13.8668 17.1701 15.0254 14.96 15.0254C12.8055 15.0254 11.6426 13.9358 11.6426 12.9105C11.6426 12.7634 11.6333 12.5335 11.624 12.2393C11.5916 11.1819 11.5175 9.20955 11.7213 7.50389Z" fill="#393939"/>
<path d="M6.40691 5.30163C6.32351 5.26485 6.23084 5.26485 6.1428 5.29703C6.00844 5.3522 4.8223 5.86252 3.81223 7.44865C3.76126 7.52681 3.74736 7.61876 3.76589 7.71071C3.78443 7.79806 3.84003 7.87622 3.9188 7.92219C3.9744 7.95897 4.03926 7.97736 4.10413 7.97736C4.2246 7.97736 4.3358 7.91759 4.39603 7.81645C5.31343 6.37744 6.35131 5.95447 6.39301 5.94068C6.48104 5.90849 6.54591 5.84413 6.58297 5.75678C6.62004 5.67402 6.62004 5.57747 6.58761 5.49472C6.55981 5.40277 6.49494 5.33841 6.40691 5.30163Z" fill="#393939"/>
</svg>
