<svg width="18" height="18" viewBox="0 0 18 18" fill="none" xmlns="http://www.w3.org/2000/svg">
<g clip-path="url(#clip0_3202_11648)">
<path d="M15.9929 5.89826H13.4794L15.2355 4.14215C15.3802 4.17592 15.5346 4.19522 15.6841 4.19522H15.689C16.7262 4.1904 17.5657 3.34611 17.5657 2.30885C17.5609 1.27159 16.7214 0.432129 15.6841 0.432129H15.6793C15.1776 0.432129 14.7048 0.629933 14.3526 0.986944C14.0004 1.34396 13.8026 1.81675 13.8074 2.3185C13.8074 2.46806 13.8267 2.61279 13.8605 2.76235L10.7246 5.89826H8.17725L7.76235 5.48336C8.66935 4.30619 8.55356 2.64657 7.47288 1.59965C7.32332 1.51281 7.13517 1.53211 7.00491 1.6479C7.00008 1.65272 6.95666 1.69132 6.95184 1.69614C6.94701 1.70097 6.94219 1.70579 6.94219 1.70579L6.91324 1.73956C6.21369 2.46806 5.9387 3.51015 6.18957 4.48469C5.18608 4.22899 4.11987 4.52329 3.38172 5.26626C3.25629 5.41582 3.26111 5.63774 3.40102 5.77765C3.44444 5.82107 3.49269 5.85967 3.54093 5.89826H2.00675C1.13834 5.90309 0.429141 6.61229 0.424316 7.48069C0.443614 9.91706 1.5243 12.2135 3.38655 13.7815C3.70979 14.0613 4.05715 14.3218 4.42381 14.5534C4.76152 14.7657 5.11371 14.9586 5.48037 15.1227C4.89178 15.3591 4.5589 16.0007 4.72293 16.6279C4.86766 17.1875 5.37423 17.5783 5.95317 17.5783H12.0368C12.0368 17.5783 12.0368 17.5783 12.0417 17.5783C12.7412 17.5783 13.3153 17.009 13.3153 16.3095C13.3153 15.8222 13.0355 15.3784 12.6013 15.1613C13.7495 14.6547 14.7771 13.878 15.5828 12.9179C16.8661 11.3982 17.5705 9.46838 17.5705 7.48069C17.5705 6.60746 16.8661 5.89826 15.9929 5.89826ZM14.5311 3.12419C14.6324 3.02287 14.6662 2.86849 14.6131 2.73341C14.3864 2.13999 14.6807 1.47422 15.2692 1.24264C15.8627 1.01107 16.5333 1.31018 16.76 1.89877C16.9868 2.49218 16.6925 3.15796 16.1039 3.38953C15.8337 3.49567 15.5394 3.49567 15.2692 3.38953C15.1342 3.33647 14.9798 3.37024 14.8785 3.47155L12.4469 5.90309H11.7522L14.5311 3.12419ZM7.25578 2.44876C7.7913 3.2255 7.77682 4.25312 7.21718 5.01056C7.21236 5.00574 7.21236 5.00091 7.20753 5.00091C6.66719 4.21934 6.69132 3.2062 7.25578 2.44876ZM6.70096 5.50748C5.95799 6.0237 4.95933 6.0237 4.21153 5.50748C4.95933 4.99126 5.94835 4.99126 6.70096 5.50748ZM12.0417 16.845H5.95799C5.65405 16.845 5.408 16.599 5.408 16.295C5.408 15.9911 5.65405 15.745 5.95799 15.745H12.0417C12.3408 15.745 12.5868 15.9911 12.5917 16.295C12.5868 16.599 12.3408 16.845 12.0417 16.845ZM15.028 12.4451C14.0052 13.6753 12.582 14.5534 11.0237 14.92C10.8548 14.9586 10.6956 14.9924 10.5412 15.0214H7.64656C7.48253 14.9924 7.31367 14.9586 7.14964 14.92C6.31983 14.7271 5.53344 14.3942 4.81459 13.931C4.4817 13.7236 4.16329 13.4872 3.86417 13.2266C2.92822 12.4306 2.19008 11.4078 1.7221 10.2741H16.3113C16.0074 11.0701 15.5732 11.7986 15.028 12.4451ZM16.5574 9.5504H1.4664C1.36027 9.19338 1.27825 8.82672 1.22518 8.45524H16.7793C16.7311 8.8219 16.6539 9.18856 16.5574 9.5504ZM16.8372 7.67367C16.8372 7.69297 16.8372 7.70744 16.8324 7.72674H1.16729C1.16729 7.70262 1.16246 7.68332 1.16246 7.6592C1.15764 7.60131 1.15281 7.54341 1.15281 7.48069C1.15764 7.01272 1.53877 6.63159 2.00675 6.62676H15.9929C16.4609 6.62676 16.842 7.00789 16.8468 7.48069C16.8468 7.54341 16.842 7.61095 16.8372 7.67367Z" fill="#393939"/>
<path d="M5.58167 4.35437H5.68781C5.88079 4.3399 6.03035 4.17587 6.03035 3.97806C6.02553 3.02764 5.65404 2.13029 4.97861 1.45968C4.30319 0.793907 3.41066 0.427246 2.45541 0.427246C2.45059 0.427246 2.44576 0.427246 2.44094 0.427246C2.24796 0.446544 2.0984 0.605752 2.0984 0.798731C2.09358 2.7237 3.65671 4.31578 5.58167 4.35437ZM5.24879 3.46667C5.25843 3.51009 5.26326 3.55351 5.27291 3.59693C4.01854 3.4329 3.01505 2.43423 2.85102 1.17504C4.05231 1.3439 5.03168 2.2702 5.24879 3.46667Z" fill="#393939"/>
<path d="M16.5575 9.55024H1.46168C1.35554 9.19322 1.27353 8.82656 1.22046 8.45508H16.7746C16.7263 8.82174 16.654 9.1884 16.5575 9.55024Z" fill="#D6FFD0"/>
<path d="M5.24884 3.47131C5.25849 3.51474 5.26331 3.55816 5.27296 3.60158C4.0186 3.43754 3.01511 2.43888 2.85107 1.17969C4.05237 1.34372 5.03174 2.27484 5.24884 3.47131Z" fill="#D6FFD0"/>
</g>
<defs>
<clipPath id="clip0_3202_11648">
<rect width="17.151" height="17.1462" fill="white" transform="translate(0.424561 0.426758)"/>
</clipPath>
</defs>
</svg>
