<svg width="18" height="18" viewBox="0 0 18 18" fill="none" xmlns="http://www.w3.org/2000/svg">
<path d="M12.7667 9.17784C14.9782 9.17784 16.771 7.36061 16.771 5.11895C16.771 2.87729 14.9782 1.06006 12.7667 1.06006C10.5552 1.06006 8.76245 2.87729 8.76245 5.11895C8.76245 7.36061 10.5552 9.17784 12.7667 9.17784Z" fill="#D6FFD0"/>
<path d="M7.03829 8.38811C6.44454 8.13293 5.82229 8.00293 5.18579 8.00293C3.28104 8.00293 1.57104 9.14886 0.825287 10.9255C0.331287 12.1052 0.317037 13.4052 0.792037 14.5992C1.26704 15.7885 2.16479 16.7226 3.32854 17.2233C3.92229 17.4785 4.54454 17.6085 5.18104 17.6085C7.08579 17.6085 8.79579 16.4626 9.54154 14.6859C10.0355 13.5063 10.0498 12.2014 9.57954 11.0122C9.10454 9.81812 8.20204 8.88886 7.03829 8.38811ZM8.88129 14.397C8.46329 15.3985 7.68429 16.1737 6.68679 16.5781C5.69879 16.9826 4.60154 16.9729 3.61354 16.5492C2.78229 16.1929 2.11729 15.5814 1.68029 14.7918L1.60904 14.6618L9.02854 11.6333L9.06654 11.7777C9.29929 12.6444 9.23279 13.5544 8.88129 14.397ZM8.76254 10.9448L1.34304 13.9781L1.30504 13.8337C1.07704 12.9574 1.14354 12.0474 1.49504 11.2048C1.91304 10.2033 2.69204 9.43293 3.68954 9.02367C4.17404 8.82626 4.68229 8.72515 5.18579 8.72515C5.71779 8.72515 6.25454 8.83589 6.75804 9.05256C7.58454 9.40886 8.25429 10.0155 8.69129 10.81L8.76254 10.9448Z" fill="#393939"/>
<path d="M17.0417 3.10634C16.2674 1.42116 14.5812 0.333008 12.7477 0.333008C12.0542 0.333008 11.3844 0.482267 10.7527 0.780786C9.60793 1.32004 8.73393 2.28301 8.30168 3.48671C7.86943 4.69042 7.92168 5.99523 8.45843 7.1556C9.23268 8.84079 10.9189 9.92893 12.7524 9.92893C13.4459 9.92893 14.1157 9.77967 14.7474 9.48116C17.1177 8.36893 18.1437 5.50893 17.0417 3.10634ZM16.3862 6.86671L16.3197 7.00153C15.9112 7.81042 15.2604 8.44116 14.4434 8.82634C13.9067 9.08153 13.3367 9.20671 12.7524 9.20671C12.2822 9.20671 11.8214 9.12486 11.3749 8.96116C10.3679 8.59042 9.56518 7.8393 9.10918 6.85708C8.72918 6.02893 8.63418 5.12375 8.83368 4.23782L8.86693 4.09338L16.3862 6.86671ZM16.6664 6.03375L16.6332 6.17819L9.11393 3.40004L9.18043 3.26523C9.58893 2.45634 10.2397 1.8256 11.0567 1.44042C12.0304 0.983008 13.1182 0.93486 14.1252 1.3056C15.1322 1.68116 15.9397 2.42745 16.3909 3.40967C16.7709 4.24264 16.8659 5.14782 16.6664 6.03375Z" fill="#393939"/>
</svg>
