<svg width="13" height="19" viewBox="0 0 13 19" fill="none" xmlns="http://www.w3.org/2000/svg">
<g clip-path="url(#clip0_3202_1198)">
<path d="M5.38714 7.19956L7.02114 10.4014V10.8155L5.61989 12.6788L5.03564 13.921C5.03564 13.921 8.56489 14.5373 9.39614 11.3933C9.39614 11.3933 10.0374 8.60067 7.83814 7.41623C7.83814 7.41623 6.58889 6.87215 5.38714 7.19956Z" fill="#B9D1FF"/>
<path d="M10.5978 9.37097C10.2178 8.98579 9.04931 4.85949 8.13731 1.09431C8.11356 0.99801 8.05656 0.916158 7.97106 0.86801C7.89031 0.819862 7.79056 0.800602 7.70031 0.829491C7.60531 0.853565 7.52456 0.911343 7.47706 0.99801C7.42481 1.07505 7.41056 1.17616 7.43431 1.27245C7.75256 2.5869 9.37231 9.16394 10.0896 9.89097C10.4838 10.2906 11.0776 11.0899 11.4433 11.9036C11.7663 12.6162 12.0276 13.5888 11.4433 14.1858C10.7878 14.8502 9.24406 15.3317 7.74306 15.7988C6.36081 16.2321 4.92631 16.675 3.94781 17.3202C1.58705 17.3106 1.12155 17.0554 1.0313 16.9688C1.07405 16.3284 2.41355 15.9962 3.71981 15.9962C3.85756 15.9962 3.98106 15.9191 4.04281 15.7939C4.68406 14.4939 5.99506 12.4669 7.36781 11.0754C7.47706 10.9647 7.50556 10.7913 7.43431 10.6517C6.92606 9.62134 6.37031 8.63431 5.82881 7.68097L5.82406 7.67616C4.86931 5.97653 3.88606 4.22875 3.03581 2.07653C2.99781 1.98505 2.93131 1.91282 2.84106 1.87431C2.75081 1.83579 2.65106 1.83579 2.56556 1.87431C2.38031 1.94653 2.28531 2.1632 2.36131 2.35097C3.23531 4.56097 4.23281 6.32801 5.19706 8.03727C5.71481 8.95208 6.20406 9.81875 6.66481 10.7384C5.29206 12.1876 4.09981 14.0702 3.49181 15.2547C2.72231 15.2739 0.299805 15.4617 0.299805 16.9976C0.299805 17.8739 1.80081 18.0521 4.05231 18.0521C4.12356 18.0521 4.19481 18.0328 4.25656 17.9895C5.14956 17.3732 6.57456 16.9302 7.95206 16.5017H7.95681C9.60981 15.9865 11.1678 15.5002 11.9516 14.7106C13.5761 13.0591 11.2961 10.0788 10.5978 9.37097Z" fill="#393939"/>
<path d="M4.37998 8.43223C4.42273 8.34556 4.43223 8.24445 4.39898 8.15297L3.71973 6.08741C3.65798 5.89963 3.46323 5.78889 3.25898 5.8563C3.16873 5.88519 3.09273 5.9526 3.04998 6.03926C3.00723 6.12593 2.99773 6.22704 3.03098 6.32334L3.71023 8.38408C3.73873 8.47556 3.80523 8.5526 3.89073 8.59593C3.94298 8.62001 3.99523 8.63445 4.05223 8.63445C4.09023 8.63445 4.12823 8.62964 4.16623 8.61519C4.26123 8.5863 4.33723 8.51889 4.37998 8.43223Z" fill="#393939"/>
<path d="M0.803355 8.49487L2.83636 9.87191C2.89811 9.91043 2.96461 9.9345 3.03586 9.9345C3.05961 9.9345 3.08336 9.92969 3.10711 9.92487C3.20211 9.90562 3.28286 9.84784 3.33511 9.76599C3.38736 9.68413 3.40636 9.58784 3.38736 9.49154C3.36836 9.39525 3.31136 9.31339 3.23061 9.25562L1.20236 7.88339C1.14061 7.84487 1.07411 7.8208 1.00286 7.8208C0.879355 7.8208 0.765355 7.88339 0.698855 7.9845C0.646605 8.06636 0.627605 8.16265 0.646605 8.25895C0.665605 8.35525 0.722605 8.44191 0.803355 8.49487Z" fill="#393939"/>
<path d="M1.00268 12.2984C1.05493 12.2984 1.11193 12.2887 1.16418 12.2598L3.19718 11.2295C3.28268 11.1861 3.34918 11.1091 3.37768 11.0176C3.40618 10.9261 3.40143 10.825 3.35868 10.7384C3.29693 10.6132 3.17343 10.5361 3.03568 10.5361C2.97868 10.5361 2.92168 10.5506 2.87418 10.5747L0.841175 11.605C0.660675 11.6965 0.589425 11.918 0.679675 12.1009C0.741425 12.2261 0.869675 12.2984 1.00268 12.2984Z" fill="#393939"/>
<path d="M3.88615 12.25C3.7579 12.25 3.63915 12.3174 3.5774 12.4281L2.55615 14.1519C2.50865 14.2337 2.48965 14.3348 2.5134 14.4311C2.53715 14.5274 2.59415 14.6093 2.67965 14.6574C2.73665 14.6911 2.80315 14.7104 2.8649 14.7104C2.9884 14.7104 3.10715 14.6478 3.1784 14.5322L4.1949 12.8133C4.2994 12.64 4.2424 12.4137 4.0714 12.3078C4.0144 12.2693 3.95265 12.25 3.88615 12.25Z" fill="#393939"/>
</g>
<defs>
<clipPath id="clip0_3202_1198">
<rect width="12.2265" height="17.237" fill="white" transform="translate(0.300049 0.814941)"/>
</clipPath>
</defs>
</svg>
