<svg width="20" height="16" viewBox="0 0 20 16" fill="none" xmlns="http://www.w3.org/2000/svg">
<g clip-path="url(#clip0_3202_1539)">
<path d="M14.6267 15.2366H13.4061C12.5763 14.3779 11.9395 13.3744 11.5101 12.2503C11.457 12.1104 11.3219 12.0187 11.1724 12.0187H10C9.00135 12.0187 8.19084 11.2082 8.19084 10.2095C8.19084 9.21085 9.00135 8.40033 10 8.40033C10.1978 8.40033 10.3619 8.2363 10.3619 8.0385C10.3619 7.84069 10.1978 7.67666 10 7.67666C8.72636 7.67666 7.67945 8.62226 7.50576 9.84768H4.03214C2.73435 9.84768 1.68262 8.79112 1.68262 7.49333C1.68262 6.19555 2.73918 5.13899 4.03214 5.13899C4.65932 5.13899 5.25273 5.38503 5.69658 5.82889C5.76895 5.90125 5.86062 5.93503 5.95228 5.93503C6.04395 5.93503 6.13561 5.90125 6.20798 5.82889C6.28035 5.75652 6.31412 5.66485 6.31412 5.57319C6.31412 5.48152 6.28035 5.38986 6.20798 5.31749C5.71588 4.83022 5.0887 4.5311 4.41327 4.44426C4.58213 3.00657 5.80272 1.88729 7.28866 1.88729C7.38515 1.88729 7.47682 1.84869 7.54436 1.78115C8.20049 1.12502 9.07372 0.763184 10 0.763184C10.6369 0.763184 11.2447 0.936865 11.7803 1.25528C10.8781 1.43379 10.0531 1.87764 9.38731 2.53859C9.2474 2.6785 9.2474 2.91008 9.38731 3.04999C9.45968 3.12235 9.55134 3.15613 9.64301 3.15613C9.73467 3.15613 9.82634 3.12235 9.89871 3.04999C10.6513 2.29737 11.65 1.88246 12.7114 1.88246C14.8631 1.88246 16.6192 3.59998 16.6868 5.73722C16.2815 5.58766 15.8569 5.50082 15.4276 5.50082H13.7969C12.7982 5.50082 11.9877 4.69031 11.9877 3.69164C11.9877 3.49384 11.8237 3.32981 11.6259 3.32981C11.4281 3.32981 11.264 3.49384 11.264 3.69164C11.264 5.09074 12.4026 6.22449 13.7969 6.22449H15.4276C15.9341 6.22449 16.4311 6.35958 16.8749 6.61528C17.7674 7.1315 18.3222 8.09157 18.3222 9.11918C18.3222 10.7161 17.0245 12.0139 15.4276 12.0139H13.7342C13.628 12.0139 13.5267 12.0621 13.4543 12.1441C13.3868 12.2261 13.3579 12.3371 13.3772 12.4432C13.5701 13.4709 13.9947 14.4213 14.6267 15.2366Z" fill="#D6FFD0"/>
<path d="M9.45473 5.50549C8.45606 5.50549 7.64555 4.69498 7.64555 3.69631C7.64555 3.4985 7.48151 3.33447 7.28371 3.33447C7.08591 3.33447 6.92188 3.4985 6.92188 3.69631C6.92188 5.09541 8.06045 6.22916 9.45473 6.22916C9.65253 6.22916 9.81656 6.06513 9.81656 5.86732C9.81656 5.66952 9.65736 5.50549 9.45473 5.50549Z" fill="#393939"/>
<path d="M6.74355 7.67682H5.11287C4.71244 7.67682 4.3892 7.35358 4.3892 6.95314C4.3892 6.75534 4.22517 6.59131 4.02736 6.59131C3.82956 6.59131 3.66553 6.75534 3.66553 6.95314C3.66553 7.74918 4.31683 8.40049 5.11287 8.40049H6.74355C6.94135 8.40049 7.10538 8.23646 7.10538 8.03865C7.10538 7.84085 6.94135 7.67682 6.74355 7.67682Z" fill="#393939"/>
<path d="M16.8748 8.03859C16.8748 7.84079 16.7108 7.67676 16.513 7.67676C16.3152 7.67676 16.1512 7.84079 16.1512 8.03859C16.1512 8.43903 15.8279 8.76227 15.4275 8.76227H12.171C11.3749 8.76227 10.7236 9.41357 10.7236 10.2096C10.7236 10.4074 10.8877 10.5714 11.0855 10.5714C11.2833 10.5714 11.4473 10.4074 11.4473 10.2096C11.4473 9.80918 11.7705 9.48594 12.171 9.48594H15.4275C16.2235 9.48594 16.8748 8.83463 16.8748 8.03859Z" fill="#393939"/>
<path d="M19.0459 9.12405C19.0459 7.90828 18.4284 6.7697 17.4152 6.10392V5.86752C17.4152 3.32502 15.3841 1.24567 12.8609 1.16848C12.0842 0.439983 11.071 0.0395508 10 0.0395508C8.92897 0.0395508 7.91583 0.439983 7.13908 1.16848C5.32508 1.24085 3.85361 2.65442 3.68476 4.43948C2.15057 4.61316 0.954102 5.91577 0.954102 7.49337C0.954102 9.19159 2.3339 10.5714 4.0273 10.5714H7.49127C7.66495 11.7968 8.72634 12.7424 10 12.7424H10.9263C11.4088 13.9148 12.1083 14.9617 13.0008 15.8542C13.0684 15.9217 13.16 15.9603 13.2565 15.9603H15.4275C15.5723 15.9603 15.7074 15.8735 15.7604 15.7384C15.8183 15.6033 15.7846 15.4489 15.6832 15.3428C14.9596 14.6191 14.4482 13.7266 14.1877 12.7424H15.4275C17.4201 12.7424 19.0459 11.1166 19.0459 9.12405ZM14.6267 15.2367H13.4061C12.5763 14.3779 11.9394 13.3744 11.5101 12.2503C11.457 12.1104 11.3219 12.0187 11.1724 12.0187H10C9.00133 12.0187 8.19082 11.2082 8.19082 10.2096C8.19082 9.21089 9.00133 8.40037 10 8.40037C10.1978 8.40037 10.3618 8.23634 10.3618 8.03854C10.3618 7.84073 10.1978 7.6767 10 7.6767C8.72634 7.6767 7.67943 8.6223 7.50575 9.84772H4.03212C2.73433 9.84772 1.6826 8.79116 1.6826 7.49337C1.6826 6.19559 2.73916 5.13903 4.03212 5.13903C4.6593 5.13903 5.25271 5.38507 5.69657 5.82893C5.76893 5.90129 5.8606 5.93506 5.95226 5.93506C6.04393 5.93506 6.13559 5.90129 6.20796 5.82893C6.28033 5.75656 6.3141 5.66489 6.3141 5.57323C6.3141 5.48156 6.28033 5.3899 6.20796 5.31753C5.71586 4.83026 5.08868 4.53114 4.41325 4.4443C4.58211 3.00661 5.8027 1.88733 7.28864 1.88733C7.38513 1.88733 7.4768 1.84873 7.54434 1.78119C8.20047 1.12506 9.0737 0.763223 10 0.763223C10.6368 0.763223 11.2447 0.936904 11.7802 1.25532C10.8781 1.43383 10.0531 1.87768 9.38729 2.53863C9.24738 2.67854 9.24738 2.91012 9.38729 3.05003C9.45966 3.12239 9.55133 3.15616 9.64299 3.15616C9.73466 3.15616 9.82632 3.12239 9.89869 3.05003C10.6513 2.29741 11.65 1.8825 12.7114 1.8825C14.8631 1.8825 16.6192 3.60002 16.6867 5.73726C16.2815 5.5877 15.8569 5.50086 15.4275 5.50086H13.7969C12.7982 5.50086 11.9877 4.69035 11.9877 3.69168C11.9877 3.49388 11.8237 3.32985 11.6259 3.32985C11.428 3.32985 11.264 3.49388 11.264 3.69168C11.264 5.09078 12.4026 6.22453 13.7969 6.22453H15.4275C15.9341 6.22453 16.431 6.35962 16.8749 6.61532C17.7674 7.13154 18.3222 8.09161 18.3222 9.11922C18.3222 10.7161 17.0244 12.0139 15.4275 12.0139H13.7341C13.628 12.0139 13.5267 12.0622 13.4543 12.1442C13.3868 12.2262 13.3578 12.3371 13.3771 12.4433C13.5701 13.4709 13.9947 14.4213 14.6267 15.2367Z" fill="#393939"/>
</g>
<defs>
<clipPath id="clip0_3202_1539">
<rect width="18.0918" height="15.9208" fill="white" transform="translate(0.954102 0.0395508)"/>
</clipPath>
</defs>
</svg>
