<svg width="16" height="16" viewBox="0 0 16 16" fill="none" xmlns="http://www.w3.org/2000/svg">
<path d="M14.9397 9.30958C14.9397 9.27106 14.935 9.23736 14.9255 9.20847C14.821 8.59699 14.631 7.99995 14.3602 7.43181C14.3555 7.40773 14.346 7.38366 14.3317 7.35958C14.3222 7.34514 14.3175 7.34032 14.3175 7.34514C14.0515 6.81551 13.776 6.42069 13.5765 6.17514C13.795 5.77551 13.871 5.26995 13.795 4.6681C13.7237 4.1144 13.5385 3.57514 13.2535 3.10329C12.7167 2.22217 12.579 0.64773 12.5742 0.633286C12.5647 0.532175 12.522 0.445508 12.446 0.382915C12.3747 0.320323 12.2797 0.291434 12.18 0.296249C11.9805 0.315508 11.8332 0.493656 11.8475 0.695878C11.8522 0.768101 12.0042 2.4581 12.6265 3.48366C12.8592 3.86403 13.0112 4.30699 13.0682 4.75477C13.1347 5.28921 13.054 5.69366 12.8355 5.96329C12.7167 6.10773 12.7262 6.32921 12.8592 6.46403C12.8735 6.47847 13.2012 6.81069 13.5385 7.40773C9.78123 9.62255 6.01448 9.62255 2.34747 7.41255C2.67523 6.83477 2.99348 6.50255 3.03148 6.46884C3.16448 6.33403 3.17398 6.11736 3.05523 5.9681C2.83198 5.70329 2.75598 5.29403 2.82248 4.75958C2.87948 4.31181 3.03148 3.86884 3.26423 3.48847C3.88648 2.4581 4.03848 0.772915 4.04323 0.700693C4.05748 0.493656 3.91023 0.315508 3.71073 0.296249C3.61098 0.286619 3.52073 0.315508 3.44473 0.378101C3.37348 0.445508 3.32598 0.532175 3.31648 0.633286C3.31648 0.64773 3.17873 2.21255 2.64198 3.09847C2.35698 3.57032 2.16697 4.10958 2.10047 4.66329C2.02447 5.26514 2.10047 5.77069 2.31897 6.17032C2.12422 6.41588 1.84398 6.80588 1.58272 7.32588L1.56372 7.34995C1.54472 7.37884 1.53997 7.40292 1.53047 7.43181C1.25972 7.99995 1.07447 8.59699 0.969975 9.19884C0.960475 9.23736 0.950975 9.27106 0.950975 9.29995C0.751475 10.5711 0.927225 11.8759 1.47347 13.1807C1.62547 13.5514 1.80122 13.9848 1.91997 14.4229C2.03397 14.8466 2.09097 15.2029 2.09097 15.4533C2.09097 15.6555 2.25247 15.824 2.45673 15.824C2.65623 15.824 2.81773 15.6603 2.81773 15.4581C2.81773 15.1355 2.75123 14.7263 2.61823 14.2303C2.48998 13.7488 2.30473 13.2914 2.13848 12.8966C1.75372 11.977 1.57322 11.0574 1.58747 10.1666C2.49473 11.0574 4.40898 12.5548 7.57723 13.3011V15.4581C7.57723 15.6603 7.73873 15.8288 7.94298 15.8288C8.14723 15.8288 8.30398 15.6651 8.30398 15.4581V13.2963C11.4722 12.5548 13.3865 11.0574 14.2937 10.1618C14.3127 11.0525 14.1275 11.9722 13.7427 12.8918C13.5812 13.2866 13.3912 13.7488 13.263 14.2255C13.13 14.7214 13.0635 15.1307 13.0635 15.4533C13.0635 15.6555 13.2297 15.8192 13.4292 15.8192C13.6287 15.8192 13.7902 15.6507 13.7902 15.4485C13.7902 15.1981 13.8472 14.8418 13.9612 14.4181C14.08 13.98 14.251 13.5466 14.4077 13.1759C14.9635 11.8759 15.1345 10.5711 14.9397 9.30958ZM14.1987 9.19884C13.795 9.67069 11.8 11.7844 7.94298 12.6318C4.08598 11.7844 2.09573 9.67551 1.68722 9.19884C1.75847 8.81366 1.87247 8.43329 2.02448 8.06736C3.96248 9.22773 5.94323 9.81514 7.90498 9.81514C9.87148 9.81514 11.8712 9.22292 13.8615 8.06255C14.0135 8.42847 14.1275 8.81366 14.1987 9.19884Z" fill="#393939"/>
<path d="M7.81961 7.59067H8.07611C8.27561 7.59067 8.44186 7.42697 8.44186 7.21993C8.44186 7.01771 8.28036 6.854 8.07611 6.854H7.81961C7.62011 6.854 7.45386 7.01771 7.45386 7.21993C7.45386 7.42697 7.62011 7.59067 7.81961 7.59067Z" fill="#393939"/>
<path d="M14.1988 9.1988C13.795 9.67065 11.8 11.7844 7.94301 12.6318C4.08601 11.7844 2.09576 9.67546 1.68726 9.1988C1.75851 8.81361 1.87251 8.43324 2.02451 8.06731C3.96251 9.22769 5.94326 9.81509 7.90501 9.81509C9.87151 9.81509 11.8713 9.22287 13.8615 8.0625C14.0135 8.42843 14.1275 8.81361 14.1988 9.1988Z" fill="#D6FFD0"/>
</svg>
