<svg width="18" height="18" viewBox="0 0 18 18" fill="none" xmlns="http://www.w3.org/2000/svg">
<g clip-path="url(#clip0_3202_3662)">
<path d="M8.23039 9.49944C8.23039 9.49944 7.91198 8.9784 8.23039 8.65998C8.23039 8.65998 9.533 7.60824 8.77556 6.94247C8.61635 6.80256 8.17732 5.42276 8.09048 5.22013C8.09048 5.22013 6.78305 3.77278 5.01729 4.85829C5.01729 4.85829 3.58924 5.51442 3.84011 7.50693C3.84011 7.50693 3.88353 8.84331 5.42254 9.49944C5.42254 9.49944 6.14622 9.66347 5.96771 10.6332C5.96771 10.6332 5.94359 13.8463 9.32072 13.6002C9.32072 13.6002 12.447 13.6726 11.9018 11.1012C11.9018 11.1012 12.6014 9.51874 11.7426 9.25339C11.7378 9.24857 9.67774 11.9647 8.23039 9.49944Z" fill="#FFB1A2"/>
<path d="M14.1309 9.16643C13.9379 9.19537 13.7932 9.24844 13.634 9.33046C13.3831 9.43177 13.2818 9.4559 13.1708 9.4173L13.0164 9.23879L13.002 9.22914C12.9248 9.19055 12.8476 9.15195 12.7752 9.10853C12.5822 9.00722 12.3796 8.90108 12.1673 8.81906C11.5305 8.56819 11.106 8.67915 10.6621 9.20502C10.6428 9.22432 10.6235 9.24362 10.6042 9.26774C10.5656 9.31116 10.527 9.35458 10.4691 9.39318C10.363 9.49931 10.2617 9.57651 10.1507 9.62958C9.9722 9.75019 9.38844 10.0059 9.1038 9.76466C8.97354 9.65852 8.8095 9.49932 8.62617 9.28704C8.59723 9.24844 8.56828 9.21467 8.53933 9.17608C8.49109 9.11818 8.43802 9.05546 8.40425 8.99757C8.49591 8.88661 8.6117 8.79494 8.74196 8.68398L8.8867 8.54407C9.46563 8.04715 9.53318 7.48268 9.0845 6.86515C9.00248 6.75419 8.95906 6.62875 8.95906 6.48884C8.93012 5.30202 8.00382 4.24063 6.84594 4.0766C5.97753 3.94151 5.1236 4.18756 4.36133 4.7858C3.61354 5.36956 3.31925 6.24762 3.5074 7.33312C3.63284 8.21118 3.9609 9.42212 5.36965 9.84668L5.3793 9.8515C5.42754 9.87562 5.50956 9.91422 5.55298 10.1844L5.635 10.7489C5.64947 10.826 5.65912 10.9081 5.67359 10.9901C5.68806 11.0817 5.70254 11.1782 5.71701 11.2603C5.8521 12.1287 6.18499 12.7365 6.7591 13.1756C7.38146 13.6677 8.25469 13.9378 9.20994 13.9378C10.0735 13.9378 10.8985 13.7014 11.4726 13.2817C12.3073 12.6979 12.6015 11.844 12.2735 10.9418C12.2445 10.8453 12.1866 10.7682 12.1046 10.7247C12.013 10.6717 11.8972 10.662 11.7862 10.6958C11.5836 10.7537 11.4726 10.966 11.5402 11.1879C11.7524 11.7958 11.5884 12.2782 11.0481 12.669C10.0446 13.3782 8.22574 13.3444 7.2319 12.587C6.83629 12.2734 6.60472 11.8344 6.46963 11.1638L6.38761 10.6813C6.37314 10.5848 6.35867 10.4835 6.34902 10.3822C6.33455 10.2809 6.32007 10.1796 6.31042 10.0831C6.19946 9.47519 5.86657 9.24362 5.60605 9.15678C4.80519 8.93003 4.4144 8.38004 4.25519 7.2704C4.12493 6.42612 4.30344 5.85201 4.82931 5.4564C5.40825 4.9836 6.0499 4.79545 6.73015 4.90159C7.51172 5.00772 8.16785 5.75552 8.19679 6.57568C8.19679 6.92304 8.28846 7.19804 8.47661 7.41514C8.66959 7.65636 8.68889 7.78662 8.39942 8.05197L8.29328 8.15811C8.13408 8.29319 7.96522 8.45723 7.83013 8.62126C7.6661 8.80941 7.62268 9.09406 7.71435 9.34011C7.78189 9.52344 7.90733 9.66817 8.02794 9.80808C8.05206 9.83703 8.07618 9.86598 8.1003 9.89492C8.31741 10.141 8.48144 10.3002 8.64547 10.4401C9.11827 10.8309 9.81782 10.8019 10.556 10.3629C10.6573 10.3098 10.7538 10.2375 10.8406 10.1699C10.8985 10.1265 10.9564 10.0783 11.0191 10.0348C11.1301 9.95282 11.2169 9.86598 11.27 9.78878C11.5257 9.50896 11.6077 9.48484 11.9116 9.58616C12.0709 9.65852 12.2301 9.74054 12.3941 9.82738C12.4809 9.8708 12.5678 9.91904 12.6594 9.96247L12.8186 10.0445C13.2577 10.2905 13.6388 10.141 13.9186 10.03L13.9427 10.0204C14.0441 9.96729 14.1454 9.94317 14.2515 9.91904C14.3528 9.90457 14.4445 9.8515 14.4976 9.76949C14.5506 9.69229 14.5748 9.59098 14.5603 9.48484C14.5313 9.26774 14.3528 9.13748 14.1309 9.16643Z" fill="#393939"/>
<path d="M8.99753 0.554688C4.3419 0.554688 0.554688 4.3419 0.554688 8.99753C0.554688 13.6532 4.3419 17.4404 8.99753 17.4404C13.6531 17.4404 17.4404 13.6532 17.4404 8.99753C17.4452 4.3419 13.6531 0.554688 8.99753 0.554688ZM8.99753 16.6733C4.76646 16.6733 1.32178 13.2286 1.32178 8.99753C1.32178 4.76646 4.76646 1.32178 8.99753 1.32178C10.551 1.32178 12.0369 1.78493 13.3058 2.66781C12.4374 2.77877 11.5545 3.01035 10.8694 3.80156C10.1313 4.69892 10.1313 5.7796 10.1313 6.82169V6.92783C10.1313 7.03396 10.1313 7.14493 10.1361 7.25107C10.1409 7.57913 10.1458 7.8879 10.1072 8.18219C10.0782 8.39447 10.2229 8.58262 10.4497 8.61639H10.4786C10.6716 8.61639 10.8501 8.45236 10.8501 8.27868C10.8887 7.93132 10.8839 7.58395 10.8791 7.25107C10.8791 7.1401 10.8742 7.03396 10.8742 6.91818C10.8501 5.94846 10.8212 5.0318 11.4291 4.32261C12.0418 3.60858 12.9102 3.48315 13.9764 3.39631C14.0102 3.39631 14.0343 3.38666 14.0584 3.38183C14.0729 3.37701 14.0825 3.37218 14.0922 3.37218C15.7325 4.77128 16.6684 6.82169 16.6684 9.00235C16.6733 13.2334 13.2334 16.6733 8.99753 16.6733Z" fill="#393939"/>
</g>
<defs>
<clipPath id="clip0_3202_3662">
<rect width="16.8905" height="16.8905" fill="white" transform="translate(0.554688 0.554688)"/>
</clipPath>
</defs>
</svg>
