<svg width="18" height="18" viewBox="0 0 18 18" fill="none" xmlns="http://www.w3.org/2000/svg">
<g clip-path="url(#clip0_3202_8402)">
<path d="M17.5081 10.5875C17.3923 10.5489 17.2765 10.5055 17.1607 10.4621C17.1125 10.4428 17.069 10.4283 17.0208 10.409L16.9484 10.38C16.9484 10.38 16.9243 10.3704 16.905 10.3607C16.7361 10.2884 16.5818 10.216 16.437 10.1436C16.384 10.1147 16.3309 10.0857 16.2778 10.052C16.2633 10.0423 16.244 10.0327 16.2247 10.0182L16.2054 10.0086C16.2006 10.0037 16.1958 10.0037 16.191 9.9989C16.162 9.97478 16.1331 9.94583 16.0945 9.90241C16.0897 9.89759 16.0848 9.88794 16.08 9.88311C16.0704 9.87347 16.0655 9.85899 16.0559 9.84934C16.0366 9.8204 16.0221 9.79145 16.0076 9.7625L15.9546 9.57917C15.9546 9.57435 15.9546 9.57435 15.9546 9.56952C15.9546 9.45374 15.9546 9.33795 15.9594 9.22216C15.9642 9.1112 15.9642 9.00506 15.9642 8.8941C15.9642 8.70594 15.9546 8.52261 15.9401 8.33446C15.9112 7.95815 15.8581 7.58666 15.7857 7.22965C15.5011 5.81608 14.8546 4.55206 13.9283 3.57269C12.9827 2.57885 11.7187 1.8986 10.3582 1.65738C8.89154 1.39685 7.35735 1.58018 5.90518 2.17842C6.08851 1.86483 6.19948 1.58018 6.2429 1.30036C6.27184 1.11703 6.19465 0.909581 5.9872 0.861337C5.88589 0.837214 5.76527 0.861337 5.67843 0.91923C5.60607 0.967475 5.55782 1.03984 5.54335 1.12186C5.52887 1.21352 5.49993 1.32449 5.45651 1.4451L5.44686 1.46922C5.43721 1.48852 5.43238 1.50782 5.42756 1.52711L5.41791 1.55124C5.38896 1.61396 5.36002 1.67185 5.33107 1.72974C5.27318 1.84071 5.20563 1.94684 5.12844 2.05298C5.09467 2.10123 5.0609 2.14947 5.0223 2.20254C5.01748 2.20737 5.01265 2.21219 5.00783 2.21702L4.99336 2.23631C4.96923 2.26526 4.94511 2.29421 4.92581 2.31833C4.67494 2.6271 4.38065 2.92621 4.02364 3.23016L4.00916 3.24463C3.96574 3.28323 3.92232 3.317 3.87408 3.35559C3.86925 3.35559 3.86925 3.36042 3.86443 3.36042C3.84513 3.37971 3.83548 3.38936 3.82101 3.39901L3.81618 3.40384C3.81136 3.40866 3.81136 3.40866 3.81136 3.41349C3.12628 3.9683 2.52805 4.62443 2.06972 5.35293C1.98288 5.49284 1.89604 5.63757 1.81885 5.78713C1.00834 6.39984 0.453521 7.34544 0.289489 8.40682C0.110983 9.55987 0.352207 10.7226 0.950442 11.6103C1.26886 12.0831 1.67411 12.469 2.13244 12.7344C2.58112 13.4195 3.14558 14.0418 3.79689 14.5725C3.79689 14.5725 3.79689 14.5773 3.80171 14.5773C3.80653 14.587 3.81618 14.5918 3.82101 14.6015C3.82101 14.6015 3.82583 14.6063 3.83066 14.6063C3.84031 14.6159 3.84996 14.6208 3.8596 14.6304C3.8982 14.6642 3.94162 14.6931 3.98022 14.7317C4.11048 14.8379 4.23591 14.9536 4.371 15.0887C4.5495 15.2624 4.71354 15.4361 4.85827 15.6049L4.89204 15.6484C4.91617 15.6821 4.94511 15.7111 4.96923 15.74C4.97406 15.7497 4.98371 15.7593 4.99336 15.769C4.99818 15.7738 4.99818 15.7786 5.00301 15.7786C5.01265 15.7931 5.0223 15.8076 5.03678 15.822C5.04643 15.8365 5.05608 15.851 5.06572 15.8655C5.14774 15.9813 5.21528 16.0826 5.278 16.1887C5.31177 16.2514 5.35037 16.3141 5.37932 16.372L5.39861 16.4155C5.40826 16.4299 5.41309 16.4492 5.42274 16.4637C5.42274 16.4685 5.42756 16.4734 5.42756 16.4782C5.43238 16.4878 5.43721 16.5023 5.44203 16.5119C5.49028 16.6422 5.52887 16.7676 5.54817 16.8883C5.56265 16.9703 5.61089 17.0475 5.69291 17.0957C5.75562 17.1391 5.83282 17.1584 5.90518 17.1584C5.93413 17.1584 5.96308 17.1536 5.99202 17.1488C6.18018 17.1005 6.28149 16.922 6.24772 16.7098C6.19465 16.3865 6.05957 16.0826 5.90036 15.8124C6.50342 16.0633 7.1306 16.2514 7.76743 16.3527C8.20164 16.4203 8.63102 16.4541 9.05557 16.4541C9.83231 16.4541 10.5849 16.3383 11.27 16.1115C12.3169 15.7642 13.2529 15.1611 13.991 14.3699C14.1743 14.1721 14.348 13.955 14.5169 13.7282C14.5941 13.6221 14.6664 13.5159 14.7388 13.405C14.7678 13.3616 14.7919 13.3181 14.8208 13.2747L14.8449 13.241C14.8546 13.2265 14.8642 13.212 14.8739 13.1975C14.8932 13.1782 14.9125 13.1589 14.9318 13.1396L14.9559 13.1155C14.9752 13.101 14.9945 13.0914 15.0235 13.0769C15.0379 13.0673 15.0572 13.0624 15.0669 13.0528C15.0862 13.0431 15.1103 13.0383 15.1344 13.0335C15.2116 13.0142 15.2936 13.0142 15.366 13.0335L15.4094 13.048C15.4142 13.048 15.4191 13.0528 15.4239 13.0528C15.4432 13.0624 15.4673 13.0721 15.4914 13.0866L15.5541 13.1155C15.6072 13.1445 15.6651 13.1734 15.7182 13.2024C15.834 13.2603 15.9498 13.323 16.0655 13.3857C16.1283 13.4195 16.1958 13.4532 16.2585 13.4918L16.2971 13.5111C16.4708 13.6124 16.6927 13.5497 16.7892 13.3809C16.8375 13.2988 16.8519 13.2024 16.8278 13.1059C16.8037 13.0094 16.7458 12.9322 16.6638 12.8888L16.5094 12.8019C16.2392 12.6475 15.9594 12.4932 15.6748 12.3774C15.2647 12.2182 14.7678 12.3147 14.43 12.6234C14.3191 12.7247 14.2371 12.855 14.1599 12.9804C14.1309 13.0239 14.102 13.0721 14.073 13.1155C14.02 13.1927 13.9717 13.2699 13.9138 13.3423C13.8897 13.3712 13.8704 13.405 13.8415 13.4388C13.8318 13.4484 13.8222 13.4581 13.8173 13.4677V13.4725C13.8125 13.4774 13.8077 13.487 13.8029 13.4918L13.7787 13.5208C13.552 13.8054 13.2963 14.0708 13.0261 14.312C12.9634 14.3651 12.9007 14.4181 12.838 14.4712C12.8187 14.4857 12.7994 14.5001 12.7849 14.5146L12.7704 14.5243C12.7318 14.5532 12.6884 14.5822 12.6498 14.6111C12.5147 14.7124 12.3652 14.8089 12.206 14.9054C12.0467 15.0019 11.8827 15.0887 11.7187 15.1659C11.6753 15.1852 11.6367 15.2045 11.5788 15.2286C11.5691 15.2335 11.5546 15.2383 11.5354 15.2479C11.5305 15.2528 11.5064 15.2624 11.4919 15.2672H11.4871C11.4051 15.301 11.3231 15.3348 11.2411 15.3637C10.884 15.494 10.5126 15.5905 10.1363 15.6532C10.1121 15.658 10.088 15.6628 10.0687 15.6628L10.0156 15.6725C9.98187 15.6725 9.95775 15.6773 9.94327 15.6821H9.93845C9.9288 15.6821 9.91915 15.687 9.9095 15.687C9.80819 15.7014 9.70687 15.7111 9.60556 15.7159C9.39328 15.7352 9.18583 15.74 8.9832 15.74C8.77575 15.74 8.5683 15.7256 8.36567 15.7111C8.12927 15.6918 8.02313 15.6725 7.80603 15.6339C7.42972 15.5664 7.04376 15.4699 6.65298 15.3396C6.25255 15.2045 5.95343 15.0743 5.58194 14.8813C5.22493 14.6979 4.88722 14.4857 4.5688 14.2589C4.27451 14.0466 3.97539 13.7909 3.70522 13.5256C3.57014 13.3953 3.43505 13.2458 3.29996 13.0914C3.23725 13.019 3.17935 12.9467 3.11663 12.8743L3.03462 12.773C3.00567 12.7392 2.98155 12.7054 2.95743 12.6668L2.9333 12.6379C2.88988 12.58 2.84646 12.5173 2.80304 12.4546C2.78857 12.4353 2.7741 12.4111 2.76445 12.3918C2.70173 12.2954 2.63901 12.1989 2.52805 12.1361C2.45086 12.0927 2.38331 12.0493 2.31577 12.0059C2.27717 11.9818 2.2434 11.9528 2.20963 11.9287C2.20481 11.9239 2.19998 11.9239 2.19516 11.919L2.19033 11.9142C2.18551 11.9094 2.17586 11.9046 2.17104 11.8949L2.14691 11.8756C2.007 11.7598 1.87674 11.6344 1.76578 11.4993C1.73683 11.4655 1.70789 11.4269 1.67894 11.3932L1.67411 11.3884L1.62587 11.3208C1.57762 11.2533 1.52456 11.1761 1.47149 11.0892C1.42324 11.012 1.37982 10.9349 1.34123 10.8528C1.32193 10.8142 1.30263 10.7756 1.28333 10.737L1.23991 10.6454C1.23991 10.6406 1.23509 10.6357 1.23509 10.6357L1.23026 10.6261C1.15307 10.4331 1.09518 10.2498 1.05176 10.0761C1.02763 9.98925 1.01316 9.90241 0.993863 9.81075L0.974565 9.69014C0.974565 9.68531 0.974565 9.68531 0.974565 9.68049V9.66119C0.96974 9.62259 0.964916 9.57917 0.960091 9.53575C0.940793 9.33312 0.940793 9.12085 0.950442 8.90374L0.96974 8.68182C0.96974 8.66735 0.974565 8.64805 0.974565 8.6384V8.62392C0.989038 8.53708 1.00351 8.44059 1.02763 8.33446C1.07105 8.14148 1.12895 7.94367 1.20132 7.76034C1.20614 7.75069 1.21096 7.74104 1.21579 7.7314C1.22061 7.72175 1.22061 7.7121 1.22544 7.70245C1.23026 7.6928 1.23026 7.68798 1.23509 7.67833L1.23991 7.66385C1.25438 7.63008 1.26886 7.59631 1.28816 7.55771C1.33158 7.46605 1.37982 7.37921 1.43289 7.28754C1.47631 7.21035 1.52938 7.13316 1.57762 7.06079C1.60175 7.02702 1.62587 6.99325 1.64999 6.95948L1.71753 6.87264C1.83815 6.7279 1.96841 6.59282 2.10349 6.47703C2.12279 6.46256 2.14209 6.44326 2.15656 6.42879L2.20481 6.39019L2.27235 6.34195C2.36884 6.26958 2.42191 6.16826 2.47498 6.07177C2.48463 6.05248 2.4991 6.02835 2.50875 6.00906C2.69208 5.70029 2.92365 5.35293 3.12628 5.10688C3.36268 4.81259 3.62803 4.53277 3.91267 4.27224C4.06223 4.13716 4.21179 4.0069 4.36135 3.89111C4.41442 3.84769 4.45784 3.81392 4.54468 3.7512C4.63152 3.68848 4.71354 3.63059 4.80038 3.57269C5.12844 3.35559 5.47098 3.15779 5.81352 2.99376L5.83764 2.98411C5.91483 2.95034 5.99202 2.91174 6.06922 2.87797L6.12229 2.85385C6.13193 2.84902 6.14641 2.8442 6.15606 2.83937L6.21395 2.81525C6.23807 2.8056 6.26702 2.79113 6.29597 2.78148C6.47447 2.71394 6.66263 2.64639 6.86043 2.58368C7.23674 2.46789 7.63235 2.38105 8.02313 2.32315C8.03278 2.32315 8.04725 2.31833 8.0569 2.31833C8.07137 2.31833 8.08102 2.31351 8.09067 2.31351L8.24023 2.29421C8.34637 2.28456 8.45251 2.27491 8.55382 2.27008C8.7661 2.25561 8.95425 2.25079 9.13758 2.25561C9.32092 2.25561 9.50907 2.27008 9.68758 2.28456C9.74547 2.28938 9.78407 2.29421 9.83231 2.29903L9.88538 2.30386C9.89985 2.30868 9.9095 2.30868 9.92398 2.30868L9.98669 2.31833C9.99634 2.31833 10.006 2.32315 10.0156 2.32315L10.0301 2.32798C10.0784 2.3328 10.1266 2.34245 10.17 2.3521C10.5029 2.40999 10.831 2.49684 11.1542 2.6078C11.2266 2.63192 11.3038 2.66087 11.381 2.68981L11.434 2.70911C11.4437 2.71394 11.4533 2.71876 11.463 2.71876L11.5643 2.76218C11.7235 2.83455 11.8682 2.90692 12.0082 2.98411C12.1481 3.0613 12.2928 3.14814 12.4279 3.2398C12.4761 3.26875 12.5195 3.30252 12.5678 3.33629L12.7077 3.43761C12.7173 3.44726 12.7318 3.45208 12.7415 3.46173L12.7511 3.46656C12.7511 3.46656 12.7559 3.46656 12.7559 3.47138L12.7945 3.50033C13.0309 3.68848 13.2577 3.90076 13.4748 4.13716C13.5761 4.24812 13.6822 4.36873 13.7932 4.50864C13.8029 4.51829 13.8077 4.52794 13.8173 4.53759C13.8173 4.54241 13.8222 4.54241 13.8222 4.54724C13.827 4.55206 13.8318 4.55689 13.8366 4.56654L13.9042 4.6582C13.9428 4.70645 13.9765 4.75952 14.0103 4.81259L14.0489 4.87048C14.2226 5.131 14.3866 5.42047 14.5362 5.72441C14.5651 5.78713 14.5989 5.85467 14.623 5.91739L14.6327 5.94634C14.6375 5.95599 14.6423 5.97046 14.652 5.98976L14.7099 6.12967C14.7726 6.28888 14.8305 6.45291 14.8787 6.61212C14.98 6.93536 15.062 7.28272 15.1248 7.63491C15.1392 7.71692 15.1489 7.79411 15.1634 7.87131C15.1634 7.87613 15.1634 7.88095 15.1682 7.88578C15.1682 7.89543 15.1682 7.90508 15.173 7.91955L15.1827 7.98709C15.1875 8.02569 15.1923 8.06428 15.1971 8.09806C15.2164 8.30068 15.2309 8.46954 15.2357 8.62875C15.2454 8.85068 15.2454 9.0533 15.2406 9.25111V9.26558C15.2357 9.48751 15.2261 9.71908 15.3129 9.94101C15.3998 10.1726 15.5397 10.3752 15.7134 10.5199C15.8533 10.6357 16.0076 10.7177 16.1572 10.7949C16.4804 10.959 16.8375 11.1085 17.3151 11.2726C17.3971 11.3015 17.4984 11.2919 17.5853 11.2436C17.6769 11.1954 17.7445 11.1085 17.7638 11.0169C17.8024 10.8287 17.701 10.655 17.5081 10.5875Z" fill="#393939"/>
<path d="M6.24785 7.40834C6.12242 7.09475 5.91014 6.64607 5.54348 6.34695C5.20576 6.07196 4.81981 6.01889 4.51104 6.20222C4.14438 6.42414 3.96587 6.87282 3.86456 7.19124C3.71982 7.63991 3.64263 8.16578 3.62816 8.80261C3.60886 9.41532 3.65711 9.98943 3.77289 10.5008C3.84526 10.8337 3.97552 11.3162 4.28911 11.6635C4.46279 11.8565 4.68472 11.9578 4.92112 11.9578C5.04656 11.9578 5.18164 11.9289 5.30708 11.8662C5.63997 11.7118 5.92944 11.3692 6.16584 10.8578C6.42636 10.2934 6.55662 9.67584 6.56144 9.02936C6.56144 9.01489 6.56144 9.00524 6.56144 8.99077C6.54697 8.4263 6.44083 7.88114 6.24785 7.40834ZM5.08033 11.1618C5.0755 11.1666 5.06585 11.1714 5.0562 11.1811C5.03208 11.1956 5.01278 11.21 4.99349 11.2197L4.97901 11.2293C4.97901 11.2293 4.97901 11.2293 4.97419 11.2293L4.93077 11.2438C4.92112 11.239 4.90665 11.239 4.897 11.239H4.89217C4.88252 11.2341 4.8777 11.2293 4.86805 11.2245L4.83428 11.1907C4.82463 11.1811 4.81498 11.1714 4.80533 11.1618C4.79568 11.1473 4.78603 11.1377 4.77639 11.128C4.77156 11.1184 4.76674 11.1135 4.76191 11.1039L4.75226 11.0894C4.73296 11.0556 4.70884 11.017 4.68954 10.9833C4.67025 10.9495 4.65577 10.9206 4.6413 10.882C4.6413 10.8771 4.63165 10.8627 4.62683 10.853L4.61235 10.8192C4.57858 10.7324 4.54963 10.6407 4.52069 10.5346C4.46279 10.332 4.4242 10.1245 4.40008 9.91707C4.40008 9.89777 4.39525 9.87847 4.39043 9.864V9.83987C4.3856 9.81575 4.3856 9.79163 4.38078 9.76268C4.37595 9.71444 4.37113 9.66619 4.37113 9.61795V9.589C4.36148 9.45874 4.35666 9.32848 4.35183 9.19822C4.34701 8.92322 4.35183 8.65788 4.37595 8.407C4.38078 8.35394 4.3856 8.29604 4.39043 8.23815L4.40008 8.13683C4.40008 8.12718 4.40008 8.12236 4.40008 8.11271C4.40008 8.10789 4.40008 8.10789 4.40008 8.10306C4.41937 7.9728 4.43867 7.85701 4.46279 7.75087C4.50139 7.56754 4.55446 7.38421 4.62683 7.19124C4.62683 7.19124 4.62683 7.18641 4.63165 7.18159L4.65577 7.12852C4.67025 7.09475 4.68472 7.0658 4.70402 7.03203C4.71849 7.00308 4.73779 6.97413 4.75709 6.94519L4.76674 6.93071C4.77638 6.92106 4.78603 6.90659 4.79086 6.89694L4.80533 6.88247C4.81981 6.868 4.83428 6.8487 4.8584 6.8294C4.8584 6.8294 4.86323 6.82457 4.86805 6.82457C4.8777 6.81975 4.88252 6.81493 4.89217 6.8101L4.90182 6.80528C4.91147 6.80528 4.91629 6.80045 4.92594 6.80045C4.94042 6.80528 4.95972 6.8101 4.97901 6.81493C4.98866 6.81975 4.99349 6.82457 4.99831 6.8294C5.01278 6.83905 5.02726 6.8487 5.04173 6.85835C5.04656 6.86317 5.05138 6.86317 5.05138 6.86799C5.06103 6.87764 5.07068 6.88247 5.08033 6.89212C5.0948 6.90177 5.1141 6.91624 5.11892 6.92106C5.17682 6.97413 5.22989 7.03685 5.27331 7.0851C5.27331 7.0851 5.27331 7.0851 5.27331 7.08992C5.27813 7.09957 5.28778 7.10922 5.2926 7.11404C5.30708 7.13334 5.31673 7.15264 5.3312 7.17194C5.35532 7.21053 5.37945 7.2443 5.39874 7.2829L5.41322 7.30702C5.46629 7.39869 5.51453 7.49518 5.56278 7.60614L5.6062 7.71228C5.62549 7.76535 5.64479 7.82324 5.66409 7.88114C5.70269 7.99692 5.73163 8.11754 5.76058 8.23815C5.81365 8.50349 5.83777 8.73507 5.83777 9.02936C5.83777 9.51181 5.75575 9.93636 5.59172 10.3706L5.55795 10.4526L5.50006 10.578C5.45181 10.6745 5.40357 10.7614 5.34567 10.8482C5.32638 10.8771 5.30708 10.9109 5.28296 10.9399C5.27331 10.9543 5.25883 10.9688 5.24918 10.9833L5.24436 10.9881C5.19612 11.046 5.14305 11.1039 5.08515 11.1521C5.08515 11.157 5.08515 11.157 5.08033 11.1618Z" fill="#393939"/>
<path d="M11.1013 3.53898C10.0013 3.08065 8.69869 2.96969 7.43468 3.22539C6.21408 3.47143 5.03691 4.0745 4.11544 4.92843C3.17949 5.79683 2.54266 6.90646 2.32555 8.05469C2.06986 9.42967 2.36897 10.8432 3.17466 12.0349C3.85974 13.048 4.87288 13.8827 6.02111 14.3844C6.90881 14.7752 7.85441 14.973 8.80001 14.973C9.16184 14.973 9.52368 14.944 9.88069 14.8862C11.1351 14.6787 12.2929 14.0563 13.142 13.1252C13.3495 12.9033 13.5425 12.6572 13.7403 12.3726C13.7499 12.3581 13.7596 12.3437 13.7644 12.3244C14.3964 11.3209 14.7341 10.1919 14.7438 9.06301C14.7534 7.86654 14.4012 6.67971 13.7596 5.70999C13.1131 4.7451 12.1964 3.99248 11.1013 3.53898ZM10.8745 13.9164C10.8601 13.8875 10.8745 13.8537 10.8938 13.8441L10.918 13.8971C10.9035 13.902 10.889 13.9116 10.8745 13.9164ZM9.61052 14.1963L9.5864 14.2011C9.5671 14.2011 9.53815 14.2059 9.49955 14.2107C9.42719 14.2204 9.35 14.2252 9.27763 14.23H9.26316C9.10877 14.2397 8.94956 14.2493 8.78553 14.2493C8.61185 14.2493 8.46712 14.2445 8.33203 14.2348C8.26449 14.23 8.19695 14.2252 8.1294 14.2156C8.09081 14.2107 8.05221 14.2059 8.01361 14.2011C8.00879 14.2011 8.00397 14.2011 7.99914 14.2011L7.9509 14.1914C7.65178 14.148 7.35749 14.0853 7.08249 14.0033C6.92328 13.955 6.7882 13.9116 6.66276 13.8634C6.59522 13.8392 6.5325 13.8151 6.46496 13.7862C6.45531 13.7813 6.44566 13.7765 6.43601 13.7717C6.43119 13.7717 6.42636 13.7669 6.42154 13.7669L6.39741 13.7572C6.38777 13.7524 6.37329 13.7476 6.35882 13.7379C6.33952 13.7283 6.3154 13.7186 6.30092 13.7138C6.0404 13.598 5.77988 13.4581 5.52901 13.3037C5.42287 13.2362 5.30708 13.159 5.17682 13.0673C5.11893 13.0287 5.06586 12.9853 5.00796 12.9419L4.95007 12.8936L4.93077 12.8792C4.91147 12.8647 4.89218 12.8454 4.87288 12.8309C4.65095 12.6476 4.4435 12.4498 4.25052 12.2423C4.16368 12.1458 4.07202 12.0397 3.97553 11.9191C3.9707 11.9143 3.96588 11.9095 3.96105 11.9046L3.75842 11.62C3.59922 11.3836 3.46413 11.1424 3.35317 10.9011C3.33869 10.8674 3.32422 10.8384 3.30975 10.8046C3.30492 10.795 3.3001 10.7853 3.29527 10.7757C3.29527 10.7709 3.29045 10.766 3.29045 10.7612C3.2615 10.6889 3.23738 10.6213 3.20843 10.5489C3.16501 10.4332 3.12642 10.3077 3.08782 10.163C3.00098 9.83975 2.95274 9.53581 2.94309 9.21257C2.91896 8.58056 3.0251 7.95338 3.26633 7.34549C3.27598 7.32137 3.28563 7.29242 3.29527 7.2683L3.3001 7.25865C3.30492 7.25383 3.30492 7.24418 3.30975 7.23935C3.30975 7.23453 3.31457 7.22971 3.3194 7.22006C3.34834 7.15251 3.37729 7.0898 3.41106 7.02225C3.46896 6.90164 3.5365 6.78103 3.60887 6.65559C3.67158 6.54463 3.74878 6.42884 3.84044 6.3034C3.86939 6.25998 3.89833 6.22139 3.93211 6.17797L4.06719 6.00911C4.24087 5.79683 4.43385 5.59421 4.65578 5.39158C4.75709 5.29991 4.86323 5.20825 4.98867 5.11176C4.99832 5.10693 5.00314 5.10211 5.00796 5.09728C5.01761 5.08764 5.02244 5.08281 5.02726 5.07799C5.05138 5.05869 5.07551 5.03939 5.10445 5.02009C5.16235 4.97667 5.22507 4.93325 5.28778 4.88983C5.51936 4.73062 5.77023 4.58107 6.0404 4.44598C6.10312 4.41221 6.16584 4.38326 6.23338 4.35431C6.26233 4.33984 6.29128 4.32537 6.32505 4.31089L6.39741 4.28195C6.54697 4.21923 6.68206 4.17098 6.81232 4.12274C7.08732 4.03107 7.37678 3.95388 7.66625 3.89599L7.97502 3.84292C7.98467 3.84292 7.98949 3.84292 7.99914 3.8381L8.04256 3.83327C8.1873 3.8188 8.33686 3.80432 8.50571 3.79467C8.79036 3.78503 9.08465 3.78985 9.36929 3.8188L9.52368 3.83327C9.59604 3.84292 9.66359 3.85739 9.73595 3.86704C9.88069 3.89599 10.0158 3.92494 10.1412 3.95871C10.2618 3.98765 10.3921 4.02625 10.5368 4.07449C10.5947 4.09379 10.6526 4.11309 10.7105 4.13721L10.8552 4.19511C10.8552 4.19511 10.8601 4.19511 10.8649 4.19993H10.8697C11.1206 4.31089 11.3473 4.42668 11.5693 4.56177C11.6802 4.62931 11.7864 4.70168 11.8973 4.78369C11.9263 4.80299 11.9504 4.82229 11.9793 4.84159C11.9842 4.84641 12.0035 4.86089 12.0131 4.87053C12.0469 4.89466 12.0807 4.9236 12.1144 4.95255L12.1675 4.99597C12.3653 5.16 12.5535 5.34816 12.7271 5.54114C12.7657 5.58938 12.8091 5.63763 12.8477 5.68587L12.8622 5.70517C12.8767 5.71964 12.8912 5.73894 12.9008 5.75341C12.9056 5.76306 12.9153 5.76789 12.9201 5.77754C12.9201 5.78236 12.9249 5.78236 12.9249 5.78719L12.9346 5.79683C12.9346 5.80166 12.9394 5.80166 12.9442 5.80648C13.0214 5.91262 13.0986 6.01876 13.171 6.12972C13.3109 6.35165 13.4412 6.5784 13.5473 6.80998L13.6052 6.93541C13.6052 6.94024 13.61 6.94506 13.61 6.94988V6.95471C13.6341 7.0126 13.6583 7.0705 13.6776 7.12839C13.721 7.24418 13.7644 7.36961 13.803 7.50952C13.8416 7.63979 13.8754 7.77005 13.9043 7.90031C13.9188 7.96785 13.9284 8.03057 13.9429 8.09811C13.9477 8.11258 13.9477 8.12706 13.9477 8.14153C13.9526 8.15601 13.9526 8.1753 13.9574 8.18495C13.9574 8.1946 13.9622 8.20907 13.9622 8.21872L13.967 8.24285C13.967 8.24767 13.9718 8.26697 13.9718 8.27662V8.28144C13.9718 8.29109 13.9718 8.30074 13.9767 8.31039L13.9911 8.44547C13.996 8.49372 14.0008 8.54196 14.0056 8.58538L14.0104 8.65775C14.0201 8.80731 14.0201 8.94722 14.0201 9.08713C14.0201 9.17879 14.0153 9.27046 14.0104 9.36213C14.0104 9.39107 14.0104 9.42002 14.0056 9.44897C14.0056 9.50204 14.0056 9.56475 13.996 9.613C13.9863 9.62747 13.9863 9.64677 13.9815 9.66124L13.9622 9.77221C13.9091 10.0906 13.8416 10.3704 13.7644 10.6261C13.6727 10.9156 13.5569 11.1906 13.364 11.5476C13.3061 11.6923 13.2241 11.8371 13.1276 11.9915L13.1034 12.0301C13.0697 12.0783 13.0359 12.1266 13.0021 12.17C12.9828 12.1989 12.9635 12.223 12.9394 12.252L12.9298 12.2665C12.9249 12.2713 12.9249 12.2761 12.9201 12.2761C12.9105 12.2858 12.9008 12.3002 12.8912 12.3099C12.8043 12.4208 12.7078 12.5318 12.6017 12.6428C12.4956 12.7586 12.3942 12.855 12.2929 12.9467C12.2399 12.995 12.1916 13.0384 12.1385 13.0818C12.1144 13.1011 12.0903 13.1204 12.0614 13.1445C12.0469 13.1542 12.0372 13.1638 12.0228 13.1735C12.0131 13.1783 12.0035 13.1879 11.9938 13.1928C11.9938 13.1928 11.9938 13.1928 11.989 13.1976C11.7622 13.3713 11.521 13.5208 11.2846 13.6463C11.1592 13.7138 11.0386 13.7717 10.9131 13.8199C10.9083 13.8199 10.9035 13.8248 10.8987 13.8248L10.7587 13.8778C10.6912 13.902 10.6188 13.9309 10.5465 13.955C10.2811 14.0419 9.99165 14.1142 9.67806 14.1625C9.64911 14.1866 9.62982 14.1914 9.61052 14.1963ZM10.8649 4.2144C10.8697 4.2144 10.8697 4.2144 10.8745 4.2144C10.8745 4.2144 10.8697 4.2144 10.8649 4.2144Z" fill="#393939"/>
<path d="M5.08009 11.1372C5.07526 11.142 5.06562 11.1469 5.05597 11.1565C5.03184 11.171 5.01255 11.1855 4.99325 11.1951L4.97878 11.2048C4.97878 11.2048 4.97878 11.2048 4.97395 11.2048L4.93053 11.2192C4.92088 11.2144 4.91123 11.2144 4.89676 11.2144H4.89193C4.88229 11.2096 4.87746 11.2048 4.86781 11.1999L4.83887 11.1662C4.82922 11.1565 4.81957 11.1469 4.80992 11.1372C4.80027 11.1227 4.79062 11.1131 4.78097 11.1034C4.77615 11.0938 4.77132 11.089 4.7665 11.0793L4.75685 11.0648C4.73755 11.0311 4.71343 10.9925 4.69413 10.9587C4.67483 10.9249 4.66036 10.896 4.64589 10.8574C4.64589 10.8526 4.63624 10.8381 4.63141 10.8284L4.61694 10.7947C4.58317 10.7078 4.55422 10.6162 4.52527 10.51C4.46738 10.3074 4.42878 10.0999 4.40466 9.89249C4.40466 9.8732 4.39984 9.8539 4.39501 9.83942V9.8153C4.39019 9.79118 4.39019 9.76706 4.38536 9.73811C4.38054 9.68987 4.37572 9.64162 4.37572 9.59338V9.56443C4.36607 9.43417 4.36124 9.30391 4.35642 9.17365C4.35159 8.89865 4.35642 8.6333 4.38054 8.38243C4.38536 8.32936 4.39019 8.27147 4.39501 8.21357L4.40466 8.11226C4.40466 8.10261 4.40466 8.09779 4.40466 8.08814C4.40466 8.08331 4.40466 8.08331 4.40466 8.07849C4.42396 7.94823 4.44326 7.83244 4.46738 7.7263C4.50598 7.54297 4.55905 7.35964 4.63141 7.16666C4.63141 7.16666 4.63141 7.16184 4.63624 7.15701L4.66036 7.10394C4.67483 7.07017 4.68931 7.04123 4.7086 7.00745C4.72308 6.97851 4.74238 6.94956 4.76167 6.92061L4.77132 6.90614C4.78097 6.89649 4.79062 6.88202 4.79545 6.87237L4.80992 6.8579C4.82439 6.84342 4.83887 6.82412 4.86299 6.80483C4.86299 6.80483 4.86781 6.8 4.87264 6.8C4.88229 6.79518 4.88711 6.79035 4.89676 6.78553L4.90641 6.7807C4.91606 6.7807 4.92088 6.77588 4.93053 6.77588C4.945 6.7807 4.9643 6.78553 4.9836 6.79035C4.99325 6.79518 4.99807 6.8 5.0029 6.80483C5.01737 6.81447 5.03184 6.82412 5.04632 6.83377C5.05114 6.8386 5.05597 6.8386 5.05597 6.84342C5.06562 6.85307 5.07526 6.85789 5.08491 6.86754C5.09939 6.87719 5.11869 6.89167 5.12351 6.89649C5.1814 6.94956 5.23447 7.01228 5.27789 7.06052C5.27789 7.06052 5.27789 7.06052 5.27789 7.06535C5.28272 7.075 5.29237 7.08465 5.29719 7.08947C5.31166 7.10877 5.32131 7.12807 5.33579 7.14736C5.35991 7.18596 5.38403 7.21973 5.40333 7.25833L5.4178 7.28245C5.47087 7.37411 5.51912 7.4706 5.56736 7.58157L5.61078 7.68771C5.63008 7.74077 5.64938 7.79867 5.66868 7.85656C5.70727 7.97235 5.73622 8.09296 5.76517 8.21357C5.81823 8.47892 5.84236 8.7105 5.84236 9.00479C5.84236 9.48724 5.76034 9.91179 5.59631 10.346L5.56254 10.428L5.50464 10.5534C5.4564 10.6499 5.40815 10.7368 5.35026 10.8236C5.33096 10.8526 5.31166 10.8863 5.28754 10.9153C5.27789 10.9298 5.26342 10.9442 5.25377 10.9587L5.24895 10.9635C5.2007 11.0214 5.14763 11.0793 5.08974 11.1276C5.08491 11.1324 5.08491 11.1324 5.08009 11.1372Z" fill="#B9D1FF"/>
</g>
<defs>
<clipPath id="clip0_3202_8402">
<rect width="17.537" height="16.3164" fill="white" transform="translate(0.231445 0.841797)"/>
</clipPath>
</defs>
</svg>
