<svg width="14" height="18" viewBox="0 0 14 18" fill="none" xmlns="http://www.w3.org/2000/svg">
<g clip-path="url(#clip0_3202_9978)">
<path d="M3.24414 1.00342H6.73224C6.93004 1.46657 7.96731 3.87398 8.98045 5.05598C9.74271 5.91956 10.0804 7.11121 9.81991 8.00856C9.59798 8.79978 8.9708 9.39801 8.14099 9.60546C7.21469 9.83704 6.25944 9.54757 5.58884 8.83355C5.0292 8.24978 4.7542 7.36208 4.83139 6.40201C4.9906 4.75204 3.92439 2.05033 3.24414 1.00342Z" fill="#D6FFD0"/>
<path d="M9.51121 4.59291C8.92262 3.89818 8.19895 2.59557 7.35467 0.714025C7.30642 0.603062 7.2823 0.559642 7.27265 0.535519C7.22923 0.400434 7.12309 0.323242 6.97353 0.323242H2.52054C2.36133 0.323242 2.23107 0.414907 2.1973 0.549993C2.15388 0.709201 2.18282 0.834637 2.27449 0.926302C3.02711 1.64997 4.2863 4.72799 4.15604 6.36349C3.93894 8.69371 5.40558 10.0253 6.95906 10.3099C7.15686 10.3485 7.35949 10.363 7.56694 10.363C8.76342 10.363 10.0419 9.73098 10.4665 8.19197C10.7993 7.02927 10.4327 5.65429 9.51121 4.59291ZM3.24421 1.00349H6.73231C6.93011 1.46664 7.96738 3.87406 8.98052 5.05606C9.74279 5.91964 10.0805 7.11128 9.81998 8.00864C9.59805 8.79985 8.97087 9.39809 8.14106 9.60554C7.21476 9.83711 6.25951 9.54765 5.58891 8.83362C5.02927 8.24986 4.75427 7.36216 4.83146 6.40209C4.99067 4.75211 3.92446 2.05041 3.24421 1.00349Z" fill="#393939"/>
<path d="M9.09607 10.3629C8.81625 10.3629 8.55573 10.4594 8.27591 10.5655C7.64391 10.8068 6.92506 11.0769 5.58868 10.3436L5.56938 10.334C5.55491 10.3243 5.53561 10.3098 5.51149 10.3098C5.1786 10.2134 4.84088 10.3098 4.65273 10.5559C4.4501 10.8212 4.39221 11.1879 4.47422 11.7089C4.47422 11.7089 4.47422 11.7234 4.47905 11.7475C4.55624 12.4857 4.77816 15.0378 4.26677 16.9676C4.23782 17.0545 4.24747 17.151 4.30054 17.2474L4.31501 17.2716C4.35361 17.3102 4.45975 17.4018 4.59001 17.4018H8.4303C8.61363 17.4018 8.74871 17.2571 8.78248 17.1124C8.93204 15.969 9.38072 13.2721 9.73773 12.7173C10.1961 11.9888 10.307 11.3278 10.0513 10.8695C9.86799 10.5511 9.52063 10.3629 9.09607 10.3629ZM9.13467 12.312C8.68117 13.0308 8.27109 15.6747 8.1167 16.6685L5.01939 16.6733C5.21719 15.7519 5.3957 14.1791 5.17377 11.7717C5.16895 11.6945 5.16412 11.6462 5.16412 11.6317V11.6173C5.11105 11.2796 5.12553 11.0721 5.20272 10.9901C5.22202 10.9708 5.25096 10.9515 5.32333 10.9563C6.91058 11.791 7.8803 11.4243 8.52196 11.1782C8.8066 11.0673 9.03336 10.9853 9.22151 11.0383C9.40002 11.0818 9.43861 11.1638 9.45791 11.2024C9.56405 11.5063 9.26975 12.1142 9.13467 12.312Z" fill="#393939"/>
<path d="M11.0886 4.27938C11.0693 4.26973 11.0549 4.26008 11.0356 4.25043C10.8522 4.17807 10.6448 4.26008 10.5772 4.43376C10.5435 4.5206 10.5435 4.61227 10.5724 4.69911C10.6062 4.79078 10.6737 4.85832 10.7557 4.89209L10.7702 4.89691C10.9053 4.95963 12.536 5.7605 12.314 7.09688V7.14995C12.314 7.15959 12.2899 8.29817 10.7171 9.27754C10.6303 9.33061 10.5724 9.4078 10.5579 9.49947C10.5386 9.58631 10.5628 9.67797 10.611 9.74069C10.6641 9.82753 10.7413 9.88543 10.8329 9.8999C10.8522 9.90472 10.8715 9.90472 10.8957 9.90472C10.9632 9.90472 11.0259 9.88543 11.079 9.84683C12.9461 8.68895 12.9991 7.2995 12.9991 7.15477C13.1583 6.05961 12.4636 5.00788 11.0886 4.27938Z" fill="#393939"/>
<path d="M3.68801 13.1324C3.51915 13.1035 3.36959 13.1903 3.29722 13.3785C2.6025 15.5157 1.33849 16.8714 1.12138 17.0547L1.08761 17.0788C0.97665 17.1898 0.952527 17.3394 1.01042 17.4551C1.04419 17.5902 1.17445 17.6819 1.33366 17.6819H3.61564C3.7845 17.6819 3.96783 17.5468 3.96783 17.3297V13.4894C3.97265 13.3061 3.86169 13.1662 3.68801 13.1324ZM3.26828 15.2214V16.9727H2.1104C2.55908 16.4372 2.94504 15.8486 3.26828 15.2214Z" fill="#393939"/>
<path d="M8.28562 7.30887C8.28562 7.64176 8.13124 7.93606 7.79835 8.24482C7.66809 8.37508 7.65361 8.58254 7.7694 8.74175C7.84177 8.81411 7.93343 8.84788 8.02992 8.84788C8.11194 8.84788 8.18913 8.82376 8.2615 8.77069C8.71982 8.36544 8.96105 7.87334 8.96105 7.34265C8.98517 6.46942 8.39176 5.85188 8.2615 5.74574C8.12641 5.61548 7.91896 5.62513 7.7694 5.77469C7.63432 5.90978 7.64879 6.12205 7.79835 6.27161C7.808 6.27161 8.28562 6.73476 8.28562 7.30887Z" fill="#393939"/>
<path d="M8.19412 12.389C7.28229 12.9052 6.54414 12.5723 6.18713 12.3311C6.17266 12.3215 6.16301 12.3166 6.16301 12.3166C6.01827 12.2105 5.806 12.225 5.67091 12.3601C5.55995 12.5096 5.57442 12.7171 5.70468 12.8473C5.70951 12.8521 6.28845 13.3539 7.21475 13.3539C7.6779 13.3539 8.10728 13.2381 8.52218 12.9921C8.70069 12.8859 8.73446 12.6736 8.65727 12.5289C8.55113 12.3504 8.34367 12.3166 8.19412 12.389Z" fill="#393939"/>
</g>
<defs>
<clipPath id="clip0_3202_9978">
<rect width="12.0371" height="17.3537" fill="white" transform="translate(0.981445 0.323242)"/>
</clipPath>
</defs>
</svg>
