<svg width="12" height="18" viewBox="0 0 12 18" fill="none" xmlns="http://www.w3.org/2000/svg">
<path d="M5.01068 0.706006C5.01068 0.706006 4.0017 0.844162 3.26211 1.16981C3.26211 1.16981 1.14619 2.04809 0.529053 4.59903C0.529053 4.59903 1.1364 6.46413 2.66456 5.22567C2.66456 5.22567 2.87027 3.5826 4.84905 3.41978C4.84905 3.41978 6.89639 3.23228 7.97394 5.06284C7.97394 5.06284 8.93883 6.15328 7.97394 8.9312C7.97394 8.9312 7.17067 9.99697 6.73476 11.0381C6.73476 11.0381 6.07353 13.214 8.40496 12.6811C8.40496 12.6811 9.81067 10.5052 10.4376 9.80947C10.4376 9.80947 12.2303 6.60722 11.0596 4.04641C11.0547 4.03654 9.77149 0.449432 5.01068 0.706006Z" fill="#FFE88B"/>
<path d="M10.5453 2.49214C9.27187 0.908286 7.20004 0.108958 4.99596 0.360598C2.80168 0.612239 1.44985 1.52012 0.607401 3.31121C0.499646 3.54311 0.240054 4.14507 0.210667 4.7273C0.205769 4.82598 0.240054 4.91973 0.303728 4.98881C0.367401 5.05789 0.455564 5.10723 0.553523 5.11216C0.563319 5.11216 0.568217 5.11216 0.578013 5.11216C0.666176 5.11216 0.749441 5.08256 0.813115 5.02335C0.886584 4.95427 0.925767 4.86546 0.930665 4.76677C0.955155 4.30297 1.19026 3.77501 1.25883 3.62206C1.99842 2.04314 3.10536 1.30795 5.07433 1.08591C7.03351 0.863879 8.86535 1.55959 9.98208 2.95101C11.0792 4.31777 11.3584 6.16313 10.7413 8.01343C10.467 8.84236 9.91351 9.63676 9.37473 10.4065C9.02208 10.9098 8.65963 11.4278 8.36575 11.9755C8.018 12.617 7.7829 13.2633 7.55269 13.885C7.01882 15.3307 6.56331 16.5791 5.01556 16.8899C4.79515 16.9343 4.57474 16.959 4.35923 16.959C3.2376 16.959 2.43434 16.357 2.08658 15.839C1.83189 15.459 1.58209 14.7534 1.62128 14.1959C1.62617 14.0972 1.59679 14.0035 1.53311 13.9294C1.46944 13.8554 1.38128 13.811 1.28332 13.8061C1.0825 13.7913 0.911074 13.9442 0.89638 14.1416C0.842502 14.9015 1.16577 15.7649 1.48413 16.2436C1.95434 16.9393 2.95352 17.6843 4.35433 17.6843C4.61392 17.6843 4.88331 17.6547 5.1527 17.6004C7.09229 17.2057 7.67025 15.6416 8.22371 14.1268C8.44412 13.5298 8.66943 12.9081 8.99269 12.316C9.26208 11.8127 9.61473 11.3094 9.95759 10.8209L9.96738 10.8111C10.5306 10.0019 11.1135 9.16801 11.4221 8.23546C12.1225 6.15326 11.8041 4.05626 10.5453 2.49214Z" fill="#393939"/>
<path d="M7.50371 9.06445C7.5331 9.1582 7.59677 9.23221 7.68004 9.27662C7.7633 9.32103 7.86126 9.3309 7.95432 9.30129C8.04739 9.27169 8.12085 9.20754 8.16494 9.12366C8.92902 7.65329 8.99269 6.33588 8.37065 5.10235C7.41065 3.20765 5.71106 3.05469 5.21147 3.05469C4.33474 3.05469 3.61964 3.32113 3.09556 3.84908C2.25801 4.69282 2.21393 5.92142 2.21393 6.05957C2.07189 7.83092 3.84005 9.46905 3.91841 9.53813C3.98699 9.59734 4.07025 9.63188 4.15841 9.63188C4.26127 9.63188 4.35923 9.58747 4.4278 9.51346C4.56005 9.36544 4.55025 9.13353 4.40331 9.00031C4.39841 8.99538 4.00168 8.63025 3.61964 8.08256C3.40903 7.78158 3.17882 7.38685 3.04658 6.95758C3.81556 7.15988 4.75107 7.64836 4.79515 7.67303C5.17229 7.8704 5.3927 8.1171 5.45147 8.40328C5.55923 8.93617 5.11841 9.48879 5.11351 9.49372C5.10372 9.50359 5.09882 9.51346 5.08902 9.52333C4.44249 10.5102 3.02209 11.8868 3.0074 11.9016C2.86535 12.0397 2.86046 12.2716 2.9976 12.4147C3.06617 12.4887 3.15923 12.5282 3.25719 12.5282C3.35025 12.5282 3.43841 12.4937 3.50699 12.4246C3.52168 12.4098 4.97637 11.0134 5.68168 9.93779C5.78943 9.79964 6.31841 9.05952 6.15678 8.26019C6.05392 7.74704 5.70617 7.33258 5.12331 7.02666C5.10862 7.02173 3.87433 6.36549 2.92903 6.18786C2.92903 6.16319 2.92903 6.13358 2.92903 6.10891C2.92903 6.09904 2.92903 6.08918 2.92903 6.07931C2.92903 5.98556 2.95352 3.78494 5.20657 3.78494C5.71106 3.78494 6.96984 3.94776 7.71922 5.43294C8.04249 6.07437 8.37555 7.12041 7.51841 8.78321C7.48412 8.87202 7.47433 8.97071 7.50371 9.06445Z" fill="#393939"/>
</svg>
