<svg width="14" height="20" viewBox="0 0 14 20" fill="none" xmlns="http://www.w3.org/2000/svg">
<g clip-path="url(#clip0_3202_11673)">
<path d="M9.20598 8.40856L9.14477 8.45484L9.16007 8.47027C9.17027 8.48055 9.18048 8.50112 9.20598 8.51141C9.22638 8.52169 9.24678 8.52684 9.26208 8.53198L9.30799 8.54741C9.33859 8.55769 9.3743 8.57312 9.4151 8.57312C9.45591 8.57312 9.49161 8.56283 9.52222 8.54741L9.56302 8.53712C9.57832 8.53712 9.59873 8.53198 9.61913 8.51655C9.63953 8.50112 9.65483 8.4857 9.67523 8.45998C9.75684 8.38285 9.80275 8.28514 9.79765 8.172V7.87888C9.79765 7.77089 9.75684 7.67318 9.68544 7.59604C9.61403 7.52405 9.51712 7.48291 9.4049 7.48291C9.19068 7.48805 9.02236 7.6629 9.02746 7.87374V8.16686C9.02746 8.27485 9.06826 8.3777 9.14477 8.4497L9.20598 8.40856Z" fill="#393939"/>
<path d="M4.35538 8.47004L4.40129 8.40833L4.35538 8.47004C4.36558 8.48547 4.38088 8.5009 4.40129 8.51633C4.42169 8.53175 4.44209 8.53175 4.46249 8.5369L4.5033 8.54718C4.5339 8.55747 4.56451 8.56775 4.61041 8.56775C4.65122 8.56775 4.68692 8.55232 4.71753 8.54204L4.75833 8.53175C4.77363 8.53175 4.79404 8.52661 4.81444 8.51118C4.83484 8.49576 4.85014 8.48033 4.87054 8.45462C4.95215 8.37748 4.99806 8.27463 4.99296 8.16664V7.86323C4.99296 7.75523 4.95215 7.65753 4.87564 7.58039C4.80934 7.51868 4.71243 7.47754 4.60021 7.47754C4.39109 7.48268 4.21767 7.65753 4.22277 7.86837V8.17178C4.22277 8.27977 4.26357 8.37748 4.34008 8.45462L4.35538 8.47004Z" fill="#393939"/>
<path d="M6.97189 10.3882H7.0229C7.91551 10.3625 8.50718 9.65798 8.51228 9.65284C8.61429 9.53456 8.63979 9.37514 8.57859 9.2363C8.51738 9.09231 8.37966 9.00488 8.22154 9.00488C8.10933 9.00488 8.00222 9.05631 7.93081 9.13859C7.8849 9.18487 7.48195 9.59627 7.0025 9.6117H6.97699C6.51794 9.6117 6.12519 9.17973 6.10989 9.1643C6.02318 9.04602 5.88036 8.98945 5.75284 9.01002C5.72734 9.01517 5.71204 9.02545 5.68654 9.03574L5.66613 9.04602C5.58452 9.07688 5.52332 9.1283 5.47741 9.2003L5.46211 9.22601C5.45191 9.2363 5.43661 9.25172 5.4264 9.27744C5.4162 9.30315 5.4162 9.32372 5.4213 9.33915L5.4162 9.35972C5.4009 9.47285 5.4315 9.5757 5.50291 9.65798C5.54882 9.69912 6.09969 10.3882 6.97189 10.3882Z" fill="#393939"/>
<path d="M11.95 2.89564C10.629 1.56373 8.87437 0.833496 7.00244 0.833496C5.13051 0.833496 3.3708 1.56373 2.04974 2.89564C0.733783 4.22755 0.00439453 5.99657 0.00439453 7.88387V12.1161C0.00439453 14.0034 0.733783 15.7776 2.04974 17.1044C3.3708 18.4363 5.12541 19.1665 6.99734 19.1665C8.86927 19.1665 10.629 18.4363 11.9449 17.1044C13.266 15.7725 13.9903 14.0034 13.9903 12.1161V7.88387C13.9954 5.99657 13.2711 4.22755 11.95 2.89564ZM3.70234 4.24812C4.58475 3.36361 5.75279 2.87507 6.99734 2.87507C7.73693 2.90078 7.82364 3.46646 7.82874 3.70816V5.22005C7.82874 5.68288 7.4717 6.04285 7.01774 6.04285C6.57399 6.04285 6.21694 5.60574 6.20164 5.21491L6.19654 5.05035C6.18124 4.71609 6.16594 4.42296 6.25265 4.23783C6.26795 4.20184 6.29855 4.18127 6.33936 4.17098C6.41077 4.15555 6.50258 4.18127 6.55869 4.23269C6.60459 4.27383 6.63009 4.32526 6.6352 4.38182C6.6403 4.43839 6.61989 4.49496 6.58419 4.5361C6.50768 4.61838 6.47198 4.71609 6.48218 4.83436V4.86008C6.48218 4.8755 6.48218 4.89607 6.48728 4.92179C6.49748 4.9475 6.50768 4.96293 6.52298 4.9835C6.52808 4.98864 6.53318 4.99892 6.53828 5.00407C6.58419 5.07606 6.6454 5.12749 6.72701 5.16348L6.75761 5.17891C6.76781 5.18405 6.78821 5.19948 6.81372 5.19948C6.83922 5.20462 6.85962 5.19948 6.87492 5.19434L6.89533 5.1892C7.00754 5.17891 7.10445 5.12749 7.17076 5.04521C7.33908 4.83951 7.42579 4.58238 7.40029 4.31497C7.37989 4.04756 7.25747 3.80586 7.05345 3.63102C6.6403 3.27618 6.02312 3.32761 5.64568 3.75958C5.58957 3.81615 5.41105 3.99614 5.42635 4.29954L5.42125 5.21491C5.42125 5.63659 5.58447 6.03771 5.8803 6.34112C6.18124 6.64452 6.58419 6.81423 7.00754 6.81423C7.87975 6.81423 8.59383 6.09428 8.59383 5.21491V3.70301C8.59383 3.5076 8.55813 3.31218 8.48672 3.12191C9.37423 3.42017 10.1546 3.98585 10.7157 4.73151C11.3329 5.55431 11.6644 6.53653 11.6644 7.57532C11.6644 8.83523 11.1798 10.0129 10.3025 10.9025C9.42523 11.7922 8.25209 12.2807 7.00244 12.2807C5.75279 12.2807 4.58475 11.7922 3.70234 10.9025C2.81993 10.0129 2.33538 8.83523 2.33538 7.57532C2.33538 6.3154 2.81993 5.13263 3.70234 4.24812ZM11.1492 16.7907L6.33936 13.0109C6.56379 13.0418 6.78311 13.0521 6.99734 13.0521C9.9965 13.0521 12.4346 10.594 12.4346 7.57017C12.4346 6.13027 11.9041 4.7778 10.9401 3.75958C9.9608 2.72079 8.61423 2.12941 7.14526 2.09341C7.09935 2.09341 7.05855 2.09341 7.01264 2.09341C5.58957 2.09341 4.23281 2.65394 3.20248 3.66702C2.14155 4.71094 1.55498 6.09942 1.55498 7.57017C1.55498 8.46497 1.76411 9.32377 2.18236 10.1106C2.58021 10.8665 3.15658 11.5299 3.85536 12.039L10.5219 17.2895C9.48134 18.0095 8.26739 18.39 7.00244 18.39C5.33454 18.39 3.76865 17.742 2.59551 16.5593C1.42237 15.3816 0.779688 13.8029 0.779688 12.1161V7.88387C0.779688 6.20227 1.42237 4.62352 2.59551 3.44075C3.76865 2.25797 5.32944 1.61001 7.00244 1.61001C8.67034 1.61001 10.2362 2.26311 11.4094 3.44075C12.5825 4.62352 13.2252 6.19713 13.2252 7.88387V12.1161C13.2201 13.9057 12.4703 15.6079 11.1492 16.7907Z" fill="#393939"/>
<path d="M11.1493 16.7905L6.33946 13.0108C6.56388 13.0416 6.78321 13.0519 6.99744 13.0519C9.9966 13.0519 12.4347 10.5938 12.4347 7.57002C12.4347 6.13012 11.9042 4.77764 10.9402 3.75943C9.96089 2.72064 8.61433 2.12926 7.14535 2.09326C7.09945 2.09326 7.05864 2.09326 7.01274 2.09326C5.58967 2.09326 4.2329 2.65379 3.20258 3.66686C2.14165 4.71079 1.55508 6.09927 1.55508 7.57002C1.55508 8.46482 1.7642 9.32362 2.18245 10.1104C2.5803 10.8664 3.15667 11.5298 3.85546 12.0389L10.522 17.2894C9.48144 18.0093 8.26749 18.3898 7.00254 18.3898C5.33464 18.3898 3.76875 17.7419 2.5956 16.5591C1.42246 15.3815 0.779785 13.8027 0.779785 12.116V7.88372C0.779785 6.20212 1.42246 4.62337 2.5956 3.44059C3.76875 2.25782 5.32954 1.60986 7.00254 1.60986C8.67044 1.60986 10.2363 2.26296 11.4095 3.44059C12.5826 4.62337 13.2253 6.19698 13.2253 7.88372V12.116C13.2202 13.9056 12.4704 15.6078 11.1493 16.7905Z" fill="#B9D1FF"/>
</g>
<defs>
<clipPath id="clip0_3202_11673">
<rect width="13.991" height="18.333" fill="white" transform="translate(0.00463867 0.833496)"/>
</clipPath>
</defs>
</svg>
