<svg width="17" height="17" viewBox="0 0 17 17" fill="none" xmlns="http://www.w3.org/2000/svg">
<path d="M12.1611 12.4875C10.5699 14.086 8.89315 15.1067 8.3659 15.4149C7.26865 14.7745 1.1269 10.9612 1.1269 5.20746C1.1269 3.1708 2.7609 1.5145 4.77015 1.5145C6.1999 1.5145 7.4539 2.28005 8.0429 3.51265C8.1664 3.76302 8.57015 3.76302 8.69365 3.51265C9.28265 2.28005 10.5414 1.5145 11.9711 1.5145C13.9804 1.5145 15.6144 3.1708 15.6144 5.20746C15.6144 5.68413 15.5764 6.11265 15.5051 6.53154C15.4719 6.72894 15.6001 6.92154 15.7949 6.96005C15.9944 6.99376 16.1796 6.86376 16.2176 6.66635C16.2984 6.21376 16.3411 5.72265 16.3411 5.21228C16.3411 2.77117 14.3794 0.782647 11.9711 0.782647C10.4891 0.782647 9.1639 1.47598 8.37065 2.63154C7.5774 1.47117 6.2474 0.777832 4.77015 0.777832C2.3619 0.777832 0.400146 2.76635 0.400146 5.20746C0.400146 11.9386 7.8814 15.9878 8.19965 16.1564C8.2519 16.1852 8.3089 16.1997 8.3659 16.1997C8.4229 16.1997 8.4799 16.1852 8.53215 16.1564C8.61765 16.1082 10.6744 15.0056 12.6694 13.0075C12.8119 12.863 12.8119 12.6319 12.6741 12.4875C12.5364 12.343 12.3036 12.343 12.1611 12.4875Z" fill="#393939"/>
<path d="M14.3984 6.83496C14.2987 6.83496 14.2037 6.87829 14.1372 6.95052C12.3892 8.97755 12.4462 10.2246 12.4747 10.4268C12.4794 11.4957 13.3439 12.3672 14.3984 12.3672C15.4529 12.3672 16.3174 11.4957 16.3174 10.4557C16.3459 10.2246 16.4077 8.98237 14.6549 6.95052C14.5979 6.87829 14.5029 6.83496 14.3984 6.83496ZM13.1682 10.369C13.1682 10.369 13.1682 10.3642 13.1682 10.3546C13.1682 10.3498 13.1682 10.345 13.1682 10.3401C13.1682 10.3353 13.1682 10.3257 13.1682 10.3161C13.1682 10.3064 13.1682 10.2968 13.1682 10.292C13.1682 10.2824 13.1682 10.2727 13.1682 10.2631C13.1682 10.2535 13.1682 10.2342 13.1729 10.2198C13.1729 10.2053 13.1729 10.1957 13.1777 10.1813C13.1777 10.162 13.1824 10.1427 13.1824 10.1235C13.1824 10.109 13.1872 10.0946 13.1872 10.0801C13.1919 10.0561 13.1967 10.032 13.2014 10.0079C13.2062 9.99348 13.2062 9.97904 13.2109 9.95978C13.2157 9.93089 13.2252 9.902 13.2299 9.87311C13.2347 9.85385 13.2394 9.83941 13.2442 9.82015C13.2537 9.78644 13.2632 9.75274 13.2727 9.71904C13.2774 9.69978 13.2822 9.68052 13.2917 9.66126C13.3012 9.62274 13.3154 9.58422 13.3297 9.5457C13.3392 9.52644 13.3439 9.50718 13.3534 9.48311C13.3677 9.43978 13.3867 9.39644 13.4057 9.35311C13.4152 9.32904 13.4247 9.30978 13.4342 9.2857C13.4532 9.23755 13.4769 9.18941 13.5007 9.14126C13.5102 9.11718 13.5197 9.09311 13.5339 9.06903C13.5577 9.01607 13.5862 8.96311 13.6147 8.91015C13.6289 8.88607 13.6384 8.862 13.6527 8.83792C13.6812 8.78496 13.7192 8.72718 13.7524 8.66941C13.7667 8.64052 13.7809 8.61644 13.7999 8.58755C13.8379 8.52496 13.8807 8.45755 13.9234 8.39015C13.9377 8.36607 13.9519 8.342 13.9709 8.31792C14.0184 8.2457 14.0707 8.17348 14.1277 8.09644C14.1419 8.07237 14.1562 8.05311 14.1752 8.02904C14.2464 7.93274 14.3224 7.83163 14.4079 7.7257C14.4887 7.82681 14.5694 7.92792 14.6407 8.02904C14.6692 8.06755 14.6929 8.10607 14.7214 8.14459C14.7594 8.20237 14.8022 8.26015 14.8402 8.31311C14.8687 8.35644 14.8972 8.39978 14.9209 8.44311C14.9494 8.49126 14.9827 8.53941 15.0112 8.58274C15.0349 8.62607 15.0587 8.66459 15.0824 8.70792C15.1062 8.75126 15.1347 8.79459 15.1537 8.83311C15.1774 8.87163 15.1964 8.91015 15.2154 8.94866C15.2344 8.98718 15.2582 9.03052 15.2772 9.06422C15.2962 9.09792 15.3104 9.13163 15.3247 9.16533C15.3437 9.20385 15.3627 9.24237 15.3769 9.27607C15.3912 9.30496 15.4007 9.33385 15.4149 9.36755C15.4292 9.40607 15.4434 9.43978 15.4577 9.47348C15.4672 9.50237 15.4767 9.52644 15.4862 9.55052C15.5004 9.58422 15.5099 9.62274 15.5194 9.65163C15.5242 9.67089 15.5337 9.69015 15.5384 9.71422C15.5479 9.74792 15.5574 9.78163 15.5669 9.81533C15.5717 9.83459 15.5764 9.84904 15.5764 9.86348C15.5859 9.89718 15.5907 9.92607 15.6002 9.95496C15.5954 9.97422 15.6002 9.98866 15.6002 9.99829C15.6049 10.0272 15.6097 10.0561 15.6144 10.0801C15.6144 10.0898 15.6144 10.0946 15.6192 10.1042C15.6239 10.1331 15.6287 10.1572 15.6287 10.1813C15.6287 10.1861 15.6287 10.1909 15.6287 10.1957C15.6287 10.2198 15.6334 10.2439 15.6334 10.2583C15.6334 10.2631 15.6334 10.2631 15.6334 10.2631C15.6382 10.3257 15.6334 10.3594 15.6334 10.3642L15.6287 10.4124C15.6287 11.1009 15.0777 11.6594 14.3984 11.6594C13.7192 11.6594 13.1682 11.1009 13.1682 10.4124V10.369Z" fill="#393939"/>
<path d="M11.9045 3.65257C10.7218 5.0248 10.7645 5.88665 10.7835 6.01665C10.7883 6.77739 11.401 7.39369 12.1515 7.39369C12.902 7.39369 13.5148 6.77739 13.5195 6.04554C13.5385 5.88665 13.5813 5.0248 12.3985 3.65257C12.275 3.51294 12.028 3.51294 11.9045 3.65257ZM11.4343 5.89628C11.4343 5.88183 11.4343 5.86739 11.439 5.84813C11.439 5.82887 11.4438 5.8048 11.4485 5.78554C11.4533 5.76146 11.4533 5.7422 11.4628 5.71813C11.4675 5.68924 11.477 5.65554 11.4865 5.62665C11.496 5.59776 11.5008 5.57369 11.5103 5.53998C11.5198 5.50146 11.5388 5.46294 11.553 5.41961C11.5673 5.38591 11.5768 5.3522 11.591 5.31369C11.61 5.26554 11.6385 5.21257 11.6623 5.16443C11.6813 5.12591 11.6955 5.08739 11.7193 5.04887C11.7525 4.98628 11.7953 4.91887 11.838 4.85146C11.8618 4.81294 11.8808 4.77924 11.9045 4.74072C11.9758 4.62998 12.0565 4.51443 12.1515 4.38924C12.9163 5.38591 12.8735 5.95887 12.8735 5.9685L12.8688 6.01183C12.8688 6.41146 12.5458 6.73887 12.1515 6.73887C11.7573 6.73887 11.4343 6.41628 11.4295 5.97331V5.9685C11.4295 5.96369 11.4295 5.94924 11.4295 5.9348C11.4295 5.92517 11.4343 5.91072 11.4343 5.89628Z" fill="#393939"/>
<path d="M13.1633 10.3689C13.1633 10.3689 13.1633 10.3641 13.1633 10.3545C13.1633 10.3497 13.1633 10.3448 13.1633 10.34C13.1633 10.3352 13.1633 10.3256 13.1633 10.316C13.1633 10.3063 13.1633 10.2967 13.1633 10.2919C13.1633 10.2823 13.1633 10.2726 13.1633 10.263C13.1633 10.2534 13.1633 10.2341 13.1681 10.2197C13.1681 10.2052 13.1681 10.1956 13.1728 10.1811C13.1728 10.1619 13.1776 10.1426 13.1776 10.1234C13.1776 10.1089 13.1823 10.0945 13.1823 10.08C13.1871 10.056 13.1918 10.0319 13.1966 10.0078C13.2013 9.99336 13.2013 9.97892 13.2061 9.95966C13.2108 9.93077 13.2203 9.90188 13.2251 9.87299C13.2298 9.85373 13.2346 9.83929 13.2393 9.82003C13.2488 9.78633 13.2583 9.75262 13.2678 9.71892C13.2726 9.69966 13.2773 9.6804 13.2868 9.66114C13.2963 9.62262 13.3106 9.5841 13.3248 9.54559C13.3343 9.52633 13.3391 9.50707 13.3486 9.48299C13.3628 9.43966 13.3818 9.39633 13.4008 9.35299C13.4103 9.32892 13.4198 9.30966 13.4293 9.28559C13.4483 9.23744 13.4721 9.18929 13.4958 9.14114C13.5053 9.11707 13.5148 9.09299 13.5291 9.06892C13.5528 9.01596 13.5813 8.96299 13.6098 8.91003C13.6241 8.88596 13.6336 8.86188 13.6478 8.83781C13.6763 8.78484 13.7143 8.72707 13.7476 8.66929C13.7618 8.6404 13.7761 8.61633 13.7951 8.58744C13.8331 8.52484 13.8758 8.45744 13.9186 8.39003C13.9328 8.36596 13.9471 8.34188 13.9661 8.31781C14.0136 8.24559 14.0658 8.17336 14.1228 8.09633C14.1371 8.07225 14.1513 8.05299 14.1703 8.02892C14.2416 7.93262 14.3176 7.83151 14.4031 7.72559C14.4838 7.8267 14.5646 7.92781 14.6358 8.02892C14.6643 8.06744 14.6881 8.10596 14.7166 8.14447C14.7546 8.20225 14.7973 8.26003 14.8353 8.31299C14.8638 8.35633 14.8923 8.39966 14.9161 8.44299C14.9446 8.49114 14.9778 8.53929 15.0063 8.58262C15.0301 8.62596 15.0538 8.66447 15.0776 8.70781C15.1013 8.75114 15.1298 8.79447 15.1488 8.83299C15.1726 8.87151 15.1916 8.91003 15.2106 8.94855C15.2296 8.98707 15.2533 9.0304 15.2723 9.0641C15.2913 9.09781 15.3056 9.13151 15.3198 9.16522C15.3388 9.20373 15.3578 9.24225 15.3721 9.27596C15.3863 9.30484 15.3958 9.33373 15.4101 9.36744C15.4243 9.40596 15.4386 9.43966 15.4528 9.47336C15.4623 9.50225 15.4718 9.52633 15.4813 9.5504C15.4956 9.5841 15.5051 9.62262 15.5146 9.65151C15.5193 9.67077 15.5288 9.69003 15.5336 9.7141C15.5431 9.74781 15.5526 9.78151 15.5621 9.81522C15.5668 9.83447 15.5716 9.84892 15.5716 9.86336C15.5811 9.89707 15.5858 9.92596 15.5953 9.95484C15.6001 9.96929 15.6001 9.97892 15.6001 9.99336C15.6048 10.0223 15.6096 10.0511 15.6143 10.0752C15.6143 10.0848 15.6143 10.0897 15.6191 10.0993C15.6238 10.1282 15.6286 10.1523 15.6286 10.1763C15.6286 10.1811 15.6286 10.186 15.6286 10.1908C15.6286 10.2148 15.6333 10.2389 15.6333 10.2534C15.6333 10.2582 15.6333 10.2582 15.6333 10.2582C15.6381 10.3208 15.6333 10.3545 15.6333 10.3593L15.6286 10.4074C15.6286 11.096 15.0776 11.6545 14.3983 11.6545C13.7191 11.6545 13.1681 11.096 13.1681 10.4074L13.1633 10.3689Z" fill="#FFB1A2"/>
<path d="M11.4344 5.89571C11.4344 5.88126 11.4344 5.86682 11.4392 5.84756C11.4392 5.8283 11.4439 5.80423 11.4487 5.78497C11.4534 5.76089 11.4534 5.74164 11.4629 5.71756C11.4677 5.68867 11.4772 5.65497 11.4867 5.62608C11.4962 5.59719 11.5009 5.57312 11.5104 5.53941C11.5199 5.50089 11.5389 5.46238 11.5532 5.41904C11.5674 5.38534 11.5769 5.35163 11.5912 5.31312C11.6102 5.26497 11.6387 5.21201 11.6624 5.16386C11.6814 5.12534 11.6957 5.08682 11.7194 5.0483C11.7527 4.98571 11.7954 4.9183 11.8382 4.85089C11.8619 4.81238 11.8809 4.77867 11.9047 4.74015C11.9759 4.62941 12.0567 4.51386 12.1517 4.38867C12.9164 5.38534 12.8737 5.9583 12.8737 5.96793L12.8689 6.01126C12.8689 6.41089 12.5459 6.7383 12.1517 6.7383C11.7574 6.7383 11.4344 6.41571 11.4297 5.97275V5.96793C11.4297 5.96312 11.4297 5.94867 11.4297 5.93423C11.4297 5.9246 11.4297 5.91015 11.4344 5.89571Z" fill="#FFB1A2"/>
</svg>
