<svg width="20" height="16" viewBox="0 0 20 16" fill="none" xmlns="http://www.w3.org/2000/svg">
<path d="M12.3976 12.501C12.5279 12.4238 12.663 12.3467 12.7932 12.2695C12.9717 12.1633 13.0345 11.9269 12.9235 11.7436C12.8125 11.5651 12.581 11.5024 12.3976 11.6133C11.5485 12.1199 10.7814 12.501 10.0867 12.776V12.7809C9.37751 13.0607 8.7455 13.2247 8.15691 13.3115C8.15209 13.3115 8.14726 13.3115 8.14726 13.3115C8.14726 13.3115 8.14244 13.3115 8.14244 13.3164C6.30431 13.5865 5.02582 13.0462 3.84383 12.5445C3.01884 12.1923 2.23245 11.8594 1.36404 11.8594C1.15177 11.8594 0.98291 12.0331 0.98291 12.2405C0.98291 12.4528 1.15659 12.6216 1.36404 12.6216C1.7307 12.6216 2.09254 12.6988 2.46403 12.8195L1.88026 13.9243C1.77895 14.1124 1.85132 14.3392 2.03947 14.4405C2.09737 14.4694 2.16008 14.4887 2.21798 14.4887C2.35789 14.4887 2.48815 14.4164 2.56052 14.2861L3.1877 13.0993C3.30831 13.1475 3.4241 13.2006 3.54953 13.2537C3.74734 13.3357 3.94997 13.4225 4.16224 13.5045L3.54953 14.7444C3.45304 14.9374 3.53506 15.1593 3.72321 15.2558C3.77628 15.2848 3.83418 15.2944 3.89207 15.2944C4.03198 15.2944 4.16707 15.2172 4.23461 15.0821L4.88109 13.7699C5.19468 13.8712 5.52757 13.9629 5.87976 14.0304L5.70125 15.3041C5.6723 15.5163 5.81704 15.7045 6.02449 15.7383C6.04379 15.7431 6.05826 15.7431 6.07756 15.7431C6.26572 15.7431 6.42975 15.6032 6.45869 15.415L6.6372 14.1414C6.81088 14.1558 6.99421 14.1655 7.17754 14.1655C7.41394 14.1655 7.65999 14.151 7.91569 14.1269L8.13761 15.3185C8.17139 15.5019 8.33059 15.6321 8.51392 15.6321C8.53805 15.6321 8.56217 15.6273 8.58147 15.6225C8.78892 15.5839 8.924 15.3861 8.88541 15.1738L8.66348 14.0014C9.06874 13.9194 9.49812 13.8036 9.95644 13.6396L10.3038 14.7589C10.3521 14.9229 10.5064 15.0291 10.6705 15.0291C10.7091 15.0291 10.7477 15.0242 10.7863 15.0098C10.9889 14.947 11.0998 14.7348 11.0371 14.5321L10.6753 13.3598C11.013 13.2199 11.3652 13.051 11.7319 12.8629L12.2722 13.794C12.3446 13.9146 12.47 13.987 12.6051 13.987C12.6678 13.987 12.7353 13.9725 12.7981 13.9387C12.9814 13.8326 13.0441 13.5962 12.938 13.4129L12.3976 12.501Z" fill="#393939"/>
<path d="M17.999 0.430426C17.8832 0.256745 17.6468 0.203676 17.4731 0.319463C17.2995 0.435251 17.2416 0.67165 17.3573 0.845332L17.5166 1.0962L16.103 2.00321L15.8425 1.60277C15.7894 1.52076 15.7026 1.45804 15.6012 1.43392C15.4999 1.4098 15.3986 1.42909 15.3166 1.48699L8.62504 5.77113C4.3795 6.29699 0.765962 8.58862 0.611579 8.68994C0.437898 8.8009 0.384828 9.0373 0.500616 9.2158C0.572983 9.33159 0.693595 9.38948 0.823856 9.38948C0.896223 9.38948 0.963766 9.37019 1.03131 9.32677C1.06508 9.30264 4.40362 7.1847 8.29215 6.58164L8.40794 6.76014L7.41892 7.39697C7.24524 7.51276 7.18734 7.74916 7.30313 7.92284L7.56365 8.3281L5.08387 9.92018C4.91019 10.036 4.8523 10.2724 4.96808 10.446C5.04045 10.5618 5.16106 10.6197 5.29132 10.6197C5.35887 10.6197 5.43123 10.6004 5.49878 10.557L7.97856 8.96493L8.23908 9.36536C8.29215 9.44738 8.37899 9.5101 8.48031 9.53422C8.50925 9.54387 8.53337 9.54387 8.56232 9.54387C8.63469 9.54387 8.70706 9.52457 8.76977 9.48115L9.75879 8.84432L9.9373 9.12896C10.0097 9.24475 10.1303 9.30264 10.2605 9.30264C10.3281 9.30264 10.4004 9.28335 10.468 9.23993L12.639 7.84565C13.1118 8.35705 13.5508 9.00353 13.9513 9.79474C14.0188 9.92983 14.1539 10.007 14.2938 10.007C14.3517 10.007 14.4144 9.99737 14.4675 9.9636C14.6556 9.86711 14.7328 9.64036 14.6363 9.4522C14.2263 8.65134 13.7776 7.98074 13.2951 7.43075L17.4442 4.76763C17.5262 4.71456 17.5889 4.62772 17.613 4.52641C17.6372 4.4251 17.6179 4.32378 17.5648 4.24177L17.3043 3.83651L18.7179 2.92951L18.8771 3.18038C18.9494 3.29617 19.07 3.35406 19.2003 3.35406C19.2678 3.35406 19.3402 3.33476 19.4078 3.29134C19.5814 3.17556 19.6393 2.93916 19.5235 2.76547L17.999 0.430426ZM8.67328 8.64651L8.41276 8.24608L8.15224 7.84565L8.81802 7.41627L9.07854 7.82153L9.33906 8.22679L8.67328 8.64651ZM10.3715 8.41012L9.72502 7.4018L9.25705 6.6733L9.09784 6.42725C9.14608 6.39831 9.17985 6.35489 9.20398 6.30664L15.4034 2.32645L15.664 2.72688L16.4407 3.93782L16.7012 4.33825L10.3715 8.41012ZM16.8797 3.20933L16.5179 2.64486L17.9315 1.73786L18.2933 2.30232L16.8797 3.20933Z" fill="#393939"/>
<path d="M10.3716 8.41033L9.72508 7.40201L9.25711 6.67352L9.0979 6.42747C9.14615 6.39852 9.17992 6.3551 9.20404 6.30686L15.4035 2.32666L15.664 2.72709L16.4408 3.93804L16.7013 4.33847L10.3716 8.41033Z" fill="#FFB1A2"/>
</svg>
