<svg width="14" height="18" viewBox="0 0 14 18" fill="none" xmlns="http://www.w3.org/2000/svg">
<path d="M8.23176 4.29583C7.59267 4.12143 6.91456 4.28614 6.42671 4.73183C5.94374 4.28614 5.26075 4.12143 4.62655 4.29583C3.84111 4.49445 3.2996 5.20658 3.31911 6.00591C3.31911 7.08138 4.32896 8.0648 5.61201 9.30497C5.78763 9.47452 5.96814 9.64892 6.15352 9.83301L6.42671 10.1043L6.69991 9.83301C6.88529 9.65377 7.0658 9.47452 7.24142 9.30497C8.51959 8.0648 9.53431 7.08138 9.53431 6.00107C9.55383 5.20658 9.01231 4.49445 8.23176 4.29583ZM6.69503 8.75755C6.60722 8.84475 6.51453 8.93195 6.42671 9.01915C6.33402 8.93195 6.24621 8.8399 6.15352 8.75755C5.05098 7.68209 4.09967 6.7568 4.09967 6.00591C4.07528 5.55054 4.38263 5.14845 4.82657 5.04187C4.92414 5.01765 5.03146 5.00312 5.13391 5.00312C5.52907 4.99827 5.89496 5.20174 6.0901 5.54085L6.42671 6.11249L6.76333 5.54085C7.02677 5.10969 7.54389 4.91107 8.03174 5.04672C8.47568 5.15329 8.77815 5.55538 8.75863 6.01076C8.75375 6.7568 7.79757 7.68209 6.69503 8.75755Z" fill="#393939"/>
<path d="M13.6859 10.0561L12.5199 7.69198C12.5541 7.43039 12.5736 7.16879 12.5785 6.90719C12.5687 3.52578 9.79772 0.788677 6.39741 0.798365C2.9971 0.808054 0.235874 3.55484 0.245631 6.93625C0.25051 8.3702 0.762751 9.76056 1.68966 10.8602C2.00189 11.243 2.17264 11.7225 2.16776 12.2167V16.4701C2.16776 16.877 2.49949 17.2016 2.90929 17.2016H8.14879C8.55858 17.2016 8.88544 16.8722 8.88544 16.4701V14.7745H10.2514C11.5198 14.7745 12.5492 13.7524 12.5541 12.488V11.3495L13.3639 10.962C13.7054 10.7973 13.8517 10.3952 13.6859 10.0561ZM11.7784 10.8651V12.488C11.7784 13.3212 11.0954 13.9994 10.2563 13.9994H8.10976V16.4265H2.94832V12.2118C2.95319 11.5385 2.71903 10.8796 2.28972 10.3613C0.377351 8.09892 0.679817 4.7272 2.95807 2.83302C5.23633 0.938854 8.63176 1.23436 10.5392 3.49671C11.3442 4.45106 11.793 5.65733 11.7979 6.90719C11.793 7.17363 11.7686 7.44492 11.7296 7.71136L11.715 7.82763L12.9443 10.3128L11.7784 10.8651Z" fill="#393939"/>
<path d="M6.69511 8.75793C6.6073 8.84513 6.5146 8.93233 6.42679 9.01953C6.3341 8.93233 6.24629 8.84029 6.1536 8.75793C5.05106 7.68731 4.09487 6.76203 4.09487 6.01114C4.07536 5.55092 4.3827 5.14884 4.82665 5.04226C4.92422 5.01804 5.03154 5.0035 5.13399 5.0035C5.52915 4.99866 5.89504 5.20212 6.09018 5.54123L6.42679 6.11288L6.76341 5.54123C7.02685 5.11008 7.54397 4.91146 8.03182 5.0471C8.47576 5.15368 8.77822 5.55577 8.75871 6.01114C8.75383 6.75718 7.79765 7.68247 6.69511 8.75793Z" fill="#FFE88B"/>
</svg>
