<svg width="15" height="22" viewBox="0 0 15 22" fill="none" xmlns="http://www.w3.org/2000/svg">
<path d="M8.04069 18.3671C8.04069 19.6013 6.98048 20.6396 5.6249 20.6396C4.26932 20.6396 3.20911 19.6013 3.20911 18.3671C3.20911 18.063 3.30165 17.6161 3.47753 17.0944C3.65068 16.5808 3.89399 16.0256 4.17064 15.5149C4.44863 15.0016 4.75164 14.5494 5.03896 14.2322C5.18272 14.0735 5.31261 13.9597 5.42322 13.8883C5.53665 13.8151 5.60174 13.8043 5.6249 13.8043C5.64807 13.8043 5.71315 13.8151 5.82658 13.8883C5.9372 13.9597 6.06709 14.0735 6.21085 14.2322C6.49816 14.5494 6.80117 15.0016 7.07916 15.5149C7.35582 16.0256 7.59912 16.5808 7.77228 17.0944C7.94816 17.6161 8.04069 18.063 8.04069 18.3671Z" fill="#B9D1FF" stroke="black" stroke-width="0.868421"/>
<path d="M3.72217 11.4337C4.02476 11.2803 4.76611 11.0656 5.31078 11.4337C5.99161 11.8938 6.21856 13.044 7.58022 13.044" stroke="black" stroke-width="0.868421" stroke-linecap="round"/>
<path d="M11.4382 11.4337C11.1356 11.2803 10.3943 11.0656 9.84962 11.4337C9.16879 11.8938 8.94185 13.044 7.58018 13.044" stroke="black" stroke-width="0.868421" stroke-linecap="round"/>
<path d="M12.3461 7.98291C13.3295 8.36631 14.3886 8.90307 14.3886 11.2035C14.1617 13.2739 12.5731 13.5499 11.6653 13.7339" stroke="black" stroke-width="0.868421" stroke-linecap="round"/>
<path d="M4.85694 0.851562L4.40307 5.91247C4.40305 6.83263 3.94917 7.52276 3.0414 7.98284C1.90666 8.55795 0.771956 10.2833 1.67973 12.3536C2.0219 13.134 2.85984 13.5498 3.94917 13.7339" stroke="black" stroke-width="0.868421" stroke-linecap="round"/>
</svg>
