<svg width="15" height="18" viewBox="0 0 15 18" fill="none" xmlns="http://www.w3.org/2000/svg">
<g clip-path="url(#clip0_3202_11792)">
<path d="M7.04 7.72445C7.04 7.72445 5.634 8.06148 5.19225 9.10148C5.19225 9.10148 5.064 10.7144 6.4415 10.7048C6.4415 10.7048 7.60525 10.5026 8.1515 9.93445C8.1515 9.93445 8.8735 10.4159 8.1515 11.6533C8.1515 11.6533 6.39875 13.8007 4.057 12.3322C4.057 12.3322 0.959999 10.0933 3.52025 7.36334C3.52025 7.36334 5.72425 5.57704 7.04 7.72445Z" fill="#FFB1A2"/>
<path d="M9.14428 7.20447C9.36278 7.20447 9.51477 7.04558 9.51477 6.82891C9.54802 5.9478 9.82352 5.0378 10.3508 4.06039C10.4743 3.83891 10.5978 3.65113 10.7213 3.42965C10.8448 3.24187 10.783 2.9915 10.5978 2.89521C10.4125 2.77002 10.1655 2.83261 10.0705 3.02039C9.94702 3.24187 9.79027 3.45854 9.66677 3.68002C9.07777 4.74891 8.76903 5.78891 8.70728 6.79521C8.74053 7.01669 8.92578 7.20447 9.14428 7.20447Z" fill="#393939"/>
<path d="M11.5001 0.916395C11.2721 1.11862 11.4099 1.41714 11.4099 1.41714L11.4431 1.45084C12.2174 2.42343 13.0581 3.40084 13.6756 4.46973C13.8324 4.69121 13.8324 4.94158 13.7374 5.19195C13.3051 6.44862 12.0939 7.04565 10.9159 7.64751C10.2034 7.99417 9.61439 8.46603 9.02539 8.93788C8.37464 9.44343 7.78564 9.88158 7.06839 10.1945C6.82139 10.3197 6.29414 10.3197 5.91889 10.0982C5.76214 10.0357 5.61014 9.91047 5.54839 9.68899C5.42489 9.12084 6.41764 8.43232 7.16339 8.14825C7.34864 8.08565 7.47214 7.83528 7.38189 7.64269C7.32014 7.45491 7.07314 7.32973 6.88314 7.42121C6.04714 7.73417 4.55564 8.67788 4.80264 9.87677C4.89764 10.2523 5.14464 10.599 5.57689 10.8205C5.88564 10.9794 6.28939 11.0708 6.63139 11.0708C6.91164 11.0708 7.15864 11.0082 7.37714 10.912C8.15139 10.5653 8.83539 10.0308 9.48614 9.55899C10.0751 9.12084 10.6356 8.67788 11.2531 8.36491L11.2864 8.33121C12.5594 7.70047 13.9559 6.97825 14.4831 5.43751C14.6399 4.93195 14.6066 4.46491 14.3264 4.02195C13.6424 2.91936 12.8064 1.91306 12.0321 0.906765L11.9989 0.873062C11.7234 0.709358 11.5001 0.916395 11.5001 0.916395Z" fill="#393939"/>
<path d="M1.80071 9.31368L1.86246 9.0296C2.14271 7.96071 2.42296 6.82923 2.14271 5.66405C2.04771 5.28849 1.83396 5.00442 1.52046 4.84553C1.33521 4.74923 1.08821 4.81183 0.993213 5.03331C0.902963 5.2259 0.964713 5.47627 1.18321 5.57257C1.27821 5.63516 1.36846 5.73145 1.40171 5.88553C1.64871 6.89183 1.36846 7.89812 1.12146 8.90442L1.02646 9.1259C0.931463 9.53516 0.841213 9.91071 0.779463 10.2574C0.280713 12.7129 0.157213 15.2889 0.470713 17.4892C0.503963 17.677 0.655963 17.8359 0.841213 17.8359C0.874463 17.8359 0.874463 17.8359 0.902963 17.8359C1.12146 17.8022 1.27346 17.6144 1.24496 17.3978C0.936213 15.26 1.05971 12.8044 1.52521 10.4163C1.61546 10.0696 1.67721 9.72294 1.80071 9.31368Z" fill="#393939"/>
<path d="M4.05682 17.6337L5.29657 15.6596C5.35832 15.5345 5.45332 15.4719 5.57682 15.4093C5.63857 15.3756 5.67182 15.3756 5.73357 15.3756C5.91882 15.3756 6.07557 15.4719 6.16582 15.6259L7.40557 17.6C7.46732 17.7252 7.62407 17.8215 7.74757 17.8215C7.80932 17.8215 7.87107 17.8215 7.93282 17.7878C8.11807 17.6915 8.21307 17.4411 8.08957 17.2533L6.84982 15.2793C6.63132 14.8411 6.19907 14.5859 5.73357 14.5859C5.57682 14.5859 5.45332 14.6196 5.32982 14.6485C5.02107 14.7448 4.76932 14.9615 4.64582 15.2793L3.40607 17.2533C3.31107 17.4411 3.37282 17.6915 3.56282 17.7878C3.71482 17.8889 3.93332 17.8263 4.05682 17.6337Z" fill="#393939"/>
<path d="M10.5788 17.8359C10.612 17.8359 10.612 17.8359 10.6405 17.8359C10.8258 17.8359 11.011 17.677 11.011 17.4892C11.2295 15.8233 10.9493 14.2488 10.669 12.5829C10.6073 12.2362 10.5455 11.8607 10.4838 11.4803L10.4505 11.2588C10.4173 11.0374 10.232 10.8833 10.0183 10.9122C9.79978 10.9459 9.64778 11.1337 9.67628 11.3503L9.70953 11.5718C9.77128 11.9474 9.83304 12.3277 9.89479 12.7033C10.175 14.3066 10.422 15.8185 10.2368 17.3592C10.2035 17.6144 10.3603 17.807 10.5788 17.8359Z" fill="#393939"/>
</g>
<defs>
<clipPath id="clip0_3202_11792">
<rect width="14.2738" height="17.0204" fill="white" transform="translate(0.300049 0.814941)"/>
</clipPath>
</defs>
</svg>
