<svg width="18" height="18" viewBox="0 0 18 18" fill="none" xmlns="http://www.w3.org/2000/svg">
<g clip-path="url(#clip0_3202_11639)">
<path d="M6.31372 5.33866C6.11836 5.30951 5.92299 5.4504 5.89368 5.64958C5.63971 7.34996 4.63845 8.58395 3.50532 8.58395C2.15241 8.58395 1.05347 6.89329 1.05347 4.81883C1.05347 2.74437 2.15241 1.05371 3.50532 1.05371C4.63845 1.05371 5.63971 2.2877 5.89368 3.98807C5.90834 4.08524 5.96206 4.17269 6.04021 4.23099" fill="#D6FFD0"/>
<path d="M11.6765 5.33866C11.8719 5.30951 12.0672 5.4504 12.0966 5.64958C12.3505 7.34996 13.3518 8.58395 14.4849 8.58395C15.8378 8.58395 16.9368 6.89329 16.9368 4.81883C16.9368 2.74437 15.8378 1.05371 14.4849 1.05371C13.3518 1.05371 12.3505 2.2877 12.0966 3.98807C12.0819 4.08524 12.0282 4.17269 11.95 4.23099" fill="#D6FFD0"/>
<path d="M6.62627 5.75663C6.64093 5.65947 6.6165 5.5623 6.55789 5.48457C6.49928 5.40684 6.41137 5.3534 6.31369 5.33883C6.11832 5.30968 5.92295 5.45056 5.89365 5.64975C5.63967 7.35013 4.63841 8.58412 3.50528 8.58412C2.15237 8.58412 1.05343 6.89346 1.05343 4.819C1.05343 2.74454 2.15237 1.05388 3.50528 1.05388C4.63841 1.05388 5.63967 2.28787 5.89365 3.98824C5.9083 4.08541 5.96202 4.17285 6.04017 4.23115C6.11832 4.28945 6.216 4.31374 6.31369 4.29917C6.41137 4.28459 6.49928 4.23115 6.55789 4.15342C6.6165 4.07569 6.64093 3.97853 6.62627 3.88136C6.31857 1.78261 5.03403 0.31543 3.50528 0.31543C1.74698 0.31543 0.315918 2.33645 0.315918 4.819C0.315918 7.30155 1.74698 9.32256 3.50528 9.32256C5.03403 9.32256 6.31369 7.85538 6.62627 5.75663Z" fill="#393939"/>
<path d="M10.5579 5.99936C10.5579 5.25605 11.1831 5.18804 11.3736 5.18804H12.2576C12.5067 5.18804 12.6337 5.33864 12.8535 5.63014C13.0879 5.94106 13.4103 6.36859 14.0404 6.36859C14.2455 6.36859 14.4116 6.20341 14.4116 5.99936C14.4116 5.79532 14.2455 5.63014 14.0404 5.63014C13.7913 5.63014 13.6643 5.47953 13.4445 5.18804H14.9342C15.1393 5.18804 15.3054 5.02286 15.3054 4.81881C15.3054 4.61477 15.1393 4.44959 14.9342 4.44959H14.6362C14.856 4.1581 14.983 4.00749 15.2321 4.00749C15.4372 4.00749 15.6033 3.84231 15.6033 3.63827C15.6033 3.43422 15.4372 3.26904 15.2321 3.26904C14.602 3.26904 14.2797 3.69657 14.0452 4.00749C13.8059 4.32328 13.6887 4.44959 13.4543 4.44959H11.3785C10.8412 4.44959 9.82043 4.77509 9.82043 5.99936C9.82043 6.63579 10.3137 7.42282 10.8852 8.34588C11.5006 9.3321 12.1941 10.4446 12.1941 11.3143C12.1941 11.8001 12.033 12.1644 11.7155 12.4025C11.5348 11.2462 10.3675 10.3523 8.99501 10.3523C7.62255 10.3523 6.45524 11.2414 6.27452 12.4025C5.96193 12.1644 5.80076 11.8001 5.80076 11.3143C5.80076 10.4446 6.49431 9.32724 7.1146 8.33616C7.68605 7.42282 8.17447 6.63093 8.17447 5.9945C8.17447 4.77023 7.15367 4.44473 6.61641 4.44473H4.54552C4.31108 4.44473 4.18898 4.31356 3.94965 3.99778C3.71521 3.69657 3.39286 3.26904 2.7628 3.26904C2.55766 3.26904 2.3916 3.43422 2.3916 3.63827C2.3916 3.84231 2.55766 4.00749 2.7628 4.00749C3.00701 4.00749 3.134 4.1581 3.35867 4.45445H3.06073C2.8556 4.45445 2.68954 4.61963 2.68954 4.82367C2.68954 5.02772 2.8556 5.1929 3.06073 5.1929H4.55041C4.33062 5.48439 4.20363 5.63499 3.95454 5.63499C3.7494 5.63499 3.58334 5.80017 3.58334 6.00422C3.58334 6.20826 3.7494 6.37344 3.95454 6.37344C4.5846 6.37344 4.90695 5.94592 5.14139 5.63499C5.36118 5.3435 5.48817 5.1929 5.73726 5.1929H6.62618C6.81666 5.1929 7.44672 5.26091 7.44672 6.00422C7.44672 6.43174 6.96319 7.20906 6.49431 7.95722C5.83006 9.02603 5.07301 10.2357 5.07301 11.3191C5.07301 12.4997 5.74215 13.0292 6.31848 13.2673C6.51385 14.2486 7.15856 15.5118 8.03771 16.0947V17.319C8.03771 17.5231 8.20377 17.6882 8.40891 17.6882C8.61404 17.6882 8.7801 17.5231 8.7801 17.319V16.3959C8.9364 16.4202 9.07315 16.4202 9.22945 16.3959V17.319C9.22945 17.5231 9.39551 17.6882 9.60064 17.6882C9.80578 17.6882 9.97184 17.5231 9.97184 17.319V16.0947C10.851 15.5166 11.4957 14.2486 11.6911 13.2673C12.2723 13.0292 12.9414 12.4997 12.9414 11.3191C12.9414 10.2357 12.1844 9.02603 11.5201 7.95722C11.0415 7.2042 10.5579 6.42688 10.5579 5.99936ZM11.0024 12.7183C11.0024 13.6413 10.0353 15.6721 8.99989 15.6721C7.96445 15.6721 6.99738 13.6413 6.99738 12.7183C6.99738 11.8244 7.89607 11.0956 8.99989 11.0956C10.1037 11.0956 11.0024 11.8195 11.0024 12.7183Z" fill="#393939"/>
<path d="M14.4899 0.31543C12.966 0.31543 11.6815 1.78261 11.3689 3.8765C11.3396 4.07569 11.4812 4.26516 11.6815 4.29431C11.8866 4.32346 12.0722 4.18257 12.1015 3.98338C12.3555 2.28301 13.3568 1.04902 14.4899 1.04902C15.8428 1.04902 16.9417 2.73968 16.9417 4.81414C16.9417 6.8886 15.8428 8.57926 14.4899 8.57926C13.3568 8.57926 12.3555 7.34527 12.1015 5.64489C12.0869 5.54773 12.0331 5.46028 11.955 5.40198C11.8769 5.34368 11.7743 5.31939 11.6815 5.33397C11.5838 5.34854 11.4959 5.39712 11.4373 5.47971C11.3787 5.5623 11.3542 5.65947 11.3689 5.75663C11.6815 7.85538 12.966 9.31771 14.4899 9.31771C16.2482 9.31771 17.6793 7.29669 17.6793 4.81414C17.6793 2.33159 16.2482 0.31543 14.4899 0.31543Z" fill="#393939"/>
</g>
<defs>
<clipPath id="clip0_3202_11639">
<rect width="17.3681" height="17.3681" fill="white" transform="translate(0.315918 0.315918)"/>
</clipPath>
</defs>
</svg>
